<svg version="1.1" xmlns="http://www.w3.org/2000/svg" viewBox="0 0 820 1034" width="820" height="1034">
  <!-- svg-source:excalidraw -->
  
  <defs>
    <style class="style-fonts">
      @font-face {
        font-family: "Virgil";
        src: url("https://unpkg.com/@excalidraw/excalidraw@undefined/dist/excalidraw-assets/Virgil.woff2");
      }
      @font-face {
        font-family: "Cascadia";
        src: url("https://unpkg.com/@excalidraw/excalidraw@undefined/dist/excalidraw-assets/Cascadia.woff2");
      }
      @font-face {
        font-family: "Assistant";
        src: url("https://unpkg.com/@excalidraw/excalidraw@undefined/dist/excalidraw-assets/Assistant-Regular.woff2");
      }
    </style>
    
  </defs>
  <rect x="0" y="0" width="820" height="1034" fill="#ffffff"/><g stroke-linecap="round" transform="translate(320 10) rotate(0 90 52)"><path d="M113.88 1.28 C126.13 2.55, 140.3 8.56, 150.21 13.83 C160.12 19.1, 168.25 26.13, 173.33 32.9 C178.42 39.68, 181.62 47.09, 180.74 54.48 C179.86 61.87, 174.49 70.71, 168.04 77.24 C161.59 83.77, 152.52 89.36, 142.02 93.66 C131.52 97.97, 117.92 101.6, 105.05 103.08 C92.18 104.56, 77.37 104.49, 64.81 102.54 C52.25 100.58, 39.49 96.57, 29.7 91.34 C19.9 86.12, 11.07 78.09, 6.04 71.19 C1.01 64.29, -1.32 57.29, -0.46 49.92 C0.39 42.54, 4.8 33.51, 11.17 26.95 C17.54 20.4, 27.09 14.87, 37.75 10.61 C48.41 6.35, 61.68 2.78, 75.14 1.4 C88.61 0.01, 110.43 1.84, 118.52 2.32 C126.61 2.79, 124.15 3.26, 123.68 4.26 M48.6 7 C58.62 3.3, 72.19 1.87, 85.34 1.51 C98.48 1.16, 115.51 2.13, 127.48 4.88 C139.45 7.63, 148.87 12.59, 157.17 18.01 C165.47 23.42, 173.48 29.91, 177.27 37.36 C181.05 44.82, 182.37 54.92, 179.9 62.74 C177.43 70.55, 170.62 78.63, 162.46 84.26 C154.31 89.89, 142.43 93.29, 130.98 96.52 C119.52 99.75, 106.5 103.06, 93.73 103.65 C80.95 104.24, 66.2 102.85, 54.35 100.08 C42.49 97.31, 30.97 92.96, 22.6 87.05 C14.23 81.13, 7.48 72.23, 4.1 64.6 C0.73 56.98, -0.01 48.81, 2.35 41.32 C4.7 33.84, 10.74 25.67, 18.25 19.69 C25.75 13.71, 42.24 7.76, 47.36 5.45 C52.48 3.13, 48.37 4.89, 48.96 5.82" stroke="none" stroke-width="0" fill="#e599f7"/><path d="M111.18 1.69 C123.55 2.58, 137.35 7.72, 147.41 12.38 C157.47 17.05, 166.01 23.11, 171.53 29.7 C177.05 36.28, 180.69 44.39, 180.52 51.89 C180.35 59.4, 176.27 67.96, 170.52 74.74 C164.77 81.51, 156.05 87.79, 146 92.56 C135.94 97.32, 123.03 101.5, 110.18 103.33 C97.32 105.17, 81.59 105.31, 68.88 103.58 C56.17 101.84, 44.01 97.8, 33.92 92.92 C23.82 88.03, 14.01 81.15, 8.31 74.27 C2.61 67.39, -0.62 59.08, -0.3 51.63 C0.02 44.17, 4.36 36.41, 10.23 29.54 C16.1 22.67, 24.81 15.03, 34.94 10.41 C45.08 5.78, 56.65 2.93, 71.04 1.79 C85.43 0.64, 111.77 2.84, 121.29 3.53 C130.81 4.23, 128.75 5.3, 128.16 5.96 M77.86 1.2 C90.09 -0.41, 105.85 1.22, 118.38 3.55 C130.92 5.89, 143.83 10.08, 153.09 15.21 C162.36 20.34, 169.31 27.41, 173.95 34.33 C178.59 41.25, 181.89 49.47, 180.95 56.72 C180 63.96, 175.13 71.46, 168.28 77.78 C161.43 84.11, 150.72 90.58, 139.85 94.66 C128.97 98.74, 116.02 101.18, 103.03 102.28 C90.05 103.39, 74.41 103.25, 61.94 101.29 C49.46 99.33, 37.74 95.54, 28.19 90.53 C18.64 85.52, 9.45 78.36, 4.63 71.24 C-0.18 64.12, -2.06 55.47, -0.7 47.79 C0.66 40.11, 5.78 31.59, 12.78 25.15 C19.78 18.72, 30.51 13.22, 41.28 9.21 C52.06 5.2, 71.32 2.15, 77.42 1.11 C83.52 0.07, 77.73 2.21, 77.88 2.96" stroke="#9c36b5" stroke-width="2" fill="none"/></g><g transform="translate(330 52) rotate(0 80 10)"><text x="80" y="0" font-family="Virgil, Segoe UI Emoji" font-size="16px" fill="#9c36b5" text-anchor="middle" style="white-space: pre;" direction="ltr" dominant-baseline="text-before-edge">LLM</text><text x="80" y="20" font-family="Virgil, Segoe UI Emoji" font-size="16px" fill="#9c36b5" text-anchor="middle" style="white-space: pre;" direction="ltr" dominant-baseline="text-before-edge">(Claude, etc.)</text></g><g stroke-linecap="round" transform="translate(320 230) rotate(0 90 52)"><path d="M26 0 C56.38 -0.4, 84.77 -1.54, 154 0 C168.79 -3.47, 178.47 7.72, 180 26 C178.21 41.16, 183.45 48.56, 180 78 C178.57 98.9, 168.23 105.5, 154 104 C117.43 103.48, 79.45 101.69, 26 104 C6.94 105.24, 1.33 97.53, 0 78 C0.1 63.99, -0.5 52.57, 0 26 C-2.3 5.58, 8.79 -1.49, 26 0" stroke="none" stroke-width="0" fill="#ffa8a8"/><path d="M26 0 C57.87 -1.22, 88.04 -0.38, 154 0 M26 0 C72.82 1.42, 118.62 1.79, 154 0 M154 0 C172.54 -0.82, 179.35 7.42, 180 26 M154 0 C169.99 1.17, 179.7 8.09, 180 26 M180 26 C178.15 37.51, 178.92 48.36, 180 78 M180 26 C178.94 41.9, 179.39 57.07, 180 78 M180 78 C179.12 95.87, 170.51 103.05, 154 104 M180 78 C180.47 96.05, 172.34 101.8, 154 104 M154 104 C115.11 104.96, 76.3 101.57, 26 104 M154 104 C112.21 104.7, 68.9 103.58, 26 104 M26 104 C7.47 103.37, 1.98 94.01, 0 78 M26 104 C6.57 103.05, -0.13 95.89, 0 78 M0 78 C0.25 67.42, 0.18 53.29, 0 26 M0 78 C0.5 65.62, -0.68 50.51, 0 26 M0 26 C-0.71 7.3, 6.82 0.51, 26 0 M0 26 C-0.77 10.94, 6.71 1.08, 26 0" stroke="#c92a2a" stroke-width="2" fill="none"/></g><g transform="translate(330 272) rotate(0 80 10)"><text x="80" y="0" font-family="Virgil, Segoe UI Emoji" font-size="16px" fill="#c92a2a" text-anchor="middle" style="white-space: pre;" direction="ltr" dominant-baseline="text-before-edge">MCP Server</text><text x="80" y="20" font-family="Virgil, Segoe UI Emoji" font-size="16px" fill="#c92a2a" text-anchor="middle" style="white-space: pre;" direction="ltr" dominant-baseline="text-before-edge">(index.ts)</text></g><g stroke-linecap="round" transform="translate(320 450) rotate(0 90 52)"><path d="M26 0 C53.13 -4.19, 86.04 -3.54, 154 0 C169.03 -0.94, 179.16 8.54, 180 26 C182.06 42.46, 181 65.66, 180 78 C177.86 98.27, 171.48 104.03, 154 104 C121.88 102.26, 93.24 108.68, 26 104 C6.44 100.62, 0.75 92.81, 0 78 C0.66 59.54, -1.91 51.22, 0 26 C3.32 9.55, 9.24 -1.24, 26 0" stroke="none" stroke-width="0" fill="#d0bfff"/><path d="M26 0 C56.09 0.97, 82.17 -0.88, 154 0 M26 0 C74.26 0.01, 122.29 -0.42, 154 0 M154 0 C170.49 -1.53, 180.57 10.49, 180 26 M154 0 C172.82 -1.07, 182.05 10.18, 180 26 M180 26 C178.4 44.14, 180.84 61.16, 180 78 M180 26 C179.43 40.78, 180.66 55.5, 180 78 M180 78 C180.2 93.44, 170.35 105.22, 154 104 M180 78 C181.68 93.86, 172.24 104.95, 154 104 M154 104 C121.63 104.13, 90.05 102.83, 26 104 M154 104 C103.47 104.05, 53.24 103.36, 26 104 M26 104 C8.47 103.32, -1.47 93.84, 0 78 M26 104 C8.32 101.74, 1.09 96.1, 0 78 M0 78 C-0.04 56.99, 1.36 38.42, 0 26 M0 78 C0.36 64.47, -1.19 53.01, 0 26 M0 26 C-0.5 7.49, 6.86 -0.52, 26 0 M0 26 C2.17 10.6, 6.5 0.22, 26 0" stroke="#7048e8" stroke-width="2" fill="none"/></g><g transform="translate(330 492) rotate(0 80 10)"><text x="80" y="0" font-family="Virgil, Segoe UI Emoji" font-size="16px" fill="#7048e8" text-anchor="middle" style="white-space: pre;" direction="ltr" dominant-baseline="text-before-edge">Executor</text><text x="80" y="20" font-family="Virgil, Segoe UI Emoji" font-size="16px" fill="#7048e8" text-anchor="middle" style="white-space: pre;" direction="ltr" dominant-baseline="text-before-edge">(new Function)</text></g><g stroke-linecap="round" transform="translate(40 670) rotate(0 90 52)"><path d="M26 0 C55.67 4.16, 86.69 3.91, 154 0 C174.12 3.57, 179.27 10.42, 180 26 C179.9 47.06, 181.27 69.06, 180 78 C182.62 96.54, 170.73 104.74, 154 104 C109.77 105.49, 65.05 105.94, 26 104 C12.06 107.12, 3.21 95.97, 0 78 C0.02 56.89, 2.39 39.54, 0 26 C1.42 12.18, 8.73 -3.29, 26 0" stroke="none" stroke-width="0" fill="#b2f2bb"/><path d="M26 0 C61.22 -0.77, 93.92 1.73, 154 0 M26 0 C64.69 1.57, 103.32 0.48, 154 0 M154 0 C170.07 1.41, 178.7 8.21, 180 26 M154 0 C169.68 0.76, 178.8 7.61, 180 26 M180 26 C180.85 42.96, 180.4 58.89, 180 78 M180 26 C179.19 38.88, 178.72 52.89, 180 78 M180 78 C179 94.2, 171.43 102.06, 154 104 M180 78 C178.07 94.61, 169.97 103.34, 154 104 M154 104 C128.28 104.46, 98.36 102.43, 26 104 M154 104 C122.28 103.56, 89.13 104.53, 26 104 M26 104 C9.62 105.17, 1.59 95.59, 0 78 M26 104 C10.8 105.84, -0.8 94.46, 0 78 M0 78 C0.73 62.05, -1.31 41.43, 0 26 M0 78 C0.39 67.99, 0.3 55.73, 0 26 M0 26 C1.73 9.97, 9.34 0.86, 26 0 M0 26 C0.32 8.14, 9.24 2.12, 26 0" stroke="#2f9e44" stroke-width="2" fill="none"/></g><g transform="translate(50 712) rotate(0 80 10)"><text x="80" y="0" font-family="Virgil, Segoe UI Emoji" font-size="16px" fill="#2f9e44" text-anchor="middle" style="white-space: pre;" direction="ltr" dominant-baseline="text-before-edge">Graphviz WASM</text><text x="80" y="20" font-family="Virgil, Segoe UI Emoji" font-size="16px" fill="#2f9e44" text-anchor="middle" style="white-space: pre;" direction="ltr" dominant-baseline="text-before-edge">(layout.ts)</text></g><g stroke-linecap="round" transform="translate(320 670) rotate(0 90 52)"><path d="M26 0 C74.7 5.15, 127.59 4.94, 154 0 C169.78 -2.32, 178.17 7.51, 180 26 C181.4 46.57, 178.15 58.41, 180 78 C176.74 92.04, 172.25 101.25, 154 104 C101.96 103.48, 51.12 100.75, 26 104 C6.16 106.2, -2.78 95.55, 0 78 C-0.65 59.34, 1.93 45.42, 0 26 C-2.13 9.14, 7.06 1.81, 26 0" stroke="none" stroke-width="0" fill="#d0bfff"/><path d="M26 0 C63.78 -1, 101.29 -0.85, 154 0 M26 0 C57.68 -0.4, 88.06 0.43, 154 0 M154 0 C172.88 -0.14, 181 7.27, 180 26 M154 0 C169.43 1.67, 180.81 8.49, 180 26 M180 26 C179.34 47.29, 179.95 67.57, 180 78 M180 26 C180.56 42.55, 179.46 61.12, 180 78 M180 78 C178.41 95.72, 172.7 102.4, 154 104 M180 78 C178.6 95.3, 173.27 103.74, 154 104 M154 104 C119.03 104.8, 83.72 104.75, 26 104 M154 104 C124.28 104.39, 95.12 103.77, 26 104 M26 104 C8.55 103.92, 1.04 94.02, 0 78 M26 104 C6.59 106.15, -0.55 93.18, 0 78 M0 78 C1.61 66.06, 1.12 51.59, 0 26 M0 78 C0.58 62.83, 1.17 47.3, 0 26 M0 26 C-1.19 6.86, 8.86 1.98, 26 0 M0 26 C2.1 7.18, 6.67 2.06, 26 0" stroke="#7048e8" stroke-width="2" fill="none"/></g><g transform="translate(330 712) rotate(0 80 10)"><text x="80" y="0" font-family="Virgil, Segoe UI Emoji" font-size="16px" fill="#7048e8" text-anchor="middle" style="white-space: pre;" direction="ltr" dominant-baseline="text-before-edge">Diagram SDK</text><text x="80" y="20" font-family="Virgil, Segoe UI Emoji" font-size="16px" fill="#7048e8" text-anchor="middle" style="white-space: pre;" direction="ltr" dominant-baseline="text-before-edge">(sdk.ts)</text></g><g stroke-linecap="round" transform="translate(600 670) rotate(0 90 52)"><path d="M26 0 C53.11 -2.82, 81.13 0.39, 154 0 C171.79 0.34, 183.13 7.22, 180 26 C178.59 41.07, 182.88 55.38, 180 78 C180.25 92.02, 172.84 106.68, 154 104 C110 105.89, 68.77 104.01, 26 104 C5.79 100.78, -1.74 96.99, 0 78 C-3.58 62.13, -0.1 46.02, 0 26 C-2.92 9.8, 7.52 1.73, 26 0" stroke="none" stroke-width="0" fill="#ffec99"/><path d="M26 0 C69.59 2.18, 109.11 -0.61, 154 0 M26 0 C71.83 -1.21, 119.21 -0.95, 154 0 M154 0 C169.58 0.93, 179.03 9.34, 180 26 M154 0 C173.43 -2.29, 181.88 8.18, 180 26 M180 26 C178.99 45.47, 178.28 62.04, 180 78 M180 26 C180.51 41.39, 179.43 56.86, 180 78 M180 78 C181.91 97.24, 172.72 103.69, 154 104 M180 78 C181.07 94.53, 171.34 105.57, 154 104 M154 104 C115.75 103.03, 78.76 104.81, 26 104 M154 104 C104.89 103.6, 56.72 102.78, 26 104 M26 104 C10.56 103.21, 1.33 94.45, 0 78 M26 104 C9.3 104.27, -1.36 95.16, 0 78 M0 78 C-0.09 63.34, 1.3 48.85, 0 26 M0 78 C0.64 65.88, -0.21 53.23, 0 26 M0 26 C-0.51 9.74, 8.53 -1.6, 26 0 M0 26 C-1.71 9.12, 10.82 -0.51, 26 0" stroke="#f08c00" stroke-width="2" fill="none"/></g><g transform="translate(610 712) rotate(0 80 10)"><text x="80" y="0" font-family="Virgil, Segoe UI Emoji" font-size="16px" fill="#f08c00" text-anchor="middle" style="white-space: pre;" direction="ltr" dominant-baseline="text-before-edge">Zig WASM</text><text x="80" y="20" font-family="Virgil, Segoe UI Emoji" font-size="16px" fill="#f08c00" text-anchor="middle" style="white-space: pre;" direction="ltr" dominant-baseline="text-before-edge">(validate)</text></g><g stroke-linecap="round" transform="translate(40 890) rotate(0 90 52)"><path d="M26 0 C69.2 -1.34, 115.99 -1.32, 154 0 C173.8 -0.62, 182.37 7.13, 180 26 C183.79 37.93, 183.48 50.04, 180 78 C176.62 96.04, 168.92 107.55, 154 104 C108.74 108.43, 65.12 108.84, 26 104 C9.13 103.77, -2.19 93.26, 0 78 C0.53 65.37, -1.65 52.49, 0 26 C0.93 10.71, 11.47 -0.47, 26 0" stroke="none" stroke-width="0" fill="#a5d8ff"/><path d="M26 0 C57.64 -0.64, 92.4 1.93, 154 0 M26 0 C66.5 0.53, 107.79 0.19, 154 0 M154 0 C171.17 -1.83, 179.24 8.86, 180 26 M154 0 C171.51 -0.81, 180.33 10.35, 180 26 M180 26 C180.04 35.47, 179.08 46.13, 180 78 M180 26 C179.45 46.51, 180.84 68.04, 180 78 M180 78 C181.74 96.86, 172.57 103.91, 154 104 M180 78 C179.78 93.86, 169.84 103.56, 154 104 M154 104 C105.88 101.53, 60.16 102.68, 26 104 M154 104 C126.56 103.49, 99.44 104.84, 26 104 M26 104 C7.73 104.14, -0.04 93.56, 0 78 M26 104 C7.87 106.28, -1.75 95.62, 0 78 M0 78 C1.32 65.59, 1.85 55.91, 0 26 M0 78 C-0.65 64.4, -0.44 49.26, 0 26 M0 26 C-1.27 8.98, 6.91 -1.25, 26 0 M0 26 C-1.17 9.23, 7.38 1.21, 26 0" stroke="#1971c2" stroke-width="2" fill="none"/></g><g transform="translate(50 932) rotate(0 80 10)"><text x="80" y="0" font-family="Virgil, Segoe UI Emoji" font-size="16px" fill="#1971c2" text-anchor="middle" style="white-space: pre;" direction="ltr" dominant-baseline="text-before-edge">excalidraw.com</text><text x="80" y="20" font-family="Virgil, Segoe UI Emoji" font-size="16px" fill="#1971c2" text-anchor="middle" style="white-space: pre;" direction="ltr" dominant-baseline="text-before-edge">URL</text></g><g stroke-linecap="round" transform="translate(320 890) rotate(0 90 52)"><path d="M26 0 C55.35 3.2, 82.89 -0.41, 154 0 C167.83 -3.46, 182.71 11.79, 180 26 C180.06 36.81, 178.64 55.7, 180 78 C179.07 92, 170.04 102.58, 154 104 C103.5 105.25, 58.91 105.05, 26 104 C7.67 105.58, 1.73 97.96, 0 78 C3.34 59.88, -2.03 38.35, 0 26 C2.96 5.09, 8.56 2.14, 26 0" stroke="none" stroke-width="0" fill="#a5d8ff"/><path d="M26 0 C73.61 -0.95, 119.03 1.67, 154 0 M26 0 C71.03 -1.3, 117.5 -1.57, 154 0 M154 0 C171.94 -1.04, 179.46 6.72, 180 26 M154 0 C171.45 1.17, 178.13 8.48, 180 26 M180 26 C179.79 37.39, 179.16 50.99, 180 78 M180 26 C179.5 40.37, 180.55 53.67, 180 78 M180 78 C178.89 96.55, 170.12 102.24, 154 104 M180 78 C178.6 97.28, 169.57 104.43, 154 104 M154 104 C128.1 101.7, 101.48 103.22, 26 104 M154 104 C117.9 104, 81.82 103.39, 26 104 M26 104 C9.91 104.19, 1.31 93.75, 0 78 M26 104 C6.57 103.3, 2.1 95.46, 0 78 M0 78 C1.21 64.31, -1.41 55.11, 0 26 M0 78 C-1.44 65.94, -0.35 53.63, 0 26 M0 26 C-0.05 6.68, 6.91 1.78, 26 0 M0 26 C1.56 8.13, 8.97 -0.22, 26 0" stroke="#1971c2" stroke-width="2" fill="none"/></g><g transform="translate(330 932) rotate(0 80 10)"><text x="80" y="0" font-family="Virgil, Segoe UI Emoji" font-size="16px" fill="#1971c2" text-anchor="middle" style="white-space: pre;" direction="ltr" dominant-baseline="text-before-edge">.excalidraw +</text><text x="80" y="20" font-family="Virgil, Segoe UI Emoji" font-size="16px" fill="#1971c2" text-anchor="middle" style="white-space: pre;" direction="ltr" dominant-baseline="text-before-edge">.drawmode.ts</text></g><g stroke-linecap="round" transform="translate(600 890) rotate(0 90 52)"><path d="M26 0 C68.99 -0.06, 114.03 -3.41, 154 0 C169.64 0.33, 178.44 9.31, 180 26 C180.71 39.6, 180.75 49.33, 180 78 C182.32 97.43, 169.42 105.72, 154 104 C122.3 105.62, 100.29 101.96, 26 104 C8.69 103.91, 2.13 95.35, 0 78 C2.41 62.08, -0.5 49.04, 0 26 C1.51 6.35, 6.56 -0.92, 26 0" stroke="none" stroke-width="0" fill="#a5d8ff"/><path d="M26 0 C70.37 -0.67, 117.76 2.03, 154 0 M26 0 C71.54 -1.28, 117.78 -1.24, 154 0 M154 0 C172.73 -0.38, 179.78 8.02, 180 26 M154 0 C171.04 -2.12, 181.78 8.73, 180 26 M180 26 C180.15 45.21, 180.72 64.49, 180 78 M180 26 C179.13 42.12, 179.97 58.17, 180 78 M180 78 C178.84 94.26, 169.74 104.72, 154 104 M180 78 C178.44 95.5, 169.94 103.95, 154 104 M154 104 C127.66 102.52, 97.56 101.69, 26 104 M154 104 C104.79 104.13, 54.61 104.75, 26 104 M26 104 C10.45 104, -0.43 95.68, 0 78 M26 104 C8.1 104.42, -1.69 97.46, 0 78 M0 78 C-0.74 60.63, -0.22 48.05, 0 26 M0 78 C-0.38 65.2, 0.26 54, 0 26 M0 26 C1.78 8.33, 7.86 0.6, 26 0 M0 26 C-2.04 8.91, 6.57 1.84, 26 0" stroke="#1971c2" stroke-width="2" fill="none"/></g><g transform="translate(610 932) rotate(0 80 10)"><text x="80" y="0" font-family="Virgil, Segoe UI Emoji" font-size="16px" fill="#1971c2" text-anchor="middle" style="white-space: pre;" direction="ltr" dominant-baseline="text-before-edge">PNG / SVG</text><text x="80" y="20" font-family="Virgil, Segoe UI Emoji" font-size="16px" fill="#1971c2" text-anchor="middle" style="white-space: pre;" direction="ltr" dominant-baseline="text-before-edge">file</text></g><g stroke-linecap="round"><g transform="translate(410 114) rotate(0 0 58)"><path d="M0 0 C0 44.7, 0 89.4, 0 116 M0 0 C0 37.04, 0 74.07, 0 116" stroke="#c92a2a" stroke-width="2" fill="none"/></g><g transform="translate(410 114) rotate(0 0 58)"><path d="M-10.26 87.81 C-6.31 98.67, -2.35 109.54, 0 116 M-10.26 87.81 C-6.98 96.81, -3.71 105.81, 0 116" stroke="#c92a2a" stroke-width="2" fill="none"/></g><g transform="translate(410 114) rotate(0 0 58)"><path d="M10.26 87.81 C6.31 98.67, 2.35 109.54, 0 116 M10.26 87.81 C6.98 96.81, 3.71 105.81, 0 116" stroke="#c92a2a" stroke-width="2" fill="none"/></g></g><mask/><g transform="translate(410 160) rotate(0 45.80000000000001 10)"><text x="45.800000000000004" y="0" font-family="Virgil, Segoe UI Emoji" font-size="14px" fill="#1e1e1e" text-anchor="middle" style="white-space: pre;" direction="ltr" dominant-baseline="text-before-edge">draw tool</text></g><g stroke-linecap="round"><g transform="translate(410 334) rotate(0 0 58)"><path d="M0 0 C0 40.55, 0 81.09, 0 116 M0 0 C0 38.47, 0 76.94, 0 116" stroke="#7048e8" stroke-width="2" fill="none"/></g><g transform="translate(410 334) rotate(0 0 58)"><path d="M-10.26 87.81 C-6.67 97.66, -3.09 107.52, 0 116 M-10.26 87.81 C-6.86 97.16, -3.45 106.51, 0 116" stroke="#7048e8" stroke-width="2" fill="none"/></g><g transform="translate(410 334) rotate(0 0 58)"><path d="M10.26 87.81 C6.67 97.66, 3.09 107.52, 0 116 M10.26 87.81 C6.86 97.16, 3.45 106.51, 0 116" stroke="#7048e8" stroke-width="2" fill="none"/></g></g><mask/><g transform="translate(410 380) rotate(0 24.80000000000001 10)"><text x="24.8" y="0" font-family="Virgil, Segoe UI Emoji" font-size="14px" fill="#1e1e1e" text-anchor="middle" style="white-space: pre;" direction="ltr" dominant-baseline="text-before-edge">code</text></g><g stroke-linecap="round"><g transform="translate(410 554) rotate(0 0 58)"><path d="M0 0 C0 33.29, 0 66.57, 0 116 M0 0 C0 40.36, 0 80.72, 0 116" stroke="#7048e8" stroke-width="2" fill="none"/></g><g transform="translate(410 554) rotate(0 0 58)"><path d="M-10.26 87.81 C-7.32 95.9, -4.37 103.99, 0 116 M-10.26 87.81 C-6.69 97.62, -3.12 107.43, 0 116" stroke="#7048e8" stroke-width="2" fill="none"/></g><g transform="translate(410 554) rotate(0 0 58)"><path d="M10.26 87.81 C7.32 95.9, 4.37 103.99, 0 116 M10.26 87.81 C6.69 97.62, 3.12 107.43, 0 116" stroke="#7048e8" stroke-width="2" fill="none"/></g></g><mask/><g transform="translate(410 600) rotate(0 54.19999999999999 10)"><text x="54.2" y="0" font-family="Virgil, Segoe UI Emoji" font-size="14px" fill="#1e1e1e" text-anchor="middle" style="white-space: pre;" direction="ltr" dominant-baseline="text-before-edge">Diagram API</text></g><g stroke-linecap="round"><g transform="translate(410 774) rotate(0 -140 -52)"><path d="M0 0 C0 -11.59, 0 -23.17, 0 -52 M0 0 C0 -12.6, 0 -25.21, 0 -52 M0 -52 C-75.78 -52, -151.55 -52, -280 -52 M0 -52 C-75.73 -52, -151.46 -52, -280 -52 M-280 -52 C-280 -71.91, -280 -91.82, -280 -104 M-280 -52 C-280 -67.14, -280 -82.29, -280 -104" stroke="#2f9e44" stroke-width="2" fill="none"/></g><g transform="translate(410 774) rotate(0 -140 -52)"><path d="M-271.11 -79.57 C-273.09 -85.01, -275.07 -90.46, -280 -104 M-271.11 -79.57 C-273.26 -85.49, -275.42 -91.41, -280 -104" stroke="#2f9e44" stroke-width="2" fill="none"/></g><g transform="translate(410 774) rotate(0 -140 -52)"><path d="M-288.89 -79.57 C-286.91 -85.01, -284.93 -90.46, -280 -104 M-288.89 -79.57 C-286.74 -85.49, -284.58 -91.41, -280 -104" stroke="#2f9e44" stroke-width="2" fill="none"/></g></g><mask/><g transform="translate(130 640) rotate(0 33.19999999999999 10)"><text x="33.2" y="0" font-family="Virgil, Segoe UI Emoji" font-size="14px" fill="#1e1e1e" text-anchor="middle" style="white-space: pre;" direction="ltr" dominant-baseline="text-before-edge">layout</text></g><g stroke-linecap="round"><g transform="translate(130 774) rotate(0 140 -52)"><path d="M0 0 C0 -20.68, 0 -41.37, 0 -52 M0 -52 C81.53 -52, 163.05 -52, 280 -52 M280 -52 C280 -65.69, 280 -79.39, 280 -104" stroke="#7048e8" stroke-width="2.5" fill="none" stroke-dasharray="8 10"/></g><g transform="translate(130 774) rotate(0 140 -52)"><path d="M288.89 -79.57 C285.36 -89.29, 281.82 -99.01, 280 -104" stroke="#7048e8" stroke-width="2.5" fill="none"/></g><g transform="translate(130 774) rotate(0 140 -52)"><path d="M271.11 -79.57 C274.64 -89.29, 278.18 -99.01, 280 -104" stroke="#7048e8" stroke-width="2.5" fill="none"/></g></g><mask/><g transform="translate(227.60000000000002 736) rotate(0 45.80000000000001 10)"><text x="45.800000000000004" y="0" font-family="Virgil, Segoe UI Emoji" font-size="14px" fill="#1e1e1e" text-anchor="middle" style="white-space: pre;" direction="ltr" dominant-baseline="text-before-edge">positions</text></g><g stroke-linecap="round"><g transform="translate(378 774) rotate(0 156 -52)"><path d="M0 0 C0 -15.94, 0 -31.88, 0 -52 M0 0 C0 -12.97, 0 -25.93, 0 -52 M0 -52 C71.73 -52, 143.45 -52, 312 -52 M0 -52 C64.57 -52, 129.14 -52, 312 -52 M312 -52 C312 -69.63, 312 -87.26, 312 -104 M312 -52 C312 -71.49, 312 -90.97, 312 -104" stroke="#f08c00" stroke-width="2" fill="none"/></g><g transform="translate(378 774) rotate(0 156 -52)"><path d="M320.89 -79.57 C318.17 -87.06, 315.44 -94.55, 312 -104 M320.89 -79.57 C318.68 -85.66, 316.46 -91.75, 312 -104" stroke="#f08c00" stroke-width="2" fill="none"/></g><g transform="translate(378 774) rotate(0 156 -52)"><path d="M303.11 -79.57 C305.83 -87.06, 308.56 -94.55, 312 -104 M303.11 -79.57 C305.32 -85.66, 307.54 -91.75, 312 -104" stroke="#f08c00" stroke-width="2" fill="none"/></g></g><mask/><g transform="translate(534 710) rotate(0 41.60000000000002 10)"><text x="41.6" y="0" font-family="Virgil, Segoe UI Emoji" font-size="14px" fill="#1e1e1e" text-anchor="middle" style="white-space: pre;" direction="ltr" dominant-baseline="text-before-edge">validate</text></g><g stroke-linecap="round"><g transform="translate(442 774) rotate(0 -156 58)"><path d="M0 0 C0 14.14, 0 28.28, 0 58 M0 0 C0 20.08, 0 40.17, 0 58 M0 58 C-86.5 58, -172.99 58, -312 58 M0 58 C-84.9 58, -169.8 58, -312 58 M-312 58 C-312 80.62, -312 103.24, -312 116 M-312 58 C-312 80.44, -312 102.88, -312 116" stroke="#1971c2" stroke-width="2" fill="none"/></g><g transform="translate(442 774) rotate(0 -156 58)"><path d="M-321.92 88.75 C-319.5 95.39, -317.08 102.03, -312 116 M-321.92 88.75 C-318.48 98.19, -315.05 107.62, -312 116" stroke="#1971c2" stroke-width="2" fill="none"/></g><g transform="translate(442 774) rotate(0 -156 58)"><path d="M-302.08 88.75 C-304.5 95.39, -306.92 102.03, -312 116 M-302.08 88.75 C-305.52 98.19, -308.95 107.62, -312 116" stroke="#1971c2" stroke-width="2" fill="none"/></g></g><mask/><g transform="translate(206.8 820) rotate(0 75.20000000000002 10)"><text x="75.2" y="0" font-family="Virgil, Segoe UI Emoji" font-size="14px" fill="#1e1e1e" text-anchor="middle" style="white-space: pre;" direction="ltr" dominant-baseline="text-before-edge">encrypt + upload</text></g><g stroke-linecap="round"><g transform="translate(394 774) rotate(0 8 58)"><path d="M0 0 C0 14.43, 0 28.87, 0 58 M0 0 C0 19.63, 0 39.27, 0 58 M0 58 C4.16 58, 8.33 58, 16 58 M0 58 C5.19 58, 10.37 58, 16 58 M16 58 C16 78.01, 16 98.01, 16 116 M16 58 C16 76.65, 16 95.31, 16 116" stroke="#1971c2" stroke-width="2" fill="none"/></g><g transform="translate(394 774) rotate(0 8 58)"><path d="M6.08 88.75 C8.55 95.53, 11.02 102.31, 16 116 M6.08 88.75 C9.44 97.97, 12.8 107.2, 16 116" stroke="#1971c2" stroke-width="2" fill="none"/></g><g transform="translate(394 774) rotate(0 8 58)"><path d="M25.92 88.75 C23.45 95.53, 20.98 102.31, 16 116 M25.92 88.75 C22.56 97.97, 19.2 107.2, 16 116" stroke="#1971c2" stroke-width="2" fill="none"/></g></g><mask/><g transform="translate(361 791) rotate(0 29 10)"><text x="29" y="0" font-family="Virgil, Segoe UI Emoji" font-size="14px" fill="#1e1e1e" text-anchor="middle" style="white-space: pre;" direction="ltr" dominant-baseline="text-before-edge">write</text></g><g stroke-linecap="round"><g transform="translate(426 774) rotate(0 132 58)"><path d="M0 0 C0 18.08, 0 36.15, 0 58 M0 0 C0 15.13, 0 30.26, 0 58 M0 58 C93.78 58, 187.56 58, 264 58 M0 58 C82.37 58, 164.74 58, 264 58 M264 58 C264 78.12, 264 98.24, 264 116 M264 58 C264 76.33, 264 94.67, 264 116" stroke="#1971c2" stroke-width="2" fill="none"/></g><g transform="translate(426 774) rotate(0 132 58)"><path d="M254.08 88.75 C257.17 97.24, 260.26 105.73, 264 116 M254.08 88.75 C256.67 95.86, 259.26 102.96, 264 116" stroke="#1971c2" stroke-width="2" fill="none"/></g><g transform="translate(426 774) rotate(0 132 58)"><path d="M273.92 88.75 C270.83 97.24, 267.74 105.73, 264 116 M273.92 88.75 C271.33 95.86, 268.74 102.96, 264 116" stroke="#1971c2" stroke-width="2" fill="none"/></g></g><mask/><g transform="translate(558 820) rotate(0 75.19999999999999 10)"><text x="75.2" y="0" font-family="Virgil, Segoe UI Emoji" font-size="14px" fill="#1e1e1e" text-anchor="middle" style="white-space: pre;" direction="ltr" dominant-baseline="text-before-edge">puppeteer render</text></g><g stroke-opacity="0.6" fill-opacity="0.6" stroke-linecap="round" transform="translate(290 400) rotate(0 120 202)"><path d="M32 0 C94.46 0, 156.92 0, 208 0 M208 0 C229.33 0, 240 10.67, 240 32 M240 32 C240 113.31, 240 194.62, 240 372 M240 372 C240 393.33, 229.33 404, 208 404 M208 404 C163.89 404, 119.78 404, 32 404 M32 404 C10.67 404, 0 393.33, 0 372 M0 372 C0 241.32, 0 110.64, 0 32 M0 32 C0 10.67, 10.67 0, 32 0" stroke="#868e96" stroke-width="1.5" fill="none" stroke-dasharray="8 9"/></g><g stroke-opacity="0.6" fill-opacity="0.6" transform="translate(300 405) rotate(0 24.80000000000001 10)"><text x="0" y="0" font-family="Virgil, Segoe UI Emoji" font-size="14px" fill="#868e96" text-anchor="start" style="white-space: pre;" direction="ltr" dominant-baseline="text-before-edge">Core</text></g><g stroke-opacity="0.6" fill-opacity="0.6" stroke-linecap="round" transform="translate(10 840) rotate(0 400 92)"><path d="M32 0 C195.32 0, 358.64 0, 768 0 M768 0 C789.33 0, 800 10.67, 800 32 M800 32 C800 76.63, 800 121.26, 800 152 M800 152 C800 173.33, 789.33 184, 768 184 M768 184 C574.91 184, 381.82 184, 32 184 M32 184 C10.67 184, 0 173.33, 0 152 M0 152 C0 118.95, 0 85.91, 0 32 M0 32 C0 10.67, 10.67 0, 32 0" stroke="#868e96" stroke-width="1.5" fill="none" stroke-dasharray="8 9"/></g><g stroke-opacity="0.6" fill-opacity="0.6" transform="translate(20 845) rotate(0 37.400000000000006 10)"><text x="0" y="0" font-family="Virgil, Segoe UI Emoji" font-size="14px" fill="#868e96" text-anchor="start" style="white-space: pre;" direction="ltr" dominant-baseline="text-before-edge">Outputs</text></g></svg>