<svg version="1.1" xmlns="http://www.w3.org/2000/svg" viewBox="0 0 820 1034" width="820" height="1034">
  <!-- svg-source:excalidraw -->
  
  <defs>
    <style class="style-fonts">
      @font-face {
        font-family: "Virgil";
        src: url("https://unpkg.com/@excalidraw/excalidraw@undefined/dist/excalidraw-assets/Virgil.woff2");
      }
      @font-face {
        font-family: "Cascadia";
        src: url("https://unpkg.com/@excalidraw/excalidraw@undefined/dist/excalidraw-assets/Cascadia.woff2");
      }
      @font-face {
        font-family: "Assistant";
        src: url("https://unpkg.com/@excalidraw/excalidraw@undefined/dist/excalidraw-assets/Assistant-Regular.woff2");
      }
    </style>
    
  </defs>
  <rect x="0" y="0" width="820" height="1034" fill="#ffffff"/><g stroke-linecap="round" transform="translate(320 10) rotate(0 90 52)"><path d="M55.72 4.43 C66.66 0.94, 82.22 0.43, 95.04 0.63 C107.86 0.84, 121.22 2.16, 132.64 5.64 C144.07 9.13, 155.97 15.32, 163.58 21.54 C171.2 27.76, 176.12 35.41, 178.31 42.94 C180.51 50.48, 180.18 59.56, 176.76 66.76 C173.33 73.96, 166.57 80.52, 157.78 86.14 C148.99 91.76, 135.99 97.6, 124.01 100.48 C112.04 103.36, 98.69 103.75, 85.93 103.4 C73.18 103.04, 58.9 101.92, 47.48 98.34 C36.06 94.75, 25.23 88.17, 17.41 81.88 C9.6 75.59, 2.88 67.98, 0.61 60.6 C-1.65 53.23, 0.27 44.91, 3.83 37.62 C7.38 30.33, 13.03 22.68, 21.92 16.86 C30.82 11.05, 50.66 5.02, 57.19 2.73 C63.72 0.44, 60.6 2.08, 61.1 3.11 M115.59 2.45 C127.82 3.86, 140.86 9.84, 150.63 14.85 C160.4 19.85, 169.11 25.61, 174.2 32.5 C179.28 39.39, 182.25 48.69, 181.12 56.18 C179.99 63.67, 174.07 70.84, 167.41 77.44 C160.75 84.04, 151.93 91.54, 141.15 95.78 C130.38 100.01, 115.69 101.74, 102.77 102.85 C89.86 103.97, 76.06 104.41, 63.65 102.47 C51.25 100.53, 37.84 96.34, 28.35 91.21 C18.87 86.08, 11.58 78.99, 6.74 71.7 C1.9 64.41, -1.72 55, -0.68 47.46 C0.37 39.93, 6.46 32.79, 13.01 26.49 C19.55 20.19, 27.94 14.04, 38.58 9.65 C49.21 5.26, 63.7 1.57, 76.81 0.16 C89.93 -1.26, 110.89 0.63, 117.25 1.17 C123.61 1.71, 115.61 2.4, 114.96 3.38" stroke="none" stroke-width="0" fill="#e599f7"/><path d="M87.43 -0.89 C99.83 -1.85, 116.46 2.26, 128.4 5.42 C140.34 8.58, 151.02 12.25, 159.07 18.07 C167.13 23.88, 173.6 33.04, 176.73 40.3 C179.86 47.57, 180.37 54.39, 177.87 61.66 C175.37 68.92, 169.51 77.66, 161.75 83.89 C153.98 90.11, 143.03 95.78, 131.3 99.01 C119.58 102.24, 104.53 103.3, 91.38 103.25 C78.23 103.21, 64.01 101.81, 52.38 98.74 C40.75 95.68, 29.9 90.46, 21.61 84.87 C13.32 79.29, 5.75 72.35, 2.63 65.23 C-0.49 58.1, 0.35 49.51, 2.89 42.14 C5.43 34.78, 10.03 27.3, 17.87 21.06 C25.71 14.82, 37.18 8.3, 49.95 4.7 C62.72 1.1, 86.04 -0.15, 94.52 -0.55 C103 -0.96, 100.77 1.32, 100.83 2.28 M84.55 1.31 C96.94 -0.22, 112.89 0.13, 124.9 2.66 C136.91 5.18, 147.85 10.68, 156.6 16.45 C165.35 22.23, 173.75 30.03, 177.39 37.31 C181.02 44.58, 181.04 52.64, 178.42 60.12 C175.81 67.6, 169.3 76.14, 161.7 82.21 C154.1 88.27, 144.27 93.09, 132.84 96.52 C121.41 99.94, 106.09 102.13, 93.13 102.77 C80.16 103.42, 66.99 103.02, 55.05 100.39 C43.11 97.77, 30.02 92.81, 21.46 87.04 C12.9 81.27, 7.1 73.15, 3.7 65.78 C0.3 58.42, -1.11 50.12, 1.05 42.85 C3.2 35.59, 8.96 28.36, 16.63 22.19 C24.29 16.02, 35.7 9.46, 47.04 5.83 C58.38 2.19, 77.98 1.4, 84.67 0.38 C91.36 -0.64, 87.13 -1.36, 87.18 -0.3" stroke="#9c36b5" stroke-width="2" fill="none"/></g><g transform="translate(330 52) rotate(0 80 10)"><text x="80" y="0" font-family="Virgil, Segoe UI Emoji" font-size="16px" fill="#9c36b5" text-anchor="middle" style="white-space: pre;" direction="ltr" dominant-baseline="text-before-edge">LLM</text><text x="80" y="20" font-family="Virgil, Segoe UI Emoji" font-size="16px" fill="#9c36b5" text-anchor="middle" style="white-space: pre;" direction="ltr" dominant-baseline="text-before-edge">(Claude, etc.)</text></g><g stroke-linecap="round" transform="translate(320 230) rotate(0 90 52)"><path d="M26 0 C57.96 4.48, 97.32 3.1, 154 0 C167.94 -0.36, 179.08 6.02, 180 26 C176.86 37.55, 179.48 51.92, 180 78 C176.99 95.9, 171.6 103.35, 154 104 C111.13 105.77, 76.21 102.34, 26 104 C11.54 101.18, -0.63 95.95, 0 78 C2.97 59.32, 4.01 44.31, 0 26 C2 11.92, 6.38 -1.88, 26 0" stroke="none" stroke-width="0" fill="#ffa8a8"/><path d="M26 0 C55.05 0.7, 81.25 0.92, 154 0 M26 0 C52.92 0.17, 80.24 -0.32, 154 0 M154 0 C172.43 1.67, 179.49 7.19, 180 26 M154 0 C170.47 -2.18, 178.44 8.4, 180 26 M180 26 C180.33 46.45, 181.28 63.26, 180 78 M180 26 C181.02 45.54, 179.69 67.39, 180 78 M180 78 C179.41 93.72, 171.63 102.97, 154 104 M180 78 C179.61 96.75, 170.34 104.48, 154 104 M154 104 C125.99 103.7, 95.68 104.35, 26 104 M154 104 C126.73 103.87, 98.7 103.56, 26 104 M26 104 C9.72 105.97, -0.08 97.09, 0 78 M26 104 C8.21 103.31, -1.45 94.56, 0 78 M0 78 C-1.23 60.31, -0.27 40.38, 0 26 M0 78 C0.39 63.59, 0.76 50.39, 0 26 M0 26 C0.78 10.51, 9.79 -0.18, 26 0 M0 26 C-1.89 10.35, 8.48 -0.33, 26 0" stroke="#c92a2a" stroke-width="2" fill="none"/></g><g transform="translate(330 272) rotate(0 80 10)"><text x="80" y="0" font-family="Virgil, Segoe UI Emoji" font-size="16px" fill="#c92a2a" text-anchor="middle" style="white-space: pre;" direction="ltr" dominant-baseline="text-before-edge">MCP Server</text><text x="80" y="20" font-family="Virgil, Segoe UI Emoji" font-size="16px" fill="#c92a2a" text-anchor="middle" style="white-space: pre;" direction="ltr" dominant-baseline="text-before-edge">(index.ts)</text></g><g stroke-linecap="round" transform="translate(320 450) rotate(0 90 52)"><path d="M26 0 C61.37 -5.56, 99.61 1.01, 154 0 C167.87 -0.22, 177.3 6.51, 180 26 C177.42 46.11, 182.48 64.2, 180 78 C177.53 96.42, 169.34 107.02, 154 104 C123.77 101.61, 91.59 100.39, 26 104 C6.09 106.2, -3.14 93.08, 0 78 C0.75 56.36, 3.07 37.65, 0 26 C3.25 5.92, 8.76 -2.31, 26 0" stroke="none" stroke-width="0" fill="#d0bfff"/><path d="M26 0 C51.52 -1.77, 79.78 -1.81, 154 0 M26 0 C63.25 0.18, 101.12 -1.07, 154 0 M154 0 C170.38 0.25, 180.53 7.5, 180 26 M154 0 C171.98 -1.88, 178.58 10.5, 180 26 M180 26 C179.4 38.45, 181.48 54.26, 180 78 M180 26 C180 39.39, 180.57 52.54, 180 78 M180 78 C179.08 97.08, 171.89 103.3, 154 104 M180 78 C181.3 95.92, 173.24 105.31, 154 104 M154 104 C121.1 101.82, 83.74 102.8, 26 104 M154 104 C120.33 103.17, 87.5 103.91, 26 104 M26 104 C7.51 104.83, 0.82 96.3, 0 78 M26 104 C7.27 105.39, 0.16 93.09, 0 78 M0 78 C1.39 65.19, -0.48 54.95, 0 26 M0 78 C-0.67 66.29, -0.02 54.7, 0 26 M0 26 C-1.06 7.05, 8.48 0.87, 26 0 M0 26 C-1.95 8.96, 8.34 -0.67, 26 0" stroke="#7048e8" stroke-width="2" fill="none"/></g><g transform="translate(330 492) rotate(0 80 10)"><text x="80" y="0" font-family="Virgil, Segoe UI Emoji" font-size="16px" fill="#7048e8" text-anchor="middle" style="white-space: pre;" direction="ltr" dominant-baseline="text-before-edge">Executor</text><text x="80" y="20" font-family="Virgil, Segoe UI Emoji" font-size="16px" fill="#7048e8" text-anchor="middle" style="white-space: pre;" direction="ltr" dominant-baseline="text-before-edge">(new Function)</text></g><g stroke-linecap="round" transform="translate(320 670) rotate(0 90 52)"><path d="M26 0 C57.19 -3.23, 82.14 -3.67, 154 0 C168.04 2.55, 177.67 6.54, 180 26 C180.04 41.04, 181.91 59.62, 180 78 C181.34 93.05, 171.03 101.07, 154 104 C125.51 105.65, 94.93 103.32, 26 104 C6.55 101.58, 0.76 92.45, 0 78 C-2.42 60.13, 2.66 34.41, 0 26 C-3.08 11.24, 5.77 -3.17, 26 0" stroke="none" stroke-width="0" fill="#d0bfff"/><path d="M26 0 C52.22 2.28, 76.82 -0.79, 154 0 M26 0 C56.13 -1.54, 88.2 0.21, 154 0 M154 0 C170.23 1.46, 180.26 9.75, 180 26 M154 0 C173.26 -1.56, 179.21 10.65, 180 26 M180 26 C181.74 44, 179.54 65.09, 180 78 M180 26 C181.19 43.61, 179.97 59.55, 180 78 M180 78 C178.61 96.25, 172.53 104.94, 154 104 M180 78 C178.83 94.54, 170.15 105.9, 154 104 M154 104 C109.35 102.77, 61.31 102.6, 26 104 M154 104 C128.1 103.7, 102.18 104.79, 26 104 M26 104 C10.58 104.7, -1.42 95.34, 0 78 M26 104 C9.56 106.1, -0.08 96.79, 0 78 M0 78 C1.97 63.67, -0.02 52.18, 0 26 M0 78 C-0.3 58.15, -0.66 40.43, 0 26 M0 26 C0.01 7.48, 7.43 0.77, 26 0 M0 26 C-0.27 9.8, 6.85 1.74, 26 0" stroke="#7048e8" stroke-width="2" fill="none"/></g><g transform="translate(330 712) rotate(0 80 10)"><text x="80" y="0" font-family="Virgil, Segoe UI Emoji" font-size="16px" fill="#7048e8" text-anchor="middle" style="white-space: pre;" direction="ltr" dominant-baseline="text-before-edge">Diagram SDK</text><text x="80" y="20" font-family="Virgil, Segoe UI Emoji" font-size="16px" fill="#7048e8" text-anchor="middle" style="white-space: pre;" direction="ltr" dominant-baseline="text-before-edge">(sdk.ts)</text></g><g stroke-linecap="round" transform="translate(40 670) rotate(0 90 52)"><path d="M26 0 C71.77 -2.65, 123.6 1.68, 154 0 C174.91 -2.24, 181.68 8.46, 180 26 C181.57 38.28, 179.41 57.85, 180 78 C181.55 95.46, 172.79 103.43, 154 104 C116.42 101.89, 71.95 103.94, 26 104 C11.49 105.41, 2.73 96.73, 0 78 C0.45 60.28, 1.82 34.32, 0 26 C-0.46 7.59, 7.07 -1.8, 26 0" stroke="none" stroke-width="0" fill="#b2f2bb"/><path d="M26 0 C57.32 -1.99, 84.22 -0.64, 154 0 M26 0 C62.23 0.09, 100.6 -0.54, 154 0 M154 0 C172.71 -0.67, 180.55 9.81, 180 26 M154 0 C172.47 0.69, 179.81 6.92, 180 26 M180 26 C178.67 47.32, 178.41 68.35, 180 78 M180 26 C181.08 37.78, 179.54 47.59, 180 78 M180 78 C181.19 94.72, 172.97 103.47, 154 104 M180 78 C179.29 94.81, 172.85 101.82, 154 104 M154 104 C127.56 105.96, 102.17 104.41, 26 104 M154 104 C112.81 105.52, 71.26 105.4, 26 104 M26 104 C6.8 104.01, 0.87 94.06, 0 78 M26 104 C7.53 105.77, -1.64 96.75, 0 78 M0 78 C-0.55 58.3, -2.08 37.36, 0 26 M0 78 C-0.02 61.92, -0.01 45.88, 0 26 M0 26 C0.66 8.31, 9.87 -1.22, 26 0 M0 26 C0.56 7.18, 9.82 -0.97, 26 0" stroke="#2f9e44" stroke-width="2" fill="none"/></g><g transform="translate(50 712) rotate(0 80 10)"><text x="80" y="0" font-family="Virgil, Segoe UI Emoji" font-size="16px" fill="#2f9e44" text-anchor="middle" style="white-space: pre;" direction="ltr" dominant-baseline="text-before-edge">Graphviz WASM</text><text x="80" y="20" font-family="Virgil, Segoe UI Emoji" font-size="16px" fill="#2f9e44" text-anchor="middle" style="white-space: pre;" direction="ltr" dominant-baseline="text-before-edge">(layout)</text></g><g stroke-linecap="round" transform="translate(600 670) rotate(0 90 52)"><path d="M26 0 C54.67 -2.05, 81.56 -2.55, 154 0 C173.75 -2.65, 179.04 6.15, 180 26 C177.78 41.89, 179.88 58.36, 180 78 C178.11 97.69, 171.59 105.08, 154 104 C109.9 103.93, 63.32 100.58, 26 104 C6.33 103.89, 2.7 93.55, 0 78 C3.41 62.02, -0.8 45.18, 0 26 C-1.77 10.68, 10.07 -0.72, 26 0" stroke="none" stroke-width="0" fill="#ffec99"/><path d="M26 0 C72.77 1.57, 120.41 1.64, 154 0 M26 0 C56.51 -1.16, 86.9 0.74, 154 0 M154 0 C169.69 1.43, 180.09 10.6, 180 26 M154 0 C170.39 0.71, 181.87 6.78, 180 26 M180 26 C181.25 46.66, 178.96 67.36, 180 78 M180 26 C180.7 43.22, 180.05 62.38, 180 78 M180 78 C179.41 97.17, 170.25 105.58, 154 104 M180 78 C179.37 94.71, 173.35 105.85, 154 104 M154 104 C125.22 102.33, 91.7 104.11, 26 104 M154 104 C124.12 105.03, 91.62 104.41, 26 104 M26 104 C7.94 105.93, 0.12 96.56, 0 78 M26 104 C8.55 104.43, -2.18 93.9, 0 78 M0 78 C1.61 68.32, -0.53 56.51, 0 26 M0 78 C0.38 63.18, -0.62 50.31, 0 26 M0 26 C0.81 10.16, 7.95 -0.08, 26 0 M0 26 C0.99 10.57, 8.42 -0.77, 26 0" stroke="#f08c00" stroke-width="2" fill="none"/></g><g transform="translate(610 712) rotate(0 80 10)"><text x="80" y="0" font-family="Virgil, Segoe UI Emoji" font-size="16px" fill="#f08c00" text-anchor="middle" style="white-space: pre;" direction="ltr" dominant-baseline="text-before-edge">Zig WASM</text><text x="80" y="20" font-family="Virgil, Segoe UI Emoji" font-size="16px" fill="#f08c00" text-anchor="middle" style="white-space: pre;" direction="ltr" dominant-baseline="text-before-edge">(validate)</text></g><g stroke-linecap="round" transform="translate(40 890) rotate(0 90 52)"><path d="M26 0 C54.4 -0.46, 78.12 1.59, 154 0 C170.18 -3.2, 181.64 5.32, 180 26 C178.04 42.53, 179.84 63.7, 180 78 C178.95 93.99, 172.18 104.29, 154 104 C120.13 103.84, 93.21 102.78, 26 104 C9.33 107.04, -2.72 93.91, 0 78 C-0.47 66.3, 3.46 55.58, 0 26 C-0.54 5.09, 11.34 -0.18, 26 0" stroke="none" stroke-width="0" fill="#a5d8ff"/><path d="M26 0 C53.94 -0.62, 80.17 1.24, 154 0 M26 0 C74.32 0.28, 124.51 1.04, 154 0 M154 0 C169.46 -1.18, 178.71 10.65, 180 26 M154 0 C173.26 0.71, 179.73 7.68, 180 26 M180 26 C181.85 36.05, 181.78 49.3, 180 78 M180 26 C179.42 43.13, 180.9 60.57, 180 78 M180 78 C178.23 96.12, 172.58 103.65, 154 104 M180 78 C178.43 93.98, 169.67 105.96, 154 104 M154 104 C114.82 105.09, 76.31 102.94, 26 104 M154 104 C125.9 105.97, 97.24 104.89, 26 104 M26 104 C8.45 103.08, 0.48 94.6, 0 78 M26 104 C6.56 102.56, -0.2 93.68, 0 78 M0 78 C-1.18 58.92, -1.34 39.41, 0 26 M0 78 C0.07 59.23, 0.18 39.16, 0 26 M0 26 C0.73 8.46, 9.73 -0.85, 26 0 M0 26 C0.89 8.45, 9.84 -1.03, 26 0" stroke="#1971c2" stroke-width="2" fill="none"/></g><g transform="translate(50 932) rotate(0 80 10)"><text x="80" y="0" font-family="Virgil, Segoe UI Emoji" font-size="16px" fill="#1971c2" text-anchor="middle" style="white-space: pre;" direction="ltr" dominant-baseline="text-before-edge">excalidraw.com</text><text x="80" y="20" font-family="Virgil, Segoe UI Emoji" font-size="16px" fill="#1971c2" text-anchor="middle" style="white-space: pre;" direction="ltr" dominant-baseline="text-before-edge">URL</text></g><g stroke-linecap="round" transform="translate(320 890) rotate(0 90 52)"><path d="M26 0 C73.41 -0.24, 125.64 1.68, 154 0 C170.31 2.07, 181.71 6, 180 26 C181.72 34.67, 180.36 47.98, 180 78 C183.44 97.87, 173.17 105.78, 154 104 C122.36 107.41, 90.94 105.1, 26 104 C8.72 101.21, -2.36 96.97, 0 78 C0.44 64.24, 2.21 54.03, 0 26 C-2.09 8.86, 10.7 2.74, 26 0" stroke="none" stroke-width="0" fill="#a5d8ff"/><path d="M26 0 C69.16 -0.56, 108.77 1.98, 154 0 M26 0 C66.81 0.37, 106.78 -0.83, 154 0 M154 0 C172.95 1.82, 179.95 9.18, 180 26 M154 0 C169.05 1.75, 178.24 9.47, 180 26 M180 26 C181.61 40.59, 180.33 50.04, 180 78 M180 26 C178.87 37.88, 180.63 51.53, 180 78 M180 78 C180.7 94.47, 172.49 103.73, 154 104 M180 78 C179.49 95.24, 170.83 102.34, 154 104 M154 104 C116.22 101.5, 79.93 104.48, 26 104 M154 104 C106.72 104.66, 60.23 104.34, 26 104 M26 104 C6.79 102.8, 0.1 95.72, 0 78 M26 104 C10.09 103.83, -2.06 94.23, 0 78 M0 78 C0.75 65.51, 0.17 52.23, 0 26 M0 78 C-0.83 60.87, 0.22 41.38, 0 26 M0 26 C0.33 10.5, 8.91 -1.5, 26 0 M0 26 C-0.53 9.05, 8.52 0.19, 26 0" stroke="#1971c2" stroke-width="2" fill="none"/></g><g transform="translate(330 932) rotate(0 80 10)"><text x="80" y="0" font-family="Virgil, Segoe UI Emoji" font-size="16px" fill="#1971c2" text-anchor="middle" style="white-space: pre;" direction="ltr" dominant-baseline="text-before-edge">.excalidraw +</text><text x="80" y="20" font-family="Virgil, Segoe UI Emoji" font-size="16px" fill="#1971c2" text-anchor="middle" style="white-space: pre;" direction="ltr" dominant-baseline="text-before-edge">.drawmode.ts</text></g><g stroke-linecap="round" transform="translate(600 890) rotate(0 90 52)"><path d="M26 0 C73.82 1, 125.19 1.29, 154 0 C168.55 -0.99, 177.66 7.85, 180 26 C182.87 45.67, 177.35 59.45, 180 78 C179.08 91.96, 174.77 102.97, 154 104 C101.03 100.72, 55.69 104.97, 26 104 C8.72 103.72, 0.43 96.62, 0 78 C-1.66 69.01, -2.48 52.91, 0 26 C0.5 6.34, 11.94 -2.82, 26 0" stroke="none" stroke-width="0" fill="#a5d8ff"/><path d="M26 0 C58.08 1.45, 93.57 0.68, 154 0 M26 0 C57.01 1.5, 88.01 0.27, 154 0 M154 0 C173.05 -0.25, 178.56 8, 180 26 M154 0 C173.02 0.3, 179.12 7.73, 180 26 M180 26 C180.84 45.21, 181.34 61.16, 180 78 M180 26 C179.25 39.49, 180.06 53.35, 180 78 M180 78 C178.73 97.08, 170.65 104.66, 154 104 M180 78 C179.59 94.34, 171.76 105.33, 154 104 M154 104 C121.38 104.28, 92.44 102.96, 26 104 M154 104 C117.37 104.75, 80.46 104.58, 26 104 M26 104 C8.58 105.81, 1.93 93.9, 0 78 M26 104 C6.57 105.59, 0.01 96.13, 0 78 M0 78 C0.18 61.87, -1.21 46.32, 0 26 M0 78 C-0.32 64.01, 0.81 50.39, 0 26 M0 26 C1.52 7.14, 10.12 -1.47, 26 0 M0 26 C-1.75 10.7, 10.49 0.28, 26 0" stroke="#1971c2" stroke-width="2" fill="none"/></g><g transform="translate(610 932) rotate(0 80 10)"><text x="80" y="0" font-family="Virgil, Segoe UI Emoji" font-size="16px" fill="#1971c2" text-anchor="middle" style="white-space: pre;" direction="ltr" dominant-baseline="text-before-edge">PNG / SVG</text><text x="80" y="20" font-family="Virgil, Segoe UI Emoji" font-size="16px" fill="#1971c2" text-anchor="middle" style="white-space: pre;" direction="ltr" dominant-baseline="text-before-edge">file</text></g><g stroke-linecap="round"><g transform="translate(410 114) rotate(0 0 58)"><path d="M0 0 C0 37.41, 0 74.82, 0 116 M0 0 C0 30.45, 0 60.89, 0 116" stroke="#c92a2a" stroke-width="2" fill="none"/></g><g transform="translate(410 114) rotate(0 0 58)"><path d="M-10.26 87.81 C-6.95 96.9, -3.64 105.99, 0 116 M-10.26 87.81 C-7.57 95.21, -4.87 102.61, 0 116" stroke="#c92a2a" stroke-width="2" fill="none"/></g><g transform="translate(410 114) rotate(0 0 58)"><path d="M10.26 87.81 C6.95 96.9, 3.64 105.99, 0 116 M10.26 87.81 C7.57 95.21, 4.87 102.61, 0 116" stroke="#c92a2a" stroke-width="2" fill="none"/></g></g><mask/><g transform="translate(410 160) rotate(0 45.80000000000001 10)"><text x="45.800000000000004" y="0" font-family="Virgil, Segoe UI Emoji" font-size="14px" fill="#1e1e1e" text-anchor="middle" style="white-space: pre;" direction="ltr" dominant-baseline="text-before-edge">draw tool</text></g><g stroke-linecap="round"><g transform="translate(410 334) rotate(0 0 58)"><path d="M0 0 C0 37.19, 0 74.38, 0 116 M0 0 C0 32.81, 0 65.62, 0 116" stroke="#7048e8" stroke-width="2" fill="none"/></g><g transform="translate(410 334) rotate(0 0 58)"><path d="M-10.26 87.81 C-6.97 96.85, -3.68 105.89, 0 116 M-10.26 87.81 C-7.36 95.78, -4.46 103.76, 0 116" stroke="#7048e8" stroke-width="2" fill="none"/></g><g transform="translate(410 334) rotate(0 0 58)"><path d="M10.26 87.81 C6.97 96.85, 3.68 105.89, 0 116 M10.26 87.81 C7.36 95.78, 4.46 103.76, 0 116" stroke="#7048e8" stroke-width="2" fill="none"/></g></g><mask/><g transform="translate(410 380) rotate(0 24.80000000000001 10)"><text x="24.8" y="0" font-family="Virgil, Segoe UI Emoji" font-size="14px" fill="#1e1e1e" text-anchor="middle" style="white-space: pre;" direction="ltr" dominant-baseline="text-before-edge">code</text></g><g stroke-linecap="round"><g transform="translate(410 554) rotate(0 0 58)"><path d="M0 0 C0 38.35, 0 76.7, 0 116 M0 0 C0 39.32, 0 78.65, 0 116" stroke="#7048e8" stroke-width="2" fill="none"/></g><g transform="translate(410 554) rotate(0 0 58)"><path d="M-10.26 87.81 C-6.87 97.13, -3.48 106.45, 0 116 M-10.26 87.81 C-6.78 97.37, -3.3 106.92, 0 116" stroke="#7048e8" stroke-width="2" fill="none"/></g><g transform="translate(410 554) rotate(0 0 58)"><path d="M10.26 87.81 C6.87 97.13, 3.48 106.45, 0 116 M10.26 87.81 C6.78 97.37, 3.3 106.92, 0 116" stroke="#7048e8" stroke-width="2" fill="none"/></g></g><mask/><g transform="translate(410 600) rotate(0 54.19999999999999 10)"><text x="54.2" y="0" font-family="Virgil, Segoe UI Emoji" font-size="14px" fill="#1e1e1e" text-anchor="middle" style="white-space: pre;" direction="ltr" dominant-baseline="text-before-edge">Diagram API</text></g><g stroke-linecap="round"><g transform="translate(410 774) rotate(0 -140 58)"><path d="M0 0 C0 22.31, 0 44.62, 0 58 M0 0 C0 20.95, 0 41.89, 0 58 M0 58 C-91.38 58, -182.76 58, -280 58 M0 58 C-69.06 58, -138.12 58, -280 58 M-280 58 C-280 70.49, -280 82.99, -280 116 M-280 58 C-280 72.09, -280 86.18, -280 116" stroke="#1971c2" stroke-width="2" fill="none"/></g><g transform="translate(410 774) rotate(0 -140 58)"><path d="M-289.92 88.75 C-286.1 99.23, -282.29 109.71, -280 116 M-289.92 88.75 C-286.34 98.59, -282.75 108.43, -280 116" stroke="#1971c2" stroke-width="2" fill="none"/></g><g transform="translate(410 774) rotate(0 -140 58)"><path d="M-270.08 88.75 C-273.9 99.23, -277.71 109.71, -280 116 M-270.08 88.75 C-273.66 98.59, -277.25 108.43, -280 116" stroke="#1971c2" stroke-width="2" fill="none"/></g></g><mask/><g transform="translate(270 820) rotate(0 33.19999999999999 10)"><text x="33.2" y="0" font-family="Virgil, Segoe UI Emoji" font-size="14px" fill="#1e1e1e" text-anchor="middle" style="white-space: pre;" direction="ltr" dominant-baseline="text-before-edge">upload</text></g><g stroke-linecap="round"><g transform="translate(378 774) rotate(0 16 58)"><path d="M0 0 C0 14.92, 0 29.84, 0 58 M0 0 C0 22.26, 0 44.51, 0 58 M0 58 C8.57 58, 17.14 58, 32 58 M0 58 C11.66 58, 23.31 58, 32 58 M32 58 C32 79.73, 32 101.46, 32 116 M32 58 C32 73.93, 32 89.86, 32 116" stroke="#1971c2" stroke-width="2" fill="none"/></g><g transform="translate(378 774) rotate(0 16 58)"><path d="M22.08 88.75 C24.63 95.76, 27.18 102.77, 32 116 M22.08 88.75 C25.89 99.21, 29.69 109.66, 32 116" stroke="#1971c2" stroke-width="2" fill="none"/></g><g transform="translate(378 774) rotate(0 16 58)"><path d="M41.92 88.75 C39.37 95.76, 36.82 102.77, 32 116 M41.92 88.75 C38.11 99.21, 34.31 109.66, 32 116" stroke="#1971c2" stroke-width="2" fill="none"/></g></g><mask/><g transform="translate(314 791) rotate(0 29 10)"><text x="29" y="0" font-family="Virgil, Segoe UI Emoji" font-size="14px" fill="#1e1e1e" text-anchor="middle" style="white-space: pre;" direction="ltr" dominant-baseline="text-before-edge">write</text></g><g stroke-linecap="round"><g transform="translate(442 774) rotate(0 124 58)"><path d="M0 0 C0 15.22, 0 30.45, 0 58 M0 0 C0 15.3, 0 30.6, 0 58 M0 58 C62.19 58, 124.37 58, 248 58 M0 58 C71.33 58, 142.66 58, 248 58 M248 58 C248 73.38, 248 88.76, 248 116 M248 58 C248 76.73, 248 95.46, 248 116" stroke="#1971c2" stroke-width="2" fill="none"/></g><g transform="translate(442 774) rotate(0 124 58)"><path d="M238.08 88.75 C240.68 95.9, 243.29 103.05, 248 116 M238.08 88.75 C240.7 95.94, 243.31 103.13, 248 116" stroke="#1971c2" stroke-width="2" fill="none"/></g><g transform="translate(442 774) rotate(0 124 58)"><path d="M257.92 88.75 C255.32 95.9, 252.71 103.05, 248 116 M257.92 88.75 C255.3 95.94, 252.69 103.13, 248 116" stroke="#1971c2" stroke-width="2" fill="none"/></g></g><mask/><g transform="translate(566 820) rotate(0 33.19999999999999 10)"><text x="33.2" y="0" font-family="Virgil, Segoe UI Emoji" font-size="14px" fill="#1e1e1e" text-anchor="middle" style="white-space: pre;" direction="ltr" dominant-baseline="text-before-edge">render</text></g><g stroke-opacity="0.6" fill-opacity="0.6" stroke-linecap="round" transform="translate(10 400) rotate(0 400 202)"><path d="M32 0 C304.38 0, 576.76 0, 768 0 M768 0 C789.33 0, 800 10.67, 800 32 M800 32 C800 104.1, 800 176.19, 800 372 M800 372 C800 393.33, 789.33 404, 768 404 M768 404 C531.89 404, 295.78 404, 32 404 M32 404 C10.67 404, 0 393.33, 0 372 M0 372 C0 256.9, 0 141.79, 0 32 M0 32 C0 10.67, 10.67 0, 32 0" stroke="#868e96" stroke-width="1.5" fill="none" stroke-dasharray="8 9"/></g><g stroke-opacity="0.6" fill-opacity="0.6" transform="translate(20 405) rotate(0 24.799999999999997 10)"><text x="0" y="0" font-family="Virgil, Segoe UI Emoji" font-size="14px" fill="#868e96" text-anchor="start" style="white-space: pre;" direction="ltr" dominant-baseline="text-before-edge">Core</text></g><g stroke-opacity="0.6" fill-opacity="0.6" stroke-linecap="round" transform="translate(10 840) rotate(0 400 92)"><path d="M32 0 C230.87 0, 429.75 0, 768 0 M768 0 C789.33 0, 800 10.67, 800 32 M800 32 C800 70.77, 800 109.54, 800 152 M800 152 C800 173.33, 789.33 184, 768 184 M768 184 C563.25 184, 358.5 184, 32 184 M32 184 C10.67 184, 0 173.33, 0 152 M0 152 C0 122.86, 0 93.71, 0 32 M0 32 C0 10.67, 10.67 0, 32 0" stroke="#868e96" stroke-width="1.5" fill="none" stroke-dasharray="8 9"/></g><g stroke-opacity="0.6" fill-opacity="0.6" transform="translate(20 845) rotate(0 37.400000000000006 10)"><text x="0" y="0" font-family="Virgil, Segoe UI Emoji" font-size="14px" fill="#868e96" text-anchor="start" style="white-space: pre;" direction="ltr" dominant-baseline="text-before-edge">Outputs</text></g></svg>