<svg version="1.1" xmlns="http://www.w3.org/2000/svg" viewBox="0 0 1277 1092" width="1277" height="1092">
  <!-- svg-source:excalidraw -->
  
  <defs>
    <style class="style-fonts">
      @font-face {
        font-family: "Virgil";
        src: url("https://unpkg.com/@excalidraw/excalidraw@undefined/dist/excalidraw-assets/Virgil.woff2");
      }
      @font-face {
        font-family: "Cascadia";
        src: url("https://unpkg.com/@excalidraw/excalidraw@undefined/dist/excalidraw-assets/Cascadia.woff2");
      }
      @font-face {
        font-family: "Assistant";
        src: url("https://unpkg.com/@excalidraw/excalidraw@undefined/dist/excalidraw-assets/Assistant-Regular.woff2");
      }
    </style>
    
  </defs>
  <rect x="0" y="0" width="1277" height="1092" fill="#ffffff"/><g stroke-linecap="round" transform="translate(20 10) rotate(0 100 52)"><path d="M117.07 0.81 C129.87 1.04, 143.4 4.17, 154.59 7.91 C165.79 11.65, 176.86 17.06, 184.24 23.25 C191.63 29.44, 196.84 38.11, 198.88 45.06 C200.92 52, 200.23 58.15, 196.51 64.9 C192.79 71.65, 185.04 79.91, 176.55 85.55 C168.05 91.19, 157.56 95.83, 145.54 98.74 C133.51 101.65, 118.11 102.59, 104.41 103 C90.71 103.41, 76.01 103.71, 63.31 101.19 C50.62 98.67, 37.86 93.01, 28.23 87.89 C18.6 82.76, 10.12 76.78, 5.56 70.44 C1 64.09, -0.21 57.01, 0.88 49.82 C1.98 42.62, 6.08 33.77, 12.13 27.27 C18.18 20.77, 26.86 15.05, 37.18 10.83 C47.49 6.6, 58.56 3.41, 74.01 1.91 C89.45 0.41, 118.17 0.93, 129.87 1.84 C141.56 2.75, 144.37 6.59, 144.18 7.38 M126.44 2.17 C138.97 3.05, 152.19 7.46, 162.46 11.85 C172.74 16.24, 182.04 22.06, 188.11 28.51 C194.17 34.97, 197.87 43.49, 198.85 50.59 C199.84 57.7, 198.86 64.54, 194.03 71.15 C189.2 77.75, 179.53 85.38, 169.89 90.21 C160.26 95.04, 148.96 97.86, 136.2 100.14 C123.44 102.42, 107.04 104.4, 93.33 103.88 C79.63 103.36, 65.75 100.07, 53.98 97.03 C42.22 93.99, 31.3 91.02, 22.76 85.65 C14.21 80.28, 6.14 71.61, 2.72 64.82 C-0.7 58.03, 0.16 51.76, 2.24 44.93 C4.32 38.1, 7.79 30.18, 15.21 23.85 C22.63 17.52, 35.04 10.89, 46.75 6.97 C58.46 3.05, 72.07 1.35, 85.47 0.34 C98.86 -0.67, 120.52 0.63, 127.13 0.93 C133.74 1.23, 125.61 1.04, 125.14 2.15" stroke="none" stroke-width="0" fill="#e599f7"/><path d="M136.55 3.35 C149.15 4.95, 161.14 10.49, 170.59 15.62 C180.03 20.75, 188.4 27.43, 193.22 34.14 C198.04 40.84, 200.13 48.9, 199.49 55.86 C198.85 62.82, 195.66 69.65, 189.37 75.91 C183.08 82.17, 172.33 88.85, 161.76 93.4 C151.19 97.96, 138.8 101.51, 125.96 103.25 C113.13 104.99, 98.24 105.3, 84.74 103.86 C71.24 102.41, 56.38 98.4, 44.97 94.59 C33.56 90.78, 23.49 86.8, 16.26 81 C9.03 75.2, 3.59 67.03, 1.58 59.78 C-0.43 52.53, 0.62 44.26, 4.2 37.49 C7.78 30.71, 14.65 24.59, 23.06 19.13 C31.48 13.66, 42.61 7.92, 54.68 4.7 C66.75 1.47, 79.65 -0.7, 95.49 -0.21 C111.32 0.28, 138.9 5.54, 149.68 7.61 C160.45 9.69, 161.18 11.49, 160.13 12.24 M120.81 0.85 C134.05 1.28, 148.8 5.59, 159.7 10 C170.61 14.41, 179.58 21.17, 186.24 27.31 C192.9 33.46, 198.26 40, 199.68 46.88 C201.1 53.76, 199.23 62, 194.78 68.6 C190.33 75.21, 181.94 81.59, 172.97 86.51 C164.01 91.43, 153.14 95.08, 141 98.11 C128.85 101.14, 113.79 104.48, 100.08 104.7 C86.36 104.91, 70.85 102.17, 58.7 99.4 C46.55 96.64, 35.92 93.34, 27.16 88.1 C18.4 82.86, 10.76 74.68, 6.15 67.97 C1.55 61.25, -1.52 54.76, -0.47 47.81 C0.57 40.85, 5.52 32.75, 12.45 26.24 C19.37 19.74, 29.69 13, 41.05 8.77 C52.42 4.54, 67.1 2.13, 80.62 0.87 C94.15 -0.39, 115.62 0.96, 122.18 1.23 C128.75 1.5, 120.57 1.52, 120.01 2.47" stroke="#9c36b5" stroke-width="2" fill="none"/></g><g transform="translate(30 52) rotate(0 90 10)"><text x="90" y="0" font-family="Virgil, Segoe UI Emoji" font-size="16px" fill="#9c36b5" text-anchor="middle" style="white-space: pre;" direction="ltr" dominant-baseline="text-before-edge">LLM</text><text x="90" y="20" font-family="Virgil, Segoe UI Emoji" font-size="16px" fill="#9c36b5" text-anchor="middle" style="white-space: pre;" direction="ltr" dominant-baseline="text-before-edge">(Claude, etc.)</text></g><g stroke-linecap="round" transform="translate(20 200) rotate(0 100 52)"><path d="M26 0 C75.81 0.03, 127.04 0.22, 174 0 C191.76 -2.91, 197.83 9.74, 200 26 C201.91 42.52, 200.95 55.32, 200 78 C197.37 97.15, 193.27 105.27, 174 104 C123.82 102.12, 67.3 106.26, 26 104 C6.75 106.24, -0.63 96.04, 0 78 C-3.16 60.34, 2.07 46.38, 0 26 C-1.77 6.08, 8.31 1.87, 26 0" stroke="none" stroke-width="0" fill="#ffa8a8"/><path d="M26 0 C64.72 -1.69, 107.4 -1.55, 174 0 M26 0 C70.44 -0.96, 114.14 -1.16, 174 0 M174 0 C190.72 -1.04, 200.95 8.04, 200 26 M174 0 C192.11 1.14, 199.04 10.56, 200 26 M200 26 C201.37 43.72, 201.29 59.65, 200 78 M200 26 C199.92 43.29, 199.46 59.65, 200 78 M200 78 C198.4 95.58, 191.83 105.84, 174 104 M200 78 C201.93 95.79, 190.56 105.09, 174 104 M174 104 C115.04 106.68, 56.9 104.3, 26 104 M174 104 C119.43 104.47, 63.44 105.61, 26 104 M26 104 C8.49 104.62, -1.55 93.58, 0 78 M26 104 C8.01 105.05, -2.21 93.81, 0 78 M0 78 C-1.47 68.03, 1.86 56.86, 0 26 M0 78 C0.46 58.36, -0.5 38.52, 0 26 M0 26 C0.11 8.77, 8.96 1.81, 26 0 M0 26 C-0.6 7.41, 6.53 -2, 26 0" stroke="#c92a2a" stroke-width="2" fill="none"/></g><g transform="translate(30 242) rotate(0 90 10)"><text x="90" y="0" font-family="Virgil, Segoe UI Emoji" font-size="16px" fill="#c92a2a" text-anchor="middle" style="white-space: pre;" direction="ltr" dominant-baseline="text-before-edge">MCP Server</text><text x="90" y="20" font-family="Virgil, Segoe UI Emoji" font-size="16px" fill="#c92a2a" text-anchor="middle" style="white-space: pre;" direction="ltr" dominant-baseline="text-before-edge">(index.ts)</text></g><g stroke-linecap="round" transform="translate(30 390) rotate(0 90 52)"><path d="M26 0 C51.06 -2.33, 79.36 -0.23, 154 0 C168.04 3.48, 180.78 5.14, 180 26 C180.91 44.04, 180.49 56.19, 180 78 C182.71 93.15, 170.16 100.81, 154 104 C112.23 105.39, 65.5 103.65, 26 104 C5.18 103.45, 1.86 96.64, 0 78 C3.18 66.34, 1.2 50.75, 0 26 C-1.52 11.89, 7.66 3.34, 26 0" stroke="none" stroke-width="0" fill="#d0bfff"/><path d="M26 0 C55.98 0.24, 86.04 2.07, 154 0 M26 0 C74.15 1.64, 123.91 1.35, 154 0 M154 0 C172.09 1.23, 180.02 10.3, 180 26 M154 0 C169.63 -1.25, 178.21 9.25, 180 26 M180 26 C178.57 44.76, 180.17 63.14, 180 78 M180 26 C179.77 40.84, 179.99 55.17, 180 78 M180 78 C178.54 96.83, 173.13 104.1, 154 104 M180 78 C181.65 97.05, 171.04 103.58, 154 104 M154 104 C120.42 103.96, 91.08 102.73, 26 104 M154 104 C107.95 103.43, 62.32 103.22, 26 104 M26 104 C7.83 103.7, 0.28 95.85, 0 78 M26 104 C10.13 104.61, 0.9 95.3, 0 78 M0 78 C-0.35 65.39, 2.23 56.2, 0 26 M0 78 C0.2 60.6, -0.61 42.87, 0 26 M0 26 C-1.59 9.19, 7.68 1.38, 26 0 M0 26 C0.13 10.52, 9.78 -0.62, 26 0" stroke="#7048e8" stroke-width="2" fill="none"/></g><g transform="translate(40 432) rotate(0 80 10)"><text x="80" y="0" font-family="Virgil, Segoe UI Emoji" font-size="16px" fill="#7048e8" text-anchor="middle" style="white-space: pre;" direction="ltr" dominant-baseline="text-before-edge">Executor</text><text x="80" y="20" font-family="Virgil, Segoe UI Emoji" font-size="16px" fill="#7048e8" text-anchor="middle" style="white-space: pre;" direction="ltr" dominant-baseline="text-before-edge">(new Function)</text></g><g stroke-linecap="round" transform="translate(30 579) rotate(0 90 52)"><path d="M26 0 C51.51 -2.41, 82.25 -1.72, 154 0 C174.65 2.64, 179.11 5.83, 180 26 C182.9 38.89, 182.33 50.22, 180 78 C176.88 95.96, 171.96 105.45, 154 104 C117.21 103.81, 86.18 105.94, 26 104 C10.3 102.99, 1.92 97.45, 0 78 C-1.58 59.21, -1.95 36.85, 0 26 C2.34 9.71, 9.37 0.46, 26 0" stroke="none" stroke-width="0" fill="#d0bfff"/><path d="M26 0 C60.31 -0.03, 93.57 -0.65, 154 0 M26 0 C53 -1.13, 80.87 0.03, 154 0 M154 0 C169.65 0.05, 179.76 7.73, 180 26 M154 0 C170.1 -1.99, 180.04 6.67, 180 26 M180 26 C181.79 45.29, 181.49 62.05, 180 78 M180 26 C180.08 42.62, 179.41 57.5, 180 78 M180 78 C181.48 97.09, 169.45 104.63, 154 104 M180 78 C179.04 95.41, 172 105.11, 154 104 M154 104 C111.02 104.03, 68.19 104.02, 26 104 M154 104 C124.35 104.68, 92.72 104.26, 26 104 M26 104 C8.95 104.92, -0.67 94.16, 0 78 M26 104 C9.4 103.85, -1.51 94.65, 0 78 M0 78 C1.95 61.01, 2.24 41.7, 0 26 M0 78 C0.77 59.13, -0.83 38.58, 0 26 M0 26 C0.03 10.17, 8.83 -0.04, 26 0 M0 26 C0.56 9.05, 7.38 0.79, 26 0" stroke="#7048e8" stroke-width="2" fill="none"/></g><g transform="translate(40 621) rotate(0 80 10)"><text x="80" y="0" font-family="Virgil, Segoe UI Emoji" font-size="16px" fill="#7048e8" text-anchor="middle" style="white-space: pre;" direction="ltr" dominant-baseline="text-before-edge">Diagram SDK</text><text x="80" y="20" font-family="Virgil, Segoe UI Emoji" font-size="16px" fill="#7048e8" text-anchor="middle" style="white-space: pre;" direction="ltr" dominant-baseline="text-before-edge">(sdk.ts)</text></g><g stroke-linecap="round" transform="translate(30 769) rotate(0 80 52)"><path d="M26 0 C55.72 2.12, 83.5 1.46, 134 0 C148.2 0.2, 161.92 5.5, 160 26 C158.01 39.58, 156.87 55.03, 160 78 C159.37 92.7, 151.12 103.17, 134 104 C96.25 99, 59.88 101.67, 26 104 C12.17 107.43, 3.1 97.69, 0 78 C2.64 60.96, 2.29 49.71, 0 26 C3.36 9.72, 12.23 1.11, 26 0" stroke="none" stroke-width="0" fill="#ffc9c9"/><path d="M26 0 C47.89 -1.12, 71.29 -0.8, 134 0 M26 0 C51 0.7, 77.77 0.66, 134 0 M134 0 C152.59 -1.59, 159.68 7.34, 160 26 M134 0 C149.51 -0.61, 157.72 8.61, 160 26 M160 26 C162.19 41.09, 158.35 51.9, 160 78 M160 26 C158.91 39.77, 160.47 53.58, 160 78 M160 78 C161.63 96.54, 151.25 102.87, 134 104 M160 78 C160.43 96.27, 152.37 102.82, 134 104 M134 104 C97.62 102.86, 58.79 103.11, 26 104 M134 104 C98.87 102.18, 61.9 102.01, 26 104 M26 104 C8.77 104.48, 0.66 94.48, 0 78 M26 104 C6.48 102.87, 0.13 94.6, 0 78 M0 78 C-1.17 65.48, -0.59 49.53, 0 26 M0 78 C0.02 62.84, -0.58 46.91, 0 26 M0 26 C-1.37 7.67, 8.05 -1.93, 26 0 M0 26 C-0.66 7.1, 7.1 -0.18, 26 0" stroke="#e03131" stroke-width="2" fill="none"/></g><g transform="translate(40 811) rotate(0 70 10)"><text x="70" y="0" font-family="Virgil, Segoe UI Emoji" font-size="16px" fill="#e03131" text-anchor="middle" style="white-space: pre;" direction="ltr" dominant-baseline="text-before-edge">Upload</text><text x="70" y="20" font-family="Virgil, Segoe UI Emoji" font-size="16px" fill="#e03131" text-anchor="middle" style="white-space: pre;" direction="ltr" dominant-baseline="text-before-edge">(upload.ts)</text></g><g stroke-linecap="round" transform="translate(298 769) rotate(0 90 52)"><path d="M26 0 C61.5 -1.01, 102.66 -1.23, 154 0 C170.5 2.26, 177.72 6.23, 180 26 C181.51 37.69, 182.27 50.09, 180 78 C179.5 97.21, 168.51 106.96, 154 104 C114.58 107.72, 79.35 101.57, 26 104 C7.73 103.06, -1.58 95.71, 0 78 C-0.19 70.7, 1.87 55.68, 0 26 C-1.27 7.86, 5.48 -2.38, 26 0" stroke="none" stroke-width="0" fill="#b2f2bb"/><path d="M26 0 C73.99 -0.79, 123.09 -2.74, 154 0 M26 0 C69.77 -0.24, 111.84 -1.05, 154 0 M154 0 C171.34 1.56, 181.63 6.75, 180 26 M154 0 C169.31 -1.29, 177.97 9.23, 180 26 M180 26 C181.22 42.12, 178.35 63.38, 180 78 M180 26 C179.66 37.45, 179.63 47.71, 180 78 M180 78 C178.35 96.62, 172.15 104.63, 154 104 M180 78 C179.47 96.15, 169.43 103.22, 154 104 M154 104 C104 101.25, 58.1 101.36, 26 104 M154 104 C116.32 102.48, 76.18 103.29, 26 104 M26 104 C9.32 105.91, -0.35 94.55, 0 78 M26 104 C8.07 103.97, 1.5 94.57, 0 78 M0 78 C-0.68 60.46, -1.33 44.37, 0 26 M0 78 C0.59 61.75, -0.06 45.83, 0 26 M0 26 C-0.76 6.8, 6.73 0.13, 26 0 M0 26 C-2.03 8.56, 8.79 -2.16, 26 0" stroke="#2f9e44" stroke-width="2" fill="none"/></g><g transform="translate(308 811) rotate(0 80 10)"><text x="80" y="0" font-family="Virgil, Segoe UI Emoji" font-size="16px" fill="#2f9e44" text-anchor="middle" style="white-space: pre;" direction="ltr" dominant-baseline="text-before-edge">Graphviz WASM</text><text x="80" y="20" font-family="Virgil, Segoe UI Emoji" font-size="16px" fill="#2f9e44" text-anchor="middle" style="white-space: pre;" direction="ltr" dominant-baseline="text-before-edge">(layout.ts)</text></g><g stroke-linecap="round" transform="translate(586 769) rotate(0 80 52)"><path d="M26 0 C60.64 -3.07, 100.6 -1.89, 134 0 C153.94 3.56, 160.93 9.02, 160 26 C156.02 40.43, 159.91 54.49, 160 78 C156.64 92.74, 151.07 102.95, 134 104 C94.93 105.09, 46.96 99.7, 26 104 C5.66 107.13, 0.22 98.16, 0 78 C-1.03 59.46, 0.37 38.81, 0 26 C-2 10.22, 9.13 -3.56, 26 0" stroke="none" stroke-width="0" fill="#ffec99"/><path d="M26 0 C53.23 -0.6, 78.42 -0.3, 134 0 M26 0 C62.31 1.05, 100.1 0.58, 134 0 M134 0 C149.76 0.32, 159.05 7.57, 160 26 M134 0 C149.99 1.58, 158.08 7.6, 160 26 M160 26 C161.77 39.09, 161.96 47.52, 160 78 M160 26 C159.57 37.6, 160.08 49.19, 160 78 M160 78 C159.49 93.89, 151.57 104.56, 134 104 M160 78 C159.09 96.65, 150.7 102.8, 134 104 M134 104 C97.16 104.26, 55.84 101.94, 26 104 M134 104 C107.64 104.75, 80.74 105.16, 26 104 M26 104 C8.35 105.19, 0.87 93.93, 0 78 M26 104 C8.78 105.28, -0.95 94.65, 0 78 M0 78 C0.77 63.54, 0.28 47.57, 0 26 M0 78 C-0.56 65.64, 0.49 52.91, 0 26 M0 26 C-1.23 10.02, 8.71 0.32, 26 0 M0 26 C1.55 9.1, 10.48 -1.33, 26 0" stroke="#f08c00" stroke-width="2" fill="none"/></g><g transform="translate(596 811) rotate(0 70 10)"><text x="70" y="0" font-family="Virgil, Segoe UI Emoji" font-size="16px" fill="#f08c00" text-anchor="middle" style="white-space: pre;" direction="ltr" dominant-baseline="text-before-edge">Zig WASM</text><text x="70" y="20" font-family="Virgil, Segoe UI Emoji" font-size="16px" fill="#f08c00" text-anchor="middle" style="white-space: pre;" direction="ltr" dominant-baseline="text-before-edge">(validate)</text></g><g stroke-linecap="round" transform="translate(854 769) rotate(0 80 52)"><path d="M26 0 C46.05 4.53, 66.75 2.92, 134 0 C151.6 2.09, 156.8 7.1, 160 26 C160.37 40.03, 157.25 50.59, 160 78 C159.6 93.61, 149.89 106.44, 134 104 C103.67 102.8, 78.68 104.26, 26 104 C8 106.13, -0.87 96.05, 0 78 C-2.12 64.26, 4.19 47.33, 0 26 C2.27 6.46, 7.37 2.31, 26 0" stroke="none" stroke-width="0" fill="#ffe8cc"/><path d="M26 0 C57.47 1.69, 89.73 -0.7, 134 0 M26 0 C52.16 -1.37, 80.36 -1.19, 134 0 M134 0 C152.59 -1.29, 159.18 9.06, 160 26 M134 0 C152.03 1.54, 162.18 7.57, 160 26 M160 26 C158.7 40.78, 161.81 51.89, 160 78 M160 26 C160.12 39, 160.57 52.5, 160 78 M160 78 C161.51 93.82, 152.75 104.29, 134 104 M160 78 C162.1 96.29, 152.77 105.69, 134 104 M134 104 C95.18 105.01, 54.6 104.3, 26 104 M134 104 C104.77 104.95, 76.57 104.65, 26 104 M26 104 C8.11 105.97, 1.84 93.48, 0 78 M26 104 C7.78 103.72, 1.62 97.4, 0 78 M0 78 C-0.58 65.97, -0.61 52.7, 0 26 M0 78 C0.38 62.59, 0.33 48.92, 0 26 M0 26 C1.16 9.49, 10.65 -1.53, 26 0 M0 26 C0.91 10.23, 10.85 2.25, 26 0" stroke="#fd7e14" stroke-width="2" fill="none"/></g><g transform="translate(864 811) rotate(0 70 10)"><text x="70" y="0" font-family="Virgil, Segoe UI Emoji" font-size="16px" fill="#fd7e14" text-anchor="middle" style="white-space: pre;" direction="ltr" dominant-baseline="text-before-edge">Image Export</text><text x="70" y="20" font-family="Virgil, Segoe UI Emoji" font-size="16px" fill="#fd7e14" text-anchor="middle" style="white-space: pre;" direction="ltr" dominant-baseline="text-before-edge">(png.ts)</text></g><g stroke-linecap="round" transform="translate(1107 959) rotate(0 70 52)"><path d="M26 0 C54.06 3.67, 86.17 -1.56, 114 0 C133.36 0.97, 139.65 10.6, 140 26 C140.9 43.61, 141.99 58.07, 140 78 C137.69 97.58, 134.87 105.62, 114 104 C97.09 108.78, 77.35 104.25, 26 104 C7.44 101.36, 0.68 96.71, 0 78 C0.01 56.96, -1.45 39.98, 0 26 C2.53 7.51, 12.26 0.25, 26 0" stroke="none" stroke-width="0" fill="#a5d8ff"/><path d="M26 0 C46.12 1.91, 64.71 -0.28, 114 0 M26 0 C46.25 -1.67, 65.85 -1.45, 114 0 M114 0 C132.55 1.85, 138.44 10.14, 140 26 M114 0 C132.87 2.15, 141.77 9.48, 140 26 M140 26 C138.76 35.01, 140 48.43, 140 78 M140 26 C141.45 38.85, 140.92 51.24, 140 78 M140 78 C140.49 95.31, 130.75 103.08, 114 104 M140 78 C141.97 95.62, 130.98 103.33, 114 104 M114 104 C94.57 102.43, 72.61 104.96, 26 104 M114 104 C79.22 105.21, 44.18 104.15, 26 104 M26 104 C6.89 103.98, 1.71 96.02, 0 78 M26 104 C10.83 104.87, -1.21 93.27, 0 78 M0 78 C-0.64 57.16, -1.14 40.02, 0 26 M0 78 C-0.89 59.22, -0.9 38.9, 0 26 M0 26 C0.26 7.25, 9.24 -1.23, 26 0 M0 26 C-0.43 8.15, 7.16 -1.33, 26 0" stroke="#1971c2" stroke-width="2" fill="none"/></g><g transform="translate(1117 1001) rotate(0 60 10)"><text x="60" y="0" font-family="Virgil, Segoe UI Emoji" font-size="16px" fill="#1971c2" text-anchor="middle" style="white-space: pre;" direction="ltr" dominant-baseline="text-before-edge">.excalidraw</text><text x="60" y="20" font-family="Virgil, Segoe UI Emoji" font-size="16px" fill="#1971c2" text-anchor="middle" style="white-space: pre;" direction="ltr" dominant-baseline="text-before-edge">file</text></g><g stroke-linecap="round" transform="translate(591 959) rotate(0 80 52)"><path d="M26 0 C62.78 2.05, 97.59 3.64, 134 0 C152.71 1.33, 159.78 11.6, 160 26 C161.95 41.45, 164.04 64.64, 160 78 C156.59 98.14, 149.24 104.13, 134 104 C98.33 103.47, 60.82 105.93, 26 104 C9.53 106.98, -0.22 97.55, 0 78 C1.62 62.11, 0.15 53.4, 0 26 C1.5 11.63, 10 3.16, 26 0" stroke="none" stroke-width="0" fill="#a5d8ff"/><path d="M26 0 C54.27 -0.68, 81.05 0.79, 134 0 M26 0 C52.7 -0.66, 77.76 0.01, 134 0 M134 0 C150.04 -0.22, 161.43 8.69, 160 26 M134 0 C150.82 -0.57, 161.88 10.17, 160 26 M160 26 C160.27 44.54, 160.12 60.54, 160 78 M160 26 C160.43 37.36, 160.13 49.79, 160 78 M160 78 C159.41 96.74, 153.04 103.83, 134 104 M160 78 C160.45 97.18, 149.6 102.06, 134 104 M134 104 C97.02 101.45, 54.18 103.15, 26 104 M134 104 C90.97 103.78, 47.63 103.57, 26 104 M26 104 C6.97 104.22, -0.23 96.89, 0 78 M26 104 C10.42 102.96, 0.27 96.2, 0 78 M0 78 C0.44 67.66, -0.63 54.6, 0 26 M0 78 C-0.56 65.64, -0.6 52.18, 0 26 M0 26 C0.46 7.48, 10.58 -0.21, 26 0 M0 26 C-0.56 6.95, 9.53 1.18, 26 0" stroke="#1971c2" stroke-width="2" fill="none"/></g><g transform="translate(601 1001) rotate(0 70 10)"><text x="70" y="0" font-family="Virgil, Segoe UI Emoji" font-size="16px" fill="#1971c2" text-anchor="middle" style="white-space: pre;" direction="ltr" dominant-baseline="text-before-edge">excalidraw.com</text><text x="70" y="20" font-family="Virgil, Segoe UI Emoji" font-size="16px" fill="#1971c2" text-anchor="middle" style="white-space: pre;" direction="ltr" dominant-baseline="text-before-edge">URL</text></g><g stroke-linecap="round" transform="translate(859 959) rotate(0 70 52)"><path d="M26 0 C60.65 -2.01, 87.38 0.15, 114 0 C132.01 -3.06, 138.83 9.1, 140 26 C140.2 40.61, 138.45 57.17, 140 78 C139.84 95.9, 134.69 103.48, 114 104 C92.94 107.95, 76.89 101.81, 26 104 C11.64 104.34, -0.3 94.59, 0 78 C-2.31 68.08, 3.49 56.52, 0 26 C1.96 10.12, 7 -0.81, 26 0" stroke="none" stroke-width="0" fill="#a5d8ff"/><path d="M26 0 C47.31 1.26, 69.2 -0.34, 114 0 M26 0 C52.69 0.51, 77.76 0.52, 114 0 M114 0 C130.93 -1.73, 138.52 9.27, 140 26 M114 0 C132.25 2.18, 138.52 10.13, 140 26 M140 26 C141.34 47.28, 140.45 67.88, 140 78 M140 26 C139.05 41.79, 140.53 58.4, 140 78 M140 78 C140.35 95.85, 130.42 103.01, 114 104 M140 78 C140.18 97.33, 132.84 104.16, 114 104 M114 104 C95.85 104.19, 76 101.25, 26 104 M114 104 C88.33 102.77, 64.11 102.97, 26 104 M26 104 C7.35 102.87, 1.52 96.35, 0 78 M26 104 C7.98 103.47, -0.15 94.03, 0 78 M0 78 C-1.05 62.18, -0.69 48.92, 0 26 M0 78 C0.05 57.4, 1.4 38.89, 0 26 M0 26 C0.99 6.95, 7.22 -1.2, 26 0 M0 26 C-1.1 8.95, 6.48 -1.46, 26 0" stroke="#1971c2" stroke-width="2" fill="none"/></g><g transform="translate(869 1001) rotate(0 60 10)"><text x="60" y="0" font-family="Virgil, Segoe UI Emoji" font-size="16px" fill="#1971c2" text-anchor="middle" style="white-space: pre;" direction="ltr" dominant-baseline="text-before-edge">PNG / SVG</text><text x="60" y="20" font-family="Virgil, Segoe UI Emoji" font-size="16px" fill="#1971c2" text-anchor="middle" style="white-space: pre;" direction="ltr" dominant-baseline="text-before-edge">file</text></g><g mask="url(#mask-arr_15_mmdnl63l_15)" stroke-linecap="round"><g transform="translate(120 115) rotate(0 0 36.5)"><path d="M0 0 C0 12.17, 0 60.83, 0 73 M0 0 C0 12.17, 0 60.83, 0 73" stroke="#c92a2a" stroke-width="2" fill="none"/></g><g transform="translate(120 115) rotate(0 0 36.5)"><path d="M-10.26 44.81 C-6.85 54.19, -3.43 63.57, 0 73 M-10.26 44.81 C-8.16 50.57, -6.06 56.34, 0 73" stroke="#c92a2a" stroke-width="2" fill="none"/></g><g transform="translate(120 115) rotate(0 0 36.5)"><path d="M10.26 44.81 C6.85 54.19, 3.43 63.57, 0 73 M10.26 44.81 C8.16 50.57, 6.06 56.34, 0 73" stroke="#c92a2a" stroke-width="2" fill="none"/></g></g><mask id="mask-arr_15_mmdnl63l_15"><rect x="0" y="0" fill="#fff" width="221" height="288"/><rect x="76" y="141.5" fill="#000" width="88" height="20" opacity="1"/></mask><g transform="translate(76 141.5) rotate(0 44 10)"><text x="44" y="0" font-family="Virgil, Segoe UI Emoji" font-size="14px" fill="#1e1e1e" text-anchor="middle" style="white-space: pre;" direction="ltr" dominant-baseline="text-before-edge">draw tool</text></g><g mask="url(#mask-arr_16_mmdnl63l_16)" stroke-linecap="round"><g transform="translate(120 304) rotate(0 0 37)"><path d="M0 0 C0 12.33, 0 61.67, 0 74 M0 0 C0 12.33, 0 61.67, 0 74" stroke="#7048e8" stroke-width="2" fill="none"/></g><g transform="translate(120 304) rotate(0 0 37)"><path d="M-10.26 45.81 C-6.55 56.01, -2.84 66.21, 0 74 M-10.26 45.81 C-7.5 53.39, -4.74 60.96, 0 74" stroke="#7048e8" stroke-width="2" fill="none"/></g><g transform="translate(120 304) rotate(0 0 37)"><path d="M10.26 45.81 C6.55 56.01, 2.84 66.21, 0 74 M10.26 45.81 C7.5 53.39, 4.74 60.96, 0 74" stroke="#7048e8" stroke-width="2" fill="none"/></g></g><mask id="mask-arr_16_mmdnl63l_16"><rect x="0" y="0" fill="#fff" width="221" height="478"/><rect x="96" y="331" fill="#000" width="48" height="20" opacity="1"/></mask><g transform="translate(96 331) rotate(0 24 10)"><text x="24" y="0" font-family="Virgil, Segoe UI Emoji" font-size="14px" fill="#1e1e1e" text-anchor="middle" style="white-space: pre;" direction="ltr" dominant-baseline="text-before-edge">code</text></g><g mask="url(#mask-arr_17_mmdnl63l_17)" stroke-linecap="round"><g transform="translate(120 494) rotate(0 0 37)"><path d="M0 0 C0 12.33, 0 61.67, 0 74 M0 0 C0 12.33, 0 61.67, 0 74" stroke="#7048e8" stroke-width="2" fill="none"/></g><g transform="translate(120 494) rotate(0 0 37)"><path d="M-10.26 45.81 C-8.12 51.69, -5.98 57.58, 0 74 M-10.26 45.81 C-7.97 52.1, -5.68 58.39, 0 74" stroke="#7048e8" stroke-width="2" fill="none"/></g><g transform="translate(120 494) rotate(0 0 37)"><path d="M10.26 45.81 C8.12 51.69, 5.98 57.58, 0 74 M10.26 45.81 C7.97 52.1, 5.68 58.39, 0 74" stroke="#7048e8" stroke-width="2" fill="none"/></g></g><mask id="mask-arr_17_mmdnl63l_17"><rect x="0" y="0" fill="#fff" width="221" height="668"/><rect x="68" y="521" fill="#000" width="104" height="20" opacity="1"/></mask><g transform="translate(68 521) rotate(0 52 10)"><text x="52" y="0" font-family="Virgil, Segoe UI Emoji" font-size="14px" fill="#1e1e1e" text-anchor="middle" style="white-space: pre;" direction="ltr" dominant-baseline="text-before-edge">Diagram API</text></g><g mask="url(#mask-arr_18_mmdnl63l_18)" stroke-linecap="round"><g transform="translate(197 658) rotate(0 81 52.5)"><path d="M0 0 C19 11, 87 48.5, 114 66 C141 83.5, 154 98.5, 162 105 M0 0 C19 11, 87 48.5, 114 66 C141 83.5, 154 98.5, 162 105" stroke="#2f9e44" stroke-width="2" fill="none"/></g><g transform="translate(197 658) rotate(0 81 52.5)"><path d="M134.23 93.65 C143.47 97.42, 152.71 101.2, 162 105 M134.23 93.65 C141.22 96.51, 148.21 99.36, 162 105" stroke="#2f9e44" stroke-width="2" fill="none"/></g><g transform="translate(197 658) rotate(0 81 52.5)"><path d="M148.02 78.45 C152.68 87.29, 157.33 96.12, 162 105 M148.02 78.45 C151.54 85.14, 155.06 91.82, 162 105" stroke="#2f9e44" stroke-width="2" fill="none"/></g></g><mask id="mask-arr_18_mmdnl63l_18"><rect x="0" y="0" fill="#fff" width="459" height="863"/><rect x="279" y="714" fill="#000" width="64" height="20" opacity="1"/></mask><g transform="translate(279 714) rotate(0 -1 -3.5)"><text x="32" y="0" font-family="Virgil, Segoe UI Emoji" font-size="14px" fill="#1e1e1e" text-anchor="middle" style="white-space: pre;" direction="ltr" dominant-baseline="text-before-edge">layout</text></g><g mask="url(#mask-arr_19_mmdnl63l_19)" stroke-linecap="round"><g transform="translate(203 651) rotate(0 200 62)"><path d="M0 0 C54.83 12.17, 262.33 52.33, 329 73 C395.67 93.67, 388.17 115.5, 400 124 M0 0 C54.83 12.17, 262.33 52.33, 329 73 C395.67 93.67, 388.17 115.5, 400 124" stroke="#f08c00" stroke-width="2" fill="none"/></g><g transform="translate(203 651) rotate(0 200 62)"><path d="M375.06 107.32 C384.46 113.61, 393.87 119.9, 400 124 M375.06 107.32 C383.42 112.91, 391.78 118.5, 400 124" stroke="#f08c00" stroke-width="2" fill="none"/></g><g transform="translate(203 651) rotate(0 200 62)"><path d="M391.62 95.19 C394.78 106.05, 397.94 116.92, 400 124 M391.62 95.19 C394.43 104.85, 397.24 114.5, 400 124" stroke="#f08c00" stroke-width="2" fill="none"/></g></g><mask id="mask-arr_19_mmdnl63l_19"><rect x="0" y="0" fill="#fff" width="703" height="875"/><rect x="492" y="714" fill="#000" width="80" height="20" opacity="1"/></mask><g transform="translate(492 714) rotate(0 -89 -1)"><text x="40" y="0" font-family="Virgil, Segoe UI Emoji" font-size="14px" fill="#1e1e1e" text-anchor="middle" style="white-space: pre;" direction="ltr" dominant-baseline="text-before-edge">validate</text></g><g mask="url(#mask-arr_20_mmdnl63l_20)" stroke-linecap="round"><g transform="translate(117 684) rotate(0 -2 36.5)"><path d="M0 0 C-0.67 12.17, -3.33 60.83, -4 73 M0 0 C-0.67 12.17, -3.33 60.83, -4 73" stroke="#e03131" stroke-width="2" fill="none"/></g><g transform="translate(117 684) rotate(0 -2 36.5)"><path d="M-12.7 44.29 C-10.11 52.84, -7.52 61.4, -4 73 M-12.7 44.29 C-10.71 50.86, -8.72 57.44, -4 73" stroke="#e03131" stroke-width="2" fill="none"/></g><g transform="translate(117 684) rotate(0 -2 36.5)"><path d="M7.79 45.41 C4.28 53.63, 0.76 61.85, -4 73 M7.79 45.41 C5.09 51.73, 2.39 58.04, -4 73" stroke="#e03131" stroke-width="2" fill="none"/></g></g><mask id="mask-arr_20_mmdnl63l_20"><rect x="0" y="0" fill="#fff" width="221" height="857"/><rect x="51" y="710.5" fill="#000" width="128" height="20" opacity="1"/></mask><g transform="translate(51 710.5) rotate(0 64 10)"><text x="64" y="0" font-family="Virgil, Segoe UI Emoji" font-size="14px" fill="#1e1e1e" text-anchor="middle" style="white-space: pre;" direction="ltr" dominant-baseline="text-before-edge">encrypt + POST</text></g><g mask="url(#mask-arr_21_mmdnl63l_21)" stroke-linecap="round"><g transform="translate(207 644) rotate(0 332 65.5)"><path d="M0 0 C98.83 13.33, 482.33 58.17, 593 80 C703.67 101.83, 652.17 122.5, 664 131 M0 0 C98.83 13.33, 482.33 58.17, 593 80 C703.67 101.83, 652.17 122.5, 664 131" stroke="#fd7e14" stroke-width="2" fill="none"/></g><g transform="translate(207 644) rotate(0 332 65.5)"><path d="M654.7 102.48 C657.06 109.7, 659.41 116.93, 664 131 M654.7 102.48 C658.18 113.14, 661.65 123.8, 664 131" stroke="#fd7e14" stroke-width="2" fill="none"/></g><g transform="translate(207 644) rotate(0 332 65.5)"><path d="M675.21 103.17 C672.37 110.22, 669.53 117.27, 664 131 M675.21 103.17 C671.02 113.58, 666.83 123.98, 664 131" stroke="#fd7e14" stroke-width="2" fill="none"/></g></g><mask id="mask-arr_21_mmdnl63l_21"><rect x="0" y="0" fill="#fff" width="971" height="875"/><rect x="760" y="714" fill="#000" width="80" height="20" opacity="1"/></mask><g transform="translate(760 714) rotate(0 -220.02188226551846 -4.5)"><text x="40" y="0" font-family="Virgil, Segoe UI Emoji" font-size="14px" fill="#1e1e1e" text-anchor="middle" style="white-space: pre;" direction="ltr" dominant-baseline="text-before-edge">elements</text></g><g mask="url(#mask-arr_22_mmdnl63l_22)" stroke-linecap="round"><g transform="translate(208 641) rotate(0 472 154.5)"><path d="M0 0 C142.17 13.83, 695.67 31.5, 853 83 C1010.33 134.5, 928.83 271.33, 944 309 M0 0 C142.17 13.83, 695.67 31.5, 853 83 C1010.33 134.5, 928.83 271.33, 944 309" stroke="#1971c2" stroke-width="2" fill="none"/></g><g transform="translate(208 641) rotate(0 472 154.5)"><path d="M935.47 280.24 C937.95 288.58, 940.42 296.92, 944 309 M935.47 280.24 C938.35 289.95, 941.23 299.66, 944 309" stroke="#1971c2" stroke-width="2" fill="none"/></g><g transform="translate(208 641) rotate(0 472 154.5)"><path d="M955.96 281.49 C952.49 289.47, 949.02 297.45, 944 309 M955.96 281.49 C951.92 290.77, 947.88 300.06, 944 309" stroke="#1971c2" stroke-width="2" fill="none"/></g></g><mask id="mask-arr_22_mmdnl63l_22"><rect x="0" y="0" fill="#fff" width="1252" height="1050"/><rect x="1013" y="714" fill="#000" width="96" height="20" opacity="1"/></mask><g transform="translate(1013 714) rotate(0 -329.06316052643297 81.5)"><text x="48" y="0" font-family="Virgil, Segoe UI Emoji" font-size="14px" fill="#1e1e1e" text-anchor="middle" style="white-space: pre;" direction="ltr" dominant-baseline="text-before-edge">write JSON</text></g><g mask="url(#mask-arr_23_mmdnl63l_23)" stroke-linecap="round"><g transform="translate(172 854) rotate(0 207.5 66)"><path d="M0 0 C13.17 6.5, 9.83 17, 79 39 C148.17 61, 359 116.5, 415 132 M0 0 C13.17 6.5, 9.83 17, 79 39 C148.17 61, 359 116.5, 415 132" stroke="#1971c2" stroke-width="2" fill="none"/></g><g transform="translate(172 854) rotate(0 207.5 66)"><path d="M385.11 134.55 C395.17 133.69, 405.23 132.83, 415 132 M385.11 134.55 C393.1 133.87, 401.1 133.18, 415 132" stroke="#1971c2" stroke-width="2" fill="none"/></g><g transform="translate(172 854) rotate(0 207.5 66)"><path d="M390.46 114.74 C398.72 120.55, 406.98 126.36, 415 132 M390.46 114.74 C397.03 119.36, 403.59 123.97, 415 132" stroke="#1971c2" stroke-width="2" fill="none"/></g></g><mask id="mask-arr_23_mmdnl63l_23"><rect x="0" y="0" fill="#fff" width="687" height="1086"/><rect x="187" y="883" fill="#000" width="128" height="20" opacity="1"/></mask><g transform="translate(187 883) rotate(0 192.5 37)"><text x="64" y="0" font-family="Virgil, Segoe UI Emoji" font-size="14px" fill="#1e1e1e" text-anchor="middle" style="white-space: pre;" direction="ltr" dominant-baseline="text-before-edge">shareable link</text></g><g mask="url(#mask-arr_24_mmdnl63l_24)" stroke-linecap="round"><g transform="translate(932 873) rotate(0 -1 37)"><path d="M0 0 C-0.33 12.33, -1.67 61.67, -2 74 M0 0 C-0.33 12.33, -1.67 61.67, -2 74" stroke="#1971c2" stroke-width="2" fill="none"/></g><g transform="translate(932 873) rotate(0 -1 37)"><path d="M-11.5 45.54 C-8.6 54.23, -5.7 62.92, -2 74 M-11.5 45.54 C-8.63 54.12, -5.77 62.69, -2 74" stroke="#1971c2" stroke-width="2" fill="none"/></g><g transform="translate(932 873) rotate(0 -1 37)"><path d="M9.02 46.1 C5.65 54.62, 2.29 63.13, -2 74 M9.02 46.1 C5.7 54.51, 2.38 62.91, -2 74" stroke="#1971c2" stroke-width="2" fill="none"/></g></g><mask id="mask-arr_24_mmdnl63l_24"><rect x="0" y="0" fill="#fff" width="1034" height="1047"/><rect x="859" y="900" fill="#000" width="144" height="20" opacity="1"/></mask><g transform="translate(859 900) rotate(0 72 10)"><text x="72" y="0" font-family="Virgil, Segoe UI Emoji" font-size="14px" fill="#1e1e1e" text-anchor="middle" style="white-space: pre;" direction="ltr" dominant-baseline="text-before-edge">puppeteer render</text></g><g mask="url(#mask-arr_25_mmdnl63l_25)" stroke-linecap="round"><g transform="translate(312 793) rotate(0 -79 -52)"><path d="M0 0 C-18.17 -11.5, -82.67 -51.67, -109 -69 C-135.33 -86.33, -149.83 -98.17, -158 -104" stroke="#7048e8" stroke-width="2.5" fill="none" stroke-dasharray="8 10"/></g><g transform="translate(312 793) rotate(0 -79 -52)"><path d="M-129.26 -95.39 C-139.71 -98.52, -150.15 -101.65, -158 -104" stroke="#7048e8" stroke-width="2.5" fill="none"/></g><g transform="translate(312 793) rotate(0 -79 -52)"><path d="M-141.52 -78.93 C-147.51 -88.04, -153.5 -97.15, -158 -104" stroke="#7048e8" stroke-width="2.5" fill="none"/></g></g><mask id="mask-arr_25_mmdnl63l_25"><rect x="0" y="0" fill="#fff" width="570" height="997"/><rect x="159" y="714" fill="#000" width="88" height="20" opacity="1"/></mask><g transform="translate(159 714) rotate(0 74 27)"><text x="44" y="0" font-family="Virgil, Segoe UI Emoji" font-size="14px" fill="#1e1e1e" text-anchor="middle" style="white-space: pre;" direction="ltr" dominant-baseline="text-before-edge">positions</text></g><g stroke-opacity="0.6" fill-opacity="0.6" stroke-linecap="round" transform="translate(10 345) rotate(0 110 273.5)"><path d="M32 0 C63.77 0, 95.54 0, 188 0 M188 0 C209.33 0, 220 10.67, 220 32 M220 32 C220 185.89, 220 339.78, 220 515 M220 515 C220 536.33, 209.33 547, 188 547 M188 547 C133.51 547, 79.03 547, 32 547 M32 547 C10.67 547, 0 536.33, 0 515 M0 515 C0 391.6, 0 268.21, 0 32 M0 32 C0 10.67, 10.67 0, 32 0" stroke="#868e96" stroke-width="1.5" fill="none" stroke-dasharray="8 9"/></g><g stroke-opacity="0.6" fill-opacity="0.6" transform="translate(20 350) rotate(0 24 10)"><text x="0" y="0" font-family="Virgil, Segoe UI Emoji" font-size="14px" fill="#868e96" text-anchor="start" style="white-space: pre;" direction="ltr" dominant-baseline="text-before-edge">Core</text></g><g stroke-opacity="0.6" fill-opacity="0.6" stroke-linecap="round" transform="translate(278 724) rotate(0 378 84)"><path d="M32 0 C288.43 0, 544.85 0, 724 0 M724 0 C745.33 0, 756 10.67, 756 32 M756 32 C756 59.85, 756 87.7, 756 136 M756 136 C756 157.33, 745.33 168, 724 168 M724 168 C463.13 168, 202.25 168, 32 168 M32 168 C10.67 168, 0 157.33, 0 136 M0 136 C0 98.29, 0 60.57, 0 32 M0 32 C0 10.67, 10.67 0, 32 0" stroke="#868e96" stroke-width="1.5" fill="none" stroke-dasharray="8 9"/></g><g stroke-opacity="0.6" fill-opacity="0.6" transform="translate(288 729) rotate(0 68 10)"><text x="0" y="0" font-family="Virgil, Segoe UI Emoji" font-size="14px" fill="#868e96" text-anchor="start" style="white-space: pre;" direction="ltr" dominant-baseline="text-before-edge">Layout &amp; Export</text></g><g stroke-opacity="0.6" fill-opacity="0.6" stroke-linecap="round" transform="translate(571 914) rotate(0 348 84)"><path d="M32 0 C163.95 0, 295.91 0, 664 0 M664 0 C685.33 0, 696 10.67, 696 32 M696 32 C696 58.76, 696 85.52, 696 136 M696 136 C696 157.33, 685.33 168, 664 168 M664 168 C434.24 168, 204.47 168, 32 168 M32 168 C10.67 168, 0 157.33, 0 136 M0 136 C0 108.97, 0 81.94, 0 32 M0 32 C0 10.67, 10.67 0, 32 0" stroke="#868e96" stroke-width="1.5" fill="none" stroke-dasharray="8 9"/></g><g stroke-opacity="0.6" fill-opacity="0.6" transform="translate(581 919) rotate(0 36 10)"><text x="0" y="0" font-family="Virgil, Segoe UI Emoji" font-size="14px" fill="#868e96" text-anchor="start" style="white-space: pre;" direction="ltr" dominant-baseline="text-before-edge">Outputs</text></g></svg>