<svg xmlns="http://www.w3.org/2000/svg" viewBox="30 10 1610 1364" style="background:#ffffff">
<defs><marker id="arrowhead" markerWidth="10" markerHeight="7" refX="10" refY="3.5" orient="auto"><polygon points="0 0, 10 3.5, 0 7" fill="#333"/></marker></defs>
<rect x="100" y="100" width="160" height="80" fill="#e7f5ff" stroke="#1971c2" stroke-width="2" rx="8"/>
<text x="180" y="140" text-anchor="middle" dominant-baseline="central" font-family="sans-serif" font-size="16" fill="#1971c2">Claude Desktop</text>
<rect x="380" y="100" width="160" height="80" fill="#e7f5ff" stroke="#1971c2" stroke-width="2" rx="8"/>
<text x="460" y="140" text-anchor="middle" dominant-baseline="central" font-family="sans-serif" font-size="16" fill="#1971c2">Claude Code</text>
<rect x="660" y="100" width="160" height="80" fill="#e7f5ff" stroke="#1971c2" stroke-width="2" rx="8"/>
<text x="740" y="140" text-anchor="middle" dominant-baseline="central" font-family="sans-serif" font-size="16" fill="#1971c2">Cursor</text>
<rect x="940" y="100" width="160" height="80" fill="#e7f5ff" stroke="#1971c2" stroke-width="2" rx="8"/>
<text x="1020" y="140" text-anchor="middle" dominant-baseline="central" font-family="sans-serif" font-size="16" fill="#1971c2">Cowork</text>
<rect x="380" y="320" width="200" height="104" fill="#d0bfff" stroke="#7048e8" stroke-width="2" rx="8"/>
<text text-anchor="middle" dominant-baseline="central" font-family="sans-serif" font-size="16" fill="#7048e8"><tspan x="480" y="360">MCP Server</tspan><tspan x="480" y="384">(index.ts)</tspan></text>
<rect x="940" y="320" width="200" height="104" fill="#ffc9c9" stroke="#e03131" stroke-width="2" rx="8"/>
<text text-anchor="middle" dominant-baseline="central" font-family="sans-serif" font-size="16" fill="#e03131"><tspan x="1040" y="360">Cloudflare Worker</tspan><tspan x="1040" y="384">(remote MCP)</tspan></text>
<rect x="100" y="540" width="160" height="80" fill="#d0bfff" stroke="#7048e8" stroke-width="2" rx="8"/>
<text x="180" y="580" text-anchor="middle" dominant-baseline="central" font-family="sans-serif" font-size="16" fill="#7048e8">draw tool</text>
<rect x="380" y="540" width="160" height="80" fill="#d0bfff" stroke="#7048e8" stroke-width="2" rx="8"/>
<text x="460" y="580" text-anchor="middle" dominant-baseline="central" font-family="sans-serif" font-size="16" fill="#7048e8">draw_info tool</text>
<rect x="660" y="540" width="180" height="104" fill="#a5d8ff" stroke="#1971c2" stroke-width="2" rx="8"/>
<text text-anchor="middle" dominant-baseline="central" font-family="sans-serif" font-size="16" fill="#1971c2"><tspan x="750" y="580">ui://widget</tspan><tspan x="750" y="604">(HTML resource)</tspan></text>
<rect x="100" y="760" width="180" height="104" fill="#ffa8a8" stroke="#c92a2a" stroke-width="2" rx="8"/>
<text text-anchor="middle" dominant-baseline="central" font-family="sans-serif" font-size="16" fill="#c92a2a"><tspan x="190" y="800">Executor</tspan><tspan x="190" y="824">(new Function)</tspan></text>
<rect x="380" y="760" width="180" height="104" fill="#e599f7" stroke="#9c36b5" stroke-width="2" rx="8"/>
<text text-anchor="middle" dominant-baseline="central" font-family="sans-serif" font-size="16" fill="#9c36b5"><tspan x="470" y="800">Diagram SDK</tspan><tspan x="470" y="824">(sdk.ts)</tspan></text>
<rect x="100" y="980" width="220" height="104" fill="#e599f7" stroke="#9c36b5" stroke-width="2" rx="8"/>
<text text-anchor="middle" dominant-baseline="central" font-family="sans-serif" font-size="16" fill="#9c36b5"><tspan x="210" y="1020">Graphviz WASM</tspan><tspan x="210" y="1044">(@hpcc-js/wasm-graphviz)</tspan></text>
<rect x="380" y="980" width="220" height="104" fill="#b2f2bb" stroke="#2f9e44" stroke-width="2" rx="8"/>
<text text-anchor="middle" dominant-baseline="central" font-family="sans-serif" font-size="16" fill="#2f9e44"><tspan x="490" y="1020">Zig WASM</tspan><tspan x="490" y="1044">(renderSvg + validate)</tspan></text>
<rect x="660" y="980" width="180" height="104" fill="#ffe8cc" stroke="#fd7e14" stroke-width="2" rx="8"/>
<text text-anchor="middle" dominant-baseline="central" font-family="sans-serif" font-size="16" fill="#fd7e14"><tspan x="750" y="1020">resvg-js</tspan><tspan x="750" y="1044">(SVG → PNG)</tspan></text>
<rect x="100" y="1200" width="140" height="104" fill="#ffec99" stroke="#f08c00" stroke-width="2" rx="8"/>
<text text-anchor="middle" dominant-baseline="central" font-family="sans-serif" font-size="16" fill="#f08c00"><tspan x="170" y="1240">.excalidraw</tspan><tspan x="170" y="1264">file</tspan></text>
<rect x="380" y="1200" width="160" height="104" fill="#ffc9c9" stroke="#e03131" stroke-width="2" rx="8"/>
<text text-anchor="middle" dominant-baseline="central" font-family="sans-serif" font-size="16" fill="#e03131"><tspan x="460" y="1240">excalidraw.com</tspan><tspan x="460" y="1264">URL</tspan></text>
<rect x="660" y="1200" width="100" height="80" fill="#ffec99" stroke="#f08c00" stroke-width="2" rx="8"/>
<text x="710" y="1240" text-anchor="middle" dominant-baseline="central" font-family="sans-serif" font-size="16" fill="#f08c00">SVG</text>
<rect x="940" y="1200" width="100" height="80" fill="#ffec99" stroke="#f08c00" stroke-width="2" rx="8"/>
<text x="990" y="1240" text-anchor="middle" dominant-baseline="central" font-family="sans-serif" font-size="16" fill="#f08c00">PNG</text>
<path d="M260 140L320 140L320 372L380 372" fill="none" stroke="#7048e8" stroke-width="2" marker-end="url(#arrowhead)"/>
<text x="348" y="254" text-anchor="middle" dominant-baseline="central" font-family="sans-serif" font-size="14" fill="#1e1e1e">stdio</text>
<path d="M460 180L460 250L480 250L480 320" fill="none" stroke="#7048e8" stroke-width="2" marker-end="url(#arrowhead)"/>
<text x="488" y="213" text-anchor="middle" dominant-baseline="central" font-family="sans-serif" font-size="14" fill="#1e1e1e">stdio</text>
<path d="M660 140L620 140L620 372L580 372" fill="none" stroke="#7048e8" stroke-width="2" marker-end="url(#arrowhead)"/>
<text x="648" y="254" text-anchor="middle" dominant-baseline="central" font-family="sans-serif" font-size="14" fill="#1e1e1e">stdio</text>
<path d="M1020 180L1020 250L1040 250L1040 320" fill="none" stroke="#e03131" stroke-width="2" marker-end="url(#arrowhead)"/>
<text x="1044" y="213" text-anchor="middle" dominant-baseline="central" font-family="sans-serif" font-size="14" fill="#1e1e1e">HTTP</text>
<path d="M380 372L320 372L320 580L260 580" fill="none" stroke="#7048e8" stroke-width="2" marker-end="url(#arrowhead)"/>
<path d="M450 424L450 482L436 482L436 540" fill="none" stroke="#7048e8" stroke-width="2" marker-end="url(#arrowhead)"/>
<path d="M580 387L620 387L620 607L660 607" fill="none" stroke="#1971c2" stroke-width="2" marker-end="url(#arrowhead)"/>
<text x="684" y="495" text-anchor="middle" dominant-baseline="central" font-family="sans-serif" font-size="14" fill="#1e1e1e">resources/read</text>
<path d="M180 620L180 690L190 690L190 760" fill="none" stroke="#c92a2a" stroke-width="2" marker-end="url(#arrowhead)"/>
<text x="220" y="653" text-anchor="middle" dominant-baseline="central" font-family="sans-serif" font-size="14" fill="#1e1e1e">LLM code</text>
<path d="M280 812L380 812" fill="none" stroke="#9c36b5" stroke-width="2" marker-end="url(#arrowhead)"/>
<text x="386" y="810" text-anchor="middle" dominant-baseline="central" font-family="sans-serif" font-size="14" fill="#1e1e1e">runs against</text>
<path d="M380 812L350 812L350 1032L320 1032" fill="none" stroke="#9c36b5" stroke-width="2" marker-end="url(#arrowhead)"/>
<text x="398" y="920" text-anchor="middle" dominant-baseline="central" font-family="sans-serif" font-size="14" fill="#1e1e1e">dot layout</text>
<path d="M443 864L443 922L457 922L457 980" fill="none" stroke="#2f9e44" stroke-width="2" marker-end="url(#arrowhead)" stroke-dasharray="5,5"/>
<text x="483" y="891" text-anchor="middle" dominant-baseline="central" font-family="sans-serif" font-size="14" fill="#1e1e1e">validate</text>
<path d="M497 864L497 1032L191 1032L191 1200" fill="none" stroke="#f08c00" stroke-width="2" marker-end="url(#arrowhead)"/>
<text x="392" y="1030" text-anchor="middle" dominant-baseline="central" font-family="sans-serif" font-size="14" fill="#1e1e1e">write JSON</text>
<path d="M416 864L412 1200" fill="none" stroke="#e03131" stroke-width="2" marker-end="url(#arrowhead)"/>
<text x="478" y="1030" text-anchor="middle" dominant-baseline="central" font-family="sans-serif" font-size="14" fill="#1e1e1e">encrypt + POST</text>
<path d="M600 1032L630 1032L630 1240L660 1240" fill="none" stroke="#f08c00" stroke-width="2" marker-end="url(#arrowhead)"/>
<text x="674" y="1134" text-anchor="middle" dominant-baseline="central" font-family="sans-serif" font-size="14" fill="#1e1e1e">renderSvg</text>
<path d="M840 1032L890 1032L890 1240L940 1240" fill="none" stroke="#f08c00" stroke-width="2" marker-end="url(#arrowhead)"/>
<text x="934" y="1134" text-anchor="middle" dominant-baseline="central" font-family="sans-serif" font-size="14" fill="#1e1e1e">rasterize</text>
<path d="M600 1016L660 1016" fill="none" stroke="#fd7e14" stroke-width="2" marker-end="url(#arrowhead)"/>
<text x="674" y="1014" text-anchor="middle" dominant-baseline="central" font-family="sans-serif" font-size="14" fill="#1e1e1e">SVG bytes</text>
<path d="M940 372L610 372L610 812L280 812" fill="none" stroke="#c92a2a" stroke-width="2" marker-end="url(#arrowhead)" stroke-dasharray="5,5"/>
<text x="670" y="590" text-anchor="middle" dominant-baseline="central" font-family="sans-serif" font-size="14" fill="#1e1e1e">same executor</text>
<rect x="70" y="50" width="1060" height="160" fill="none" stroke="#868e96" stroke-width="1" stroke-dasharray="5,5" rx="8" opacity="0.4"/>
<text x="130" y="65" text-anchor="middle" dominant-baseline="central" font-family="sans-serif" font-size="14" fill="#868e96">MCP Clients</text>
<rect x="70" y="930" width="800" height="184" fill="none" stroke="#868e96" stroke-width="1" stroke-dasharray="5,5" rx="8" opacity="0.4"/>
<text x="130" y="945" text-anchor="middle" dominant-baseline="central" font-family="sans-serif" font-size="14" fill="#868e96">Layout &amp; Rendering</text>
<rect x="70" y="1150" width="1000" height="184" fill="none" stroke="#868e96" stroke-width="1" stroke-dasharray="5,5" rx="8" opacity="0.4"/>
<text x="130" y="1165" text-anchor="middle" dominant-baseline="central" font-family="sans-serif" font-size="14" fill="#868e96">Outputs</text>
</svg>