<svg version="1.1" xmlns="http://www.w3.org/2000/svg" viewBox="0 0 1121.6 1254" width="1121.6" height="1254">
  <!-- svg-source:excalidraw -->
  
  <defs>
    <style class="style-fonts">
      @font-face {
        font-family: "Virgil";
        src: url("https://unpkg.com/@excalidraw/excalidraw@undefined/dist/excalidraw-assets/Virgil.woff2");
      }
      @font-face {
        font-family: "Cascadia";
        src: url("https://unpkg.com/@excalidraw/excalidraw@undefined/dist/excalidraw-assets/Cascadia.woff2");
      }
      @font-face {
        font-family: "Assistant";
        src: url("https://unpkg.com/@excalidraw/excalidraw@undefined/dist/excalidraw-assets/Assistant-Regular.woff2");
      }
    </style>
    
  </defs>
  <rect x="0" y="0" width="1121.6" height="1254" fill="#ffffff"/><g stroke-linecap="round" transform="translate(621.6 10) rotate(0 90 52)"><path d="M91.79 -0.91 C104.39 -1.47, 120.04 1.93, 131.7 5.63 C143.36 9.33, 154.1 15.12, 161.73 21.28 C169.35 27.43, 174.99 35.13, 177.45 42.56 C179.92 49.99, 179.75 58.54, 176.51 65.87 C173.28 73.2, 166.22 80.86, 158.03 86.53 C149.85 92.19, 139.01 96.91, 127.41 99.85 C115.8 102.78, 101.52 104.54, 88.4 104.14 C75.28 103.74, 60.56 100.83, 48.68 97.46 C36.79 94.09, 25.05 89.88, 17.1 83.94 C9.16 77.99, 3.56 69.29, 1.02 61.78 C-1.52 54.26, -1.52 46.13, 1.87 38.83 C5.25 31.53, 12.6 23.71, 21.33 17.97 C30.06 12.23, 39.91 7.05, 54.23 4.37 C68.55 1.69, 96.04 1.88, 107.23 1.87 C118.42 1.86, 121.55 3.7, 121.37 4.32 M92.63 0.48 C105.31 -0.04, 122.48 3.03, 134.04 6.67 C145.59 10.31, 154.33 16.58, 161.97 22.35 C169.61 28.12, 177.41 34.01, 179.89 41.29 C182.38 48.58, 180.45 58.6, 176.88 66.05 C173.31 73.51, 166.97 80.27, 158.49 86.03 C150.01 91.79, 138.26 97.75, 125.99 100.6 C113.73 103.44, 98.07 103.6, 84.9 103.12 C71.74 102.63, 58.3 101.12, 46.99 97.69 C35.68 94.27, 24.77 88.83, 17.03 82.56 C9.29 76.28, 2.9 67.6, 0.55 60.04 C-1.81 52.48, -0.83 44.34, 2.92 37.2 C6.67 30.06, 14.59 22.46, 23.05 17.2 C31.52 11.95, 41.8 8.69, 53.72 5.65 C65.64 2.6, 87.86 -0.27, 94.57 -1.05 C101.29 -1.82, 94.23 -0.25, 94.02 0.99" stroke="none" stroke-width="0" fill="#e599f7"/><path d="M91.21 -0.99 C103.48 -1.65, 118.35 2.61, 129.87 5.95 C141.39 9.29, 152.38 13.16, 160.34 19.06 C168.3 24.95, 174.71 33.74, 177.64 41.3 C180.58 48.86, 180.88 57.32, 177.93 64.42 C174.99 71.51, 168.31 77.94, 159.98 83.87 C151.65 89.8, 139.69 96.48, 127.95 99.98 C116.22 103.49, 102.62 105, 89.56 104.91 C76.5 104.81, 61.31 103.02, 49.59 99.4 C37.87 95.78, 27.28 89.26, 19.23 83.18 C11.18 77.1, 4.19 70.15, 1.3 62.93 C-1.59 55.71, -1.31 47.16, 1.89 39.86 C5.09 32.57, 12.33 24.94, 20.49 19.16 C28.64 13.37, 38.18 8.2, 50.81 5.17 C63.43 2.14, 87.56 1.61, 96.23 1 C104.9 0.39, 102.68 0.79, 102.83 1.52 M57.59 3.99 C68.71 0.85, 85.4 -1.18, 98.44 -0.8 C111.49 -0.42, 124.6 2, 135.87 6.29 C147.13 10.58, 158.68 18.2, 166.02 24.95 C173.37 31.7, 178.63 39.42, 179.96 46.8 C181.29 54.18, 178.4 62.28, 174.02 69.24 C169.63 76.19, 162.39 83.08, 153.66 88.53 C144.92 93.98, 133.83 99.42, 121.59 101.94 C109.35 104.46, 93.38 104.72, 80.24 103.67 C67.09 102.61, 53.82 99.61, 42.7 95.63 C31.57 91.64, 20.71 85.87, 13.48 79.76 C6.24 73.64, 0.66 66.47, -0.73 58.95 C-2.13 51.42, 0.8 41.76, 5.11 34.62 C9.41 27.49, 16.31 21.39, 25.11 16.13 C33.92 10.86, 52.16 4.97, 57.93 3.03 C63.69 1.1, 59.25 3.52, 59.69 4.5" stroke="#9c36b5" stroke-width="2" fill="none"/></g><g transform="translate(631.6 52) rotate(0 80 10)"><text x="80" y="0" font-family="Virgil, Segoe UI Emoji" font-size="16px" fill="#9c36b5" text-anchor="middle" style="white-space: pre;" direction="ltr" dominant-baseline="text-before-edge">LLM</text><text x="80" y="20" font-family="Virgil, Segoe UI Emoji" font-size="16px" fill="#9c36b5" text-anchor="middle" style="white-space: pre;" direction="ltr" dominant-baseline="text-before-edge">(Claude, etc.)</text></g><g stroke-linecap="round" transform="translate(621.6 230) rotate(0 90 52)"><path d="M26 0 C56.68 1.84, 93.73 -0.08, 154 0 C174.59 0.85, 177.89 9.22, 180 26 C180.46 46.1, 179.58 63.07, 180 78 C182.73 94.79, 170.41 105.72, 154 104 C124.09 107.18, 87.5 102.04, 26 104 C10.2 106.22, -0.34 91.77, 0 78 C-1.5 56.47, 0.68 39.3, 0 26 C-2.72 8.71, 7.05 0.4, 26 0" stroke="none" stroke-width="0" fill="#ffa8a8"/><path d="M26 0 C63.99 2.02, 106.14 0.01, 154 0 M26 0 C69.17 -1.21, 112.42 -0.98, 154 0 M154 0 C170.05 -0.5, 181.7 8.81, 180 26 M154 0 C172.31 1.21, 179.79 9.4, 180 26 M180 26 C180.06 42.34, 180.2 57.26, 180 78 M180 26 C179.76 39.91, 179.44 56.62, 180 78 M180 78 C179.61 94.72, 172.87 105.33, 154 104 M180 78 C180.01 94.3, 172.07 102.81, 154 104 M154 104 C116.16 106.23, 78.97 104.57, 26 104 M154 104 C113.08 103.25, 72.68 103.42, 26 104 M26 104 C7.33 103.78, -1.73 96.69, 0 78 M26 104 C8.62 102.97, -1.81 93.06, 0 78 M0 78 C-0.3 61.25, -1.35 45.3, 0 26 M0 78 C-0.04 64.59, -1.2 53.09, 0 26 M0 26 C0.99 8.51, 10.23 -1.86, 26 0 M0 26 C1.48 10.24, 7.58 0.14, 26 0" stroke="#c92a2a" stroke-width="2" fill="none"/></g><g transform="translate(631.6 272) rotate(0 80 10)"><text x="80" y="0" font-family="Virgil, Segoe UI Emoji" font-size="16px" fill="#c92a2a" text-anchor="middle" style="white-space: pre;" direction="ltr" dominant-baseline="text-before-edge">MCP Server</text><text x="80" y="20" font-family="Virgil, Segoe UI Emoji" font-size="16px" fill="#c92a2a" text-anchor="middle" style="white-space: pre;" direction="ltr" dominant-baseline="text-before-edge">(index.ts)</text></g><g stroke-linecap="round" transform="translate(621.6 450) rotate(0 90 52)"><path d="M26 0 C54.56 -3.5, 87.76 1.98, 154 0 C172.32 2.66, 178.64 6.32, 180 26 C181.57 41.9, 177.31 65.13, 180 78 C182.77 95.1, 170.67 103.48, 154 104 C114.2 105.2, 75.69 103.4, 26 104 C5.71 106.6, -0.49 95.52, 0 78 C-0.1 63.02, -1.88 57.02, 0 26 C-2.15 6.72, 6.67 -1.87, 26 0" stroke="none" stroke-width="0" fill="#d0bfff"/><path d="M26 0 C51.31 2.65, 80.67 2.25, 154 0 M26 0 C55.21 0.65, 86.38 1.86, 154 0 M154 0 C172.82 0.37, 179.38 7.14, 180 26 M154 0 C172.49 0.41, 180.26 10.77, 180 26 M180 26 C180.48 39.97, 180.98 55.84, 180 78 M180 26 C180.56 37.39, 180.27 47.38, 180 78 M180 78 C179.68 95.7, 172.32 105.13, 154 104 M180 78 C179.26 97.07, 173.19 104.63, 154 104 M154 104 C106.13 101.55, 60.17 102.43, 26 104 M154 104 C111.43 104.89, 68.64 104.56, 26 104 M26 104 C9.82 104.69, 0.88 97.03, 0 78 M26 104 C8.2 104.36, -1.04 97.33, 0 78 M0 78 C2.28 63.59, 0.93 45.17, 0 26 M0 78 C0.2 59.7, -0.09 44.17, 0 26 M0 26 C-1.69 6.75, 9.76 0.21, 26 0 M0 26 C-2.27 6.85, 10.91 1.14, 26 0" stroke="#7048e8" stroke-width="2" fill="none"/></g><g transform="translate(631.6 492) rotate(0 80 10)"><text x="80" y="0" font-family="Virgil, Segoe UI Emoji" font-size="16px" fill="#7048e8" text-anchor="middle" style="white-space: pre;" direction="ltr" dominant-baseline="text-before-edge">Executor</text><text x="80" y="20" font-family="Virgil, Segoe UI Emoji" font-size="16px" fill="#7048e8" text-anchor="middle" style="white-space: pre;" direction="ltr" dominant-baseline="text-before-edge">(new Function)</text></g><g stroke-linecap="round" transform="translate(621.6 670) rotate(0 90 52)"><path d="M26 0 C58.29 -2.24, 92.69 0.9, 154 0 C170.11 0.51, 177.74 11.87, 180 26 C182.73 42, 180.29 55.83, 180 78 C177.1 94.24, 169.45 101.48, 154 104 C106.08 103.97, 54.57 101.36, 26 104 C12.06 105.79, -1.93 94.17, 0 78 C3.69 55.31, 1.09 40.84, 0 26 C2.54 7.41, 9.99 3.48, 26 0" stroke="none" stroke-width="0" fill="#d0bfff"/><path d="M26 0 C62.57 0.61, 98.99 -1.84, 154 0 M26 0 C67.68 -1.94, 107.23 -0.52, 154 0 M154 0 C173.09 -1.42, 179.25 8.03, 180 26 M154 0 C169.3 1.07, 179.39 9.04, 180 26 M180 26 C181.12 37.71, 182.48 47.86, 180 78 M180 26 C180.79 43.65, 179.9 62.52, 180 78 M180 78 C181.67 93.79, 172.01 103.58, 154 104 M180 78 C180.86 93.24, 173.03 103.69, 154 104 M154 104 C127.53 102.13, 97.56 104.63, 26 104 M154 104 C114.45 104.07, 73.73 102.52, 26 104 M26 104 C8.84 103.39, -1.01 95.64, 0 78 M26 104 C8.73 105.77, -1.98 95.92, 0 78 M0 78 C-1.67 65.83, -0.99 56.53, 0 26 M0 78 C0.61 61.08, 0.55 45.28, 0 26 M0 26 C1.52 7.38, 8.31 -1.07, 26 0 M0 26 C0.35 7.48, 6.65 -0.42, 26 0" stroke="#7048e8" stroke-width="2" fill="none"/></g><g transform="translate(631.6 712) rotate(0 80 10)"><text x="80" y="0" font-family="Virgil, Segoe UI Emoji" font-size="16px" fill="#7048e8" text-anchor="middle" style="white-space: pre;" direction="ltr" dominant-baseline="text-before-edge">Diagram SDK</text><text x="80" y="20" font-family="Virgil, Segoe UI Emoji" font-size="16px" fill="#7048e8" text-anchor="middle" style="white-space: pre;" direction="ltr" dominant-baseline="text-before-edge">(sdk.ts)</text></g><g stroke-linecap="round" transform="translate(341.6 890) rotate(0 90 52)"><path d="M26 0 C71.06 0.55, 111.49 -4.67, 154 0 C171.96 0.55, 179.33 11.07, 180 26 C178.09 36.53, 178.55 46.24, 180 78 C179.54 94.11, 168.16 102.08, 154 104 C125.29 102.41, 99.77 103.63, 26 104 C7.01 106.31, 2.96 98.23, 0 78 C0.86 65.39, 0.52 52.24, 0 26 C-1.11 9.06, 10.88 1.24, 26 0" stroke="none" stroke-width="0" fill="#b2f2bb"/><path d="M26 0 C52.91 2.19, 84.75 1.83, 154 0 M26 0 C60.76 -0.7, 95.31 0.08, 154 0 M154 0 C173.31 -0.52, 180.79 9.84, 180 26 M154 0 C172.46 -1.91, 178.63 9.13, 180 26 M180 26 C181.31 42.64, 180.08 61.25, 180 78 M180 26 C179.92 42.58, 180.2 58.42, 180 78 M180 78 C179.85 97.1, 170.46 105.49, 154 104 M180 78 C180.34 96.12, 172.65 105.03, 154 104 M154 104 C109.66 105.67, 63.31 102.71, 26 104 M154 104 C110.34 103.5, 67.58 104.33, 26 104 M26 104 C7.57 105.71, -1.82 94.98, 0 78 M26 104 C10.92 101.89, -1.58 94.06, 0 78 M0 78 C-1.78 65.81, 1.03 49.5, 0 26 M0 78 C-0.8 62.94, -0.42 49.13, 0 26 M0 26 C0.43 9.56, 7.36 0.16, 26 0 M0 26 C-0.16 8.18, 10.9 -1.42, 26 0" stroke="#2f9e44" stroke-width="2" fill="none"/></g><g transform="translate(351.6 932) rotate(0 80 10)"><text x="80" y="0" font-family="Virgil, Segoe UI Emoji" font-size="16px" fill="#2f9e44" text-anchor="middle" style="white-space: pre;" direction="ltr" dominant-baseline="text-before-edge">Graphviz WASM</text><text x="80" y="20" font-family="Virgil, Segoe UI Emoji" font-size="16px" fill="#2f9e44" text-anchor="middle" style="white-space: pre;" direction="ltr" dominant-baseline="text-before-edge">(layout.ts)</text></g><g stroke-linecap="round" transform="translate(621.6 890) rotate(0 90 52)"><path d="M26 0 C72.81 -5.55, 118.27 -3.57, 154 0 C173.16 -3.19, 177.91 8.81, 180 26 C181.51 41.15, 183.26 60.36, 180 78 C183.06 96.15, 173.26 101.22, 154 104 C125.85 103.83, 93.32 104.13, 26 104 C9.73 103.63, 3.53 94.34, 0 78 C1.28 62.82, -2.67 48.71, 0 26 C-0.08 8.12, 5.81 2.73, 26 0" stroke="none" stroke-width="0" fill="#ffec99"/><path d="M26 0 C60.64 -1.68, 95.94 1.56, 154 0 M26 0 C76.82 0.04, 127.56 0.3, 154 0 M154 0 C169.96 0.16, 180.79 9.26, 180 26 M154 0 C172.72 -0.19, 178.49 7.4, 180 26 M180 26 C178.63 37.98, 180.65 53.91, 180 78 M180 26 C180.81 39.73, 180.18 52.44, 180 78 M180 78 C180.97 93.59, 173.33 103.96, 154 104 M180 78 C181.44 94.82, 169.52 105.12, 154 104 M154 104 C106.46 103.85, 57.75 102.11, 26 104 M154 104 C116.11 103.57, 80.52 104.62, 26 104 M26 104 C7.93 104.54, 0.26 94.46, 0 78 M26 104 C6.78 102.16, -1.86 97.56, 0 78 M0 78 C1.24 62.21, 1.65 43.26, 0 26 M0 78 C-0.59 66.5, -0.14 55.76, 0 26 M0 26 C-0.98 9.86, 8.5 1.09, 26 0 M0 26 C1.04 10.7, 6.98 1.29, 26 0" stroke="#f08c00" stroke-width="2" fill="none"/></g><g transform="translate(631.6 932) rotate(0 80 10)"><text x="80" y="0" font-family="Virgil, Segoe UI Emoji" font-size="16px" fill="#f08c00" text-anchor="middle" style="white-space: pre;" direction="ltr" dominant-baseline="text-before-edge">Zig WASM</text><text x="80" y="20" font-family="Virgil, Segoe UI Emoji" font-size="16px" fill="#f08c00" text-anchor="middle" style="white-space: pre;" direction="ltr" dominant-baseline="text-before-edge">(validate)</text></g><g stroke-linecap="round" transform="translate(61.60000000000002 890) rotate(0 90 52)"><path d="M26 0 C65.4 -1.73, 106.92 0.05, 154 0 C169.51 -2.13, 179.11 8.01, 180 26 C178.48 42.28, 180.38 59.32, 180 78 C179.44 96.75, 172.99 103.43, 154 104 C112.66 99.98, 78.37 100.15, 26 104 C10.81 106.05, 2.82 97.22, 0 78 C1.64 58.37, -0.65 36.17, 0 26 C1.49 8.7, 5.87 0.48, 26 0" stroke="none" stroke-width="0" fill="#ffc9c9"/><path d="M26 0 C50.58 1.91, 79.57 -0.45, 154 0 M26 0 C76.58 0.13, 125.95 1.74, 154 0 M154 0 C171.52 0.39, 180.74 9.94, 180 26 M154 0 C172.75 -1.11, 181.45 7.73, 180 26 M180 26 C179.67 41.55, 180.65 56.47, 180 78 M180 26 C179.73 46.34, 179 67.21, 180 78 M180 78 C179.9 94.22, 169.91 104.76, 154 104 M180 78 C181.5 93.7, 170.3 103.82, 154 104 M154 104 C108.03 105.18, 61.34 104.38, 26 104 M154 104 C119.5 103.15, 86.2 103.07, 26 104 M26 104 C7.82 103.15, 0.52 95.67, 0 78 M26 104 C6.6 103.46, -1.9 93.58, 0 78 M0 78 C0.54 59.32, 0.59 41.29, 0 26 M0 78 C0.78 66.95, -0.96 55.97, 0 26 M0 26 C-1.67 9.29, 7.33 -1.9, 26 0 M0 26 C1.1 10.29, 6.67 -1.42, 26 0" stroke="#e03131" stroke-width="2" fill="none"/></g><g transform="translate(71.60000000000002 932) rotate(0 80 10)"><text x="80" y="0" font-family="Virgil, Segoe UI Emoji" font-size="16px" fill="#e03131" text-anchor="middle" style="white-space: pre;" direction="ltr" dominant-baseline="text-before-edge">Upload</text><text x="80" y="20" font-family="Virgil, Segoe UI Emoji" font-size="16px" fill="#e03131" text-anchor="middle" style="white-space: pre;" direction="ltr" dominant-baseline="text-before-edge">(upload.ts)</text></g><g stroke-linecap="round" transform="translate(901.6 890) rotate(0 90 52)"><path d="M26 0 C59.47 -2.87, 97.1 -0.42, 154 0 C167.82 0.7, 180.9 6.34, 180 26 C182.37 38.17, 182.86 59.5, 180 78 C181.19 95.65, 170.31 100.43, 154 104 C105.7 104.83, 61.57 102.3, 26 104 C11.3 106.82, -0.73 94.22, 0 78 C-1.49 57.68, -1.15 47.37, 0 26 C2.07 8.5, 7.24 2.45, 26 0" stroke="none" stroke-width="0" fill="#ffe8cc"/><path d="M26 0 C73.37 0.53, 122.79 2.04, 154 0 M26 0 C51.88 -1.29, 80.45 -0.94, 154 0 M154 0 C170.57 1.11, 179.15 10.23, 180 26 M154 0 C169.59 1.32, 179.14 9.43, 180 26 M180 26 C179.06 44.97, 177.94 64.47, 180 78 M180 26 C179.24 36.46, 179.36 47.88, 180 78 M180 78 C181.47 96.9, 170.2 105.15, 154 104 M180 78 C180.26 93.58, 173.36 105.56, 154 104 M154 104 C125.44 102.19, 94 103.77, 26 104 M154 104 C113.72 103.99, 76.06 103.65, 26 104 M26 104 C10.58 102.88, -0.07 96.47, 0 78 M26 104 C7.82 103.23, 0.05 97.16, 0 78 M0 78 C0.91 61.15, 1.55 44.62, 0 26 M0 78 C-0.04 65.61, 1.08 52.17, 0 26 M0 26 C-1.29 10.35, 9 -0.24, 26 0 M0 26 C-2.28 8.66, 8.08 -2.13, 26 0" stroke="#fd7e14" stroke-width="2" fill="none"/></g><g transform="translate(911.6 932) rotate(0 80 10)"><text x="80" y="0" font-family="Virgil, Segoe UI Emoji" font-size="16px" fill="#fd7e14" text-anchor="middle" style="white-space: pre;" direction="ltr" dominant-baseline="text-before-edge">Image Export</text><text x="80" y="20" font-family="Virgil, Segoe UI Emoji" font-size="16px" fill="#fd7e14" text-anchor="middle" style="white-space: pre;" direction="ltr" dominant-baseline="text-before-edge">(png.ts)</text></g><g stroke-linecap="round" transform="translate(61.60000000000002 1110) rotate(0 90 52)"><path d="M26 0 C55.4 4.28, 80.84 -1.15, 154 0 C171.83 1.5, 176.41 6.71, 180 26 C182.81 40.43, 179.75 56.34, 180 78 C179.37 96.35, 173.32 104.49, 154 104 C111.37 107.47, 64.97 103.98, 26 104 C6.8 106.84, 2.09 92.28, 0 78 C-2.52 66.97, -3.06 49.77, 0 26 C-0.35 7.29, 11.58 -2.6, 26 0" stroke="none" stroke-width="0" fill="#a5d8ff"/><path d="M26 0 C72.27 0.39, 120.9 3.02, 154 0 M26 0 C67.42 -0.9, 109.18 -0.06, 154 0 M154 0 C171.1 0.74, 179.56 8.39, 180 26 M154 0 C171.6 -1.67, 180.25 6.39, 180 26 M180 26 C180.51 40.64, 181.38 57.64, 180 78 M180 26 C180.94 43.97, 179.71 63.53, 180 78 M180 78 C178.13 94.44, 169.8 104.77, 154 104 M180 78 C178.14 95.26, 173.49 101.72, 154 104 M154 104 C106.99 103.66, 58.74 101.97, 26 104 M154 104 C111.39 105.92, 67.43 104.46, 26 104 M26 104 C10.61 105.58, -0.87 94.61, 0 78 M26 104 C6.41 105.64, -1.98 96.45, 0 78 M0 78 C1.18 62.14, 1.45 45.89, 0 26 M0 78 C0.25 59.25, 0.44 39.13, 0 26 M0 26 C-0.1 6.99, 8.14 -0.91, 26 0 M0 26 C-1.11 7.35, 10.83 -1.11, 26 0" stroke="#1971c2" stroke-width="2" fill="none"/></g><g transform="translate(71.60000000000002 1152) rotate(0 80 10)"><text x="80" y="0" font-family="Virgil, Segoe UI Emoji" font-size="16px" fill="#1971c2" text-anchor="middle" style="white-space: pre;" direction="ltr" dominant-baseline="text-before-edge">excalidraw.com</text><text x="80" y="20" font-family="Virgil, Segoe UI Emoji" font-size="16px" fill="#1971c2" text-anchor="middle" style="white-space: pre;" direction="ltr" dominant-baseline="text-before-edge">URL</text></g><g stroke-linecap="round" transform="translate(621.6 1110) rotate(0 90 52)"><path d="M26 0 C67.62 0.79, 112.36 2.06, 154 0 C174.74 0.46, 177.28 9.24, 180 26 C181.03 44.38, 177.05 67.65, 180 78 C181.1 94.14, 171.05 107.35, 154 104 C113.73 105.44, 74.88 105.65, 26 104 C5.07 101.51, -1.6 97.01, 0 78 C-1.38 65.42, -2.35 51.98, 0 26 C-3.35 10.33, 9.19 -1.57, 26 0" stroke="none" stroke-width="0" fill="#a5d8ff"/><path d="M26 0 C58.15 0.79, 87.82 -1.17, 154 0 M26 0 C72.47 -0.52, 121.37 0.3, 154 0 M154 0 C171.05 -0.01, 178.61 10.57, 180 26 M154 0 C169.55 -1.04, 178.57 10.13, 180 26 M180 26 C181.95 46.16, 178.56 63.36, 180 78 M180 26 C180 40.45, 179.88 54, 180 78 M180 78 C181.02 97.25, 170.93 105.86, 154 104 M180 78 C182.14 96.58, 172.16 104.18, 154 104 M154 104 C124.48 101.34, 94.25 102.7, 26 104 M154 104 C106.7 103.97, 59.76 104.59, 26 104 M26 104 C10.54 103.19, 0.24 96.31, 0 78 M26 104 C9.6 105.15, 0.48 95.56, 0 78 M0 78 C-0.62 57.77, 0.86 40.23, 0 26 M0 78 C1.2 63.71, -0.39 49.19, 0 26 M0 26 C0.7 8.36, 6.88 -1.88, 26 0 M0 26 C-0.27 10.04, 9.32 -0.33, 26 0" stroke="#1971c2" stroke-width="2" fill="none"/></g><g transform="translate(631.6 1152) rotate(0 80 10)"><text x="80" y="0" font-family="Virgil, Segoe UI Emoji" font-size="16px" fill="#1971c2" text-anchor="middle" style="white-space: pre;" direction="ltr" dominant-baseline="text-before-edge">.excalidraw</text><text x="80" y="20" font-family="Virgil, Segoe UI Emoji" font-size="16px" fill="#1971c2" text-anchor="middle" style="white-space: pre;" direction="ltr" dominant-baseline="text-before-edge">file</text></g><g stroke-linecap="round" transform="translate(901.6 1110) rotate(0 90 52)"><path d="M26 0 C70.3 2.34, 111.16 -0.04, 154 0 C168.01 0.98, 180.46 5.2, 180 26 C178.56 39.11, 182.78 54.08, 180 78 C179.65 95.93, 171.42 103.87, 154 104 C103.03 104.41, 55.35 103.82, 26 104 C7.99 100.84, -1.46 92.22, 0 78 C-3.72 69.92, -1.92 59.17, 0 26 C2.53 8.65, 7.13 3.43, 26 0" stroke="none" stroke-width="0" fill="#a5d8ff"/><path d="M26 0 C76.27 -0.69, 124.15 1.53, 154 0 M26 0 C54.5 -0.93, 84.42 -0.37, 154 0 M154 0 C171.24 0.85, 181.46 10.16, 180 26 M154 0 C170.62 -0.1, 179.83 9.6, 180 26 M180 26 C181.85 37.62, 180.42 51.37, 180 78 M180 26 C179.26 46.8, 179.95 67.34, 180 78 M180 78 C179.3 96.02, 171.91 103.56, 154 104 M180 78 C179.93 95.17, 170.56 101.72, 154 104 M154 104 C124.25 103.16, 93.91 105.05, 26 104 M154 104 C106.81 104.26, 60.85 104.88, 26 104 M26 104 C10.23 102.83, 0.13 96.06, 0 78 M26 104 C7.04 103.39, -0.01 95.09, 0 78 M0 78 C-0.36 59.44, 0.44 41.49, 0 26 M0 78 C0.34 60.73, -0.51 42.71, 0 26 M0 26 C-0.68 9.19, 9.95 1.68, 26 0 M0 26 C0.15 10.61, 10.32 -2.05, 26 0" stroke="#1971c2" stroke-width="2" fill="none"/></g><g transform="translate(911.6 1152) rotate(0 80 10)"><text x="80" y="0" font-family="Virgil, Segoe UI Emoji" font-size="16px" fill="#1971c2" text-anchor="middle" style="white-space: pre;" direction="ltr" dominant-baseline="text-before-edge">PNG / SVG</text><text x="80" y="20" font-family="Virgil, Segoe UI Emoji" font-size="16px" fill="#1971c2" text-anchor="middle" style="white-space: pre;" direction="ltr" dominant-baseline="text-before-edge">file</text></g><g stroke-linecap="round"><g transform="translate(711.6 114) rotate(0 0 58)"><path d="M0 0 C0 19.33, 0 96.67, 0 116 M0 0 C0 19.33, 0 96.67, 0 116" stroke="#c92a2a" stroke-width="2" fill="none"/></g><g transform="translate(711.6 114) rotate(0 0 58)"><path d="M-10.26 87.81 C-6.37 98.49, -2.48 109.18, 0 116 M-10.26 87.81 C-6.5 98.15, -2.74 108.49, 0 116" stroke="#c92a2a" stroke-width="2" fill="none"/></g><g transform="translate(711.6 114) rotate(0 0 58)"><path d="M10.26 87.81 C6.37 98.49, 2.48 109.18, 0 116 M10.26 87.81 C6.5 98.15, 2.74 108.49, 0 116" stroke="#c92a2a" stroke-width="2" fill="none"/></g></g><mask/><g transform="translate(612 160) rotate(0 45.80000000000001 10)"><text x="45.800000000000004" y="0" font-family="Virgil, Segoe UI Emoji" font-size="14px" fill="#1e1e1e" text-anchor="middle" style="white-space: pre;" direction="ltr" dominant-baseline="text-before-edge">draw tool</text></g><g stroke-linecap="round"><g transform="translate(711.6 334) rotate(0 0 58)"><path d="M0 0 C0 19.33, 0 96.67, 0 116 M0 0 C0 19.33, 0 96.67, 0 116" stroke="#7048e8" stroke-width="2" fill="none"/></g><g transform="translate(711.6 334) rotate(0 0 58)"><path d="M-10.26 87.81 C-8.11 93.72, -5.96 99.63, 0 116 M-10.26 87.81 C-6.75 97.46, -3.24 107.1, 0 116" stroke="#7048e8" stroke-width="2" fill="none"/></g><g transform="translate(711.6 334) rotate(0 0 58)"><path d="M10.26 87.81 C8.11 93.72, 5.96 99.63, 0 116 M10.26 87.81 C6.75 97.46, 3.24 107.1, 0 116" stroke="#7048e8" stroke-width="2" fill="none"/></g></g><mask/><g transform="translate(654 380) rotate(0 24.80000000000001 10)"><text x="24.8" y="0" font-family="Virgil, Segoe UI Emoji" font-size="14px" fill="#1e1e1e" text-anchor="middle" style="white-space: pre;" direction="ltr" dominant-baseline="text-before-edge">code</text></g><g stroke-linecap="round"><g transform="translate(711.6 554) rotate(0 0 58)"><path d="M0 0 C0 19.33, 0 96.67, 0 116 M0 0 C0 19.33, 0 96.67, 0 116" stroke="#7048e8" stroke-width="2" fill="none"/></g><g transform="translate(711.6 554) rotate(0 0 58)"><path d="M-10.26 87.81 C-6.58 97.93, -2.9 108.04, 0 116 M-10.26 87.81 C-6.21 98.93, -2.16 110.06, 0 116" stroke="#7048e8" stroke-width="2" fill="none"/></g><g transform="translate(711.6 554) rotate(0 0 58)"><path d="M10.26 87.81 C6.58 97.93, 2.9 108.04, 0 116 M10.26 87.81 C6.21 98.93, 2.16 110.06, 0 116" stroke="#7048e8" stroke-width="2" fill="none"/></g></g><mask/><g transform="translate(595.2 600) rotate(0 54.19999999999999 10)"><text x="54.2" y="0" font-family="Virgil, Segoe UI Emoji" font-size="14px" fill="#1e1e1e" text-anchor="middle" style="white-space: pre;" direction="ltr" dominant-baseline="text-before-edge">Diagram API</text></g><g stroke-linecap="round"><g transform="translate(711.6 774) rotate(0 -140 58)"><path d="M0 0 C0 9.67, 46.67 48.33, 0 58 C-46.67 67.67, -233.33 48.33, -280 58 C-326.67 67.67, -280 106.33, -280 116 M0 0 C0 9.67, 46.67 48.33, 0 58 C-46.67 67.67, -233.33 48.33, -280 58 C-326.67 67.67, -280 106.33, -280 116" stroke="#2f9e44" stroke-width="2" fill="none"/></g><g transform="translate(711.6 774) rotate(0 -140 58)"><path d="M-302.38 97.56 C-295.98 102.84, -289.58 108.11, -280 116 M-302.38 97.56 C-294.67 103.92, -286.95 110.27, -280 116" stroke="#2f9e44" stroke-width="2" fill="none"/></g><g transform="translate(711.6 774) rotate(0 -140 58)"><path d="M-285.29 87.49 C-283.78 95.64, -282.26 103.8, -280 116 M-285.29 87.49 C-283.47 97.31, -281.64 107.14, -280 116" stroke="#2f9e44" stroke-width="2" fill="none"/></g></g><mask/><g transform="translate(571.6 792) rotate(0 33.19999999999999 10)"><text x="33.2" y="0" font-family="Virgil, Segoe UI Emoji" font-size="14px" fill="#1e1e1e" text-anchor="middle" style="white-space: pre;" direction="ltr" dominant-baseline="text-before-edge">layout</text></g><g stroke-linecap="round"><g transform="translate(679.6 774) rotate(0 16 58)"><path d="M0 0 C0 9.67, -5.33 48.33, 0 58 C5.33 67.67, 26.67 48.33, 32 58 C37.33 67.67, 32 106.33, 32 116 M0 0 C0 9.67, -5.33 48.33, 0 58 C5.33 67.67, 26.67 48.33, 32 58 C37.33 67.67, 32 106.33, 32 116" stroke="#f08c00" stroke-width="2" fill="none"/></g><g transform="translate(679.6 774) rotate(0 16 58)"><path d="M23.94 88.14 C25.63 93.99, 27.32 99.84, 32 116 M23.94 88.14 C26.95 98.55, 29.96 108.96, 32 116" stroke="#f08c00" stroke-width="2" fill="none"/></g><g transform="translate(679.6 774) rotate(0 16 58)"><path d="M43.73 89.48 C41.26 95.05, 38.8 100.62, 32 116 M43.73 89.48 C39.35 99.39, 34.96 109.3, 32 116" stroke="#f08c00" stroke-width="2" fill="none"/></g></g><mask/><g transform="translate(770.8000000000001 791) rotate(0 41.60000000000002 10)"><text x="41.6" y="0" font-family="Virgil, Segoe UI Emoji" font-size="14px" fill="#1e1e1e" text-anchor="middle" style="white-space: pre;" direction="ltr" dominant-baseline="text-before-edge">validate</text></g><g stroke-linecap="round"><g transform="translate(743.6 774) rotate(0 -296 58)"><path d="M0 0 C0 9.67, 98.67 48.33, 0 58 C-98.67 67.67, -493.33 48.33, -592 58 C-690.67 67.67, -592 106.33, -592 116 M0 0 C0 9.67, 98.67 48.33, 0 58 C-98.67 67.67, -493.33 48.33, -592 58 C-690.67 67.67, -592 106.33, -592 116" stroke="#e03131" stroke-width="2" fill="none"/></g><g transform="translate(743.6 774) rotate(0 -296 58)"><path d="M-619.46 106.68 C-608.83 110.29, -598.2 113.9, -592 116 M-619.46 106.68 C-612.65 108.99, -605.83 111.31, -592 116" stroke="#e03131" stroke-width="2" fill="none"/></g><g transform="translate(743.6 774) rotate(0 -296 58)"><path d="M-607.05 91.21 C-601.22 100.81, -595.4 110.4, -592 116 M-607.05 91.21 C-603.31 97.36, -599.58 103.51, -592 116" stroke="#e03131" stroke-width="2" fill="none"/></g></g><mask/><g transform="translate(447.6 848) rotate(0 66.80000000000001 10)"><text x="66.80000000000001" y="0" font-family="Virgil, Segoe UI Emoji" font-size="14px" fill="#1e1e1e" text-anchor="middle" style="white-space: pre;" direction="ltr" dominant-baseline="text-before-edge">encrypt + POST</text></g><g stroke-linecap="round"><g transform="translate(695.6 774) rotate(0 148 58)"><path d="M0 0 C0 9.67, -49.33 48.33, 0 58 C49.33 67.67, 246.67 48.33, 296 58 C345.33 67.67, 296 106.33, 296 116 M0 0 C0 9.67, -49.33 48.33, 0 58 C49.33 67.67, 246.67 48.33, 296 58 C345.33 67.67, 296 106.33, 296 116" stroke="#fd7e14" stroke-width="2" fill="none"/></g><g transform="translate(695.6 774) rotate(0 148 58)"><path d="M301.99 87.63 C300.22 96.03, 298.44 104.43, 296 116 M301.99 87.63 C300.34 95.43, 298.7 103.24, 296 116" stroke="#fd7e14" stroke-width="2" fill="none"/></g><g transform="translate(695.6 774) rotate(0 148 58)"><path d="M318.83 98.12 C312.07 103.41, 305.31 108.71, 296 116 M318.83 98.12 C312.55 103.04, 306.27 107.96, 296 116" stroke="#fd7e14" stroke-width="2" fill="none"/></g></g><mask/><g transform="translate(843.6 848) rotate(0 41.60000000000002 10)"><text x="41.6" y="0" font-family="Virgil, Segoe UI Emoji" font-size="14px" fill="#1e1e1e" text-anchor="middle" style="white-space: pre;" direction="ltr" dominant-baseline="text-before-edge">elements</text></g><g stroke-linecap="round"><g transform="translate(727.6 774) rotate(0 -8 168)"><path d="M0 0 C0 28, 2.67 140, 0 168 C-2.67 196, -13.33 140, -16 168 C-18.67 196, -16 308, -16 336 M0 0 C0 28, 2.67 140, 0 168 C-2.67 196, -13.33 140, -16 168 C-18.67 196, -16 308, -16 336" stroke="#1971c2" stroke-width="2" fill="none"/></g><g transform="translate(727.6 774) rotate(0 -8 168)"><path d="M-26.59 307.93 C-22.51 318.73, -18.44 329.54, -16 336 M-26.59 307.93 C-23.19 316.95, -19.79 325.96, -16 336" stroke="#1971c2" stroke-width="2" fill="none"/></g><g transform="translate(727.6 774) rotate(0 -8 168)"><path d="M-6.07 307.69 C-9.89 318.59, -13.71 329.48, -16 336 M-6.07 307.69 C-9.26 316.78, -12.45 325.87, -16 336" stroke="#1971c2" stroke-width="2" fill="none"/></g></g><mask/><g transform="translate(727.6 846) rotate(0 50 10)"><text x="50" y="0" font-family="Virgil, Segoe UI Emoji" font-size="14px" fill="#1e1e1e" text-anchor="middle" style="white-space: pre;" direction="ltr" dominant-baseline="text-before-edge">write JSON</text></g><g stroke-linecap="round"><g transform="translate(151.60000000000002 994) rotate(0 0 58)"><path d="M0 0 C0 19.33, 0 96.67, 0 116 M0 0 C0 19.33, 0 96.67, 0 116" stroke="#1971c2" stroke-width="2" fill="none"/></g><g transform="translate(151.60000000000002 994) rotate(0 0 58)"><path d="M-10.26 87.81 C-7.99 94.05, -5.72 100.29, 0 116 M-10.26 87.81 C-6.76 97.44, -3.25 107.07, 0 116" stroke="#1971c2" stroke-width="2" fill="none"/></g><g transform="translate(151.60000000000002 994) rotate(0 0 58)"><path d="M10.26 87.81 C7.99 94.05, 5.72 100.29, 0 116 M10.26 87.81 C6.76 97.44, 3.25 107.07, 0 116" stroke="#1971c2" stroke-width="2" fill="none"/></g></g><mask/><g transform="translate(10 1040) rotate(0 66.80000000000001 10)"><text x="66.80000000000001" y="0" font-family="Virgil, Segoe UI Emoji" font-size="14px" fill="#1e1e1e" text-anchor="middle" style="white-space: pre;" direction="ltr" dominant-baseline="text-before-edge">shareable link</text></g><g stroke-linecap="round"><g transform="translate(991.6 994) rotate(0 0 58)"><path d="M0 0 C0 19.33, 0 96.67, 0 116 M0 0 C0 19.33, 0 96.67, 0 116" stroke="#1971c2" stroke-width="2" fill="none"/></g><g transform="translate(991.6 994) rotate(0 0 58)"><path d="M-10.26 87.81 C-8.01 94, -5.75 100.2, 0 116 M-10.26 87.81 C-6.59 97.89, -2.92 107.98, 0 116" stroke="#1971c2" stroke-width="2" fill="none"/></g><g transform="translate(991.6 994) rotate(0 0 58)"><path d="M10.26 87.81 C8.01 94, 5.75 100.2, 0 116 M10.26 87.81 C6.59 97.89, 2.92 107.98, 0 116" stroke="#1971c2" stroke-width="2" fill="none"/></g></g><mask/><g transform="translate(833.2 1040) rotate(0 75.19999999999999 10)"><text x="75.2" y="0" font-family="Virgil, Segoe UI Emoji" font-size="14px" fill="#1e1e1e" text-anchor="middle" style="white-space: pre;" direction="ltr" dominant-baseline="text-before-edge">puppeteer render</text></g><g stroke-linecap="round"><g transform="translate(431.6 994) rotate(0 140 -162)"><path d="M0 0 C0 -27, -46.67 -135, 0 -162 C46.67 -189, 233.33 -135, 280 -162 C326.67 -189, 280 -297, 280 -324" stroke="#7048e8" stroke-width="2.5" fill="none" stroke-dasharray="8 10"/></g><g transform="translate(431.6 994) rotate(0 140 -162)"><path d="M295.86 -298.54 C292.26 -304.32, 288.65 -310.11, 280 -324" stroke="#7048e8" stroke-width="2.5" fill="none"/></g><g transform="translate(431.6 994) rotate(0 140 -162)"><path d="M275.78 -294.3 C276.74 -301.05, 277.7 -307.8, 280 -324" stroke="#7048e8" stroke-width="2.5" fill="none"/></g></g><mask/><g transform="translate(571.6 820) rotate(0 45.80000000000001 10)"><text x="45.800000000000004" y="0" font-family="Virgil, Segoe UI Emoji" font-size="14px" fill="#1e1e1e" text-anchor="middle" style="white-space: pre;" direction="ltr" dominant-baseline="text-before-edge">positions</text></g><g stroke-opacity="0.6" fill-opacity="0.6" stroke-linecap="round" transform="translate(591.6 400) rotate(0 120 202)"><path d="M32 0 C79.72 0, 127.44 0, 208 0 M208 0 C229.33 0, 240 10.67, 240 32 M240 32 C240 151.1, 240 270.19, 240 372 M240 372 C240 393.33, 229.33 404, 208 404 M208 404 C166.81 404, 125.61 404, 32 404 M32 404 C10.67 404, 0 393.33, 0 372 M0 372 C0 268.81, 0 165.61, 0 32 M0 32 C0 10.67, 10.67 0, 32 0" stroke="#868e96" stroke-width="1.5" fill="none" stroke-dasharray="8 9"/></g><g stroke-opacity="0.6" fill-opacity="0.6" transform="translate(601.6 405) rotate(0 24.80000000000001 10)"><text x="0" y="0" font-family="Virgil, Segoe UI Emoji" font-size="14px" fill="#868e96" text-anchor="start" style="white-space: pre;" direction="ltr" dominant-baseline="text-before-edge">Core</text></g><g stroke-opacity="0.6" fill-opacity="0.6" stroke-linecap="round" transform="translate(31.600000000000023 840) rotate(0 540 92)"><path d="M32 0 C312.84 0, 593.68 0, 1048 0 M1048 0 C1069.33 0, 1080 10.67, 1080 32 M1080 32 C1080 68.61, 1080 105.21, 1080 152 M1080 152 C1080 173.33, 1069.33 184, 1048 184 M1048 184 C816.53 184, 585.06 184, 32 184 M32 184 C10.67 184, 0 173.33, 0 152 M0 152 C0 113.26, 0 74.52, 0 32 M0 32 C0 10.67, 10.67 0, 32 0" stroke="#868e96" stroke-width="1.5" fill="none" stroke-dasharray="8 9"/></g><g stroke-opacity="0.6" fill-opacity="0.6" transform="translate(41.60000000000002 845) rotate(0 71 10)"><text x="0" y="0" font-family="Virgil, Segoe UI Emoji" font-size="14px" fill="#868e96" text-anchor="start" style="white-space: pre;" direction="ltr" dominant-baseline="text-before-edge">Layout &amp; Export</text></g><g stroke-opacity="0.6" fill-opacity="0.6" stroke-linecap="round" transform="translate(31.600000000000023 1060) rotate(0 540 92)"><path d="M32 0 C303.25 0, 574.51 0, 1048 0 M1048 0 C1069.33 0, 1080 10.67, 1080 32 M1080 32 C1080 78.68, 1080 125.37, 1080 152 M1080 152 C1080 173.33, 1069.33 184, 1048 184 M1048 184 C712.52 184, 377.04 184, 32 184 M32 184 C10.67 184, 0 173.33, 0 152 M0 152 C0 117.99, 0 83.99, 0 32 M0 32 C0 10.67, 10.67 0, 32 0" stroke="#868e96" stroke-width="1.5" fill="none" stroke-dasharray="8 9"/></g><g stroke-opacity="0.6" fill-opacity="0.6" transform="translate(41.60000000000002 1065) rotate(0 37.400000000000006 10)"><text x="0" y="0" font-family="Virgil, Segoe UI Emoji" font-size="14px" fill="#868e96" text-anchor="start" style="white-space: pre;" direction="ltr" dominant-baseline="text-before-edge">Outputs</text></g></svg>