<svg version="1.1" xmlns="http://www.w3.org/2000/svg" viewBox="0 0 1086 989" width="1086" height="989">
  <!-- svg-source:excalidraw -->
  
  <defs>
    <style class="style-fonts">
      @font-face {
        font-family: "Virgil";
        src: url("https://unpkg.com/@excalidraw/excalidraw@undefined/dist/excalidraw-assets/Virgil.woff2");
      }
      @font-face {
        font-family: "Cascadia";
        src: url("https://unpkg.com/@excalidraw/excalidraw@undefined/dist/excalidraw-assets/Cascadia.woff2");
      }
      @font-face {
        font-family: "Assistant";
        src: url("https://unpkg.com/@excalidraw/excalidraw@undefined/dist/excalidraw-assets/Assistant-Regular.woff2");
      }
    </style>
    
  </defs>
  <rect x="0" y="0" width="1086" height="989" fill="#ffffff"/><g stroke-linecap="round" transform="translate(300 10) rotate(0 90 52)"><path d="M59.03 3.66 C70.18 0.26, 86.13 -1.03, 98.81 -0.36 C111.48 0.32, 123.98 3.86, 135.1 7.7 C146.21 11.54, 158.1 16.36, 165.51 22.68 C172.92 28.99, 177.8 38.12, 179.56 45.58 C181.31 53.04, 180.17 60.29, 176.05 67.44 C171.93 74.6, 164.03 83.02, 154.84 88.51 C145.65 93.99, 132.91 97.94, 120.91 100.36 C108.9 102.78, 95.7 103.64, 82.81 103.04 C69.91 102.44, 54.96 100.54, 43.53 96.78 C32.09 93.01, 21.31 86.81, 14.18 80.43 C7.05 74.05, 2.42 65.77, 0.74 58.48 C-0.95 51.18, -0.08 43.67, 4.07 36.67 C8.23 29.66, 14.05 22.57, 25.67 16.45 C37.28 10.34, 63.25 2.47, 73.77 -0.04 C84.29 -2.55, 88.71 0.53, 88.79 1.41 M130.48 6.23 C141.93 9.06, 153.68 15.28, 161.84 21.39 C170.01 27.5, 176.82 35.91, 179.46 42.88 C182.11 49.85, 180.9 56.12, 177.73 63.21 C174.55 70.29, 168.77 79.48, 160.42 85.41 C152.06 91.33, 139.77 95.67, 127.59 98.74 C115.41 101.81, 100.19 104.12, 87.31 103.84 C74.44 103.57, 61.56 100.55, 50.32 97.11 C39.08 93.67, 28.06 89.11, 19.88 83.19 C11.7 77.28, 3.91 69.06, 1.22 61.62 C-1.46 54.17, 0.41 45.68, 3.75 38.52 C7.09 31.36, 12.98 24.28, 21.27 18.66 C29.56 13.05, 41.94 8.14, 53.51 4.85 C65.09 1.56, 77.91 -1.03, 90.71 -1.07 C103.51 -1.11, 123.62 3.41, 130.31 4.61 C136.99 5.81, 131.5 5.22, 130.82 6.16" stroke="none" stroke-width="0" fill="#e599f7"/><path d="M101.77 -0.45 C114.19 -0.13, 128.18 4.79, 139.16 8.88 C150.15 12.96, 160.78 17.65, 167.67 24.08 C174.57 30.5, 179.35 39.72, 180.53 47.43 C181.71 55.15, 179.53 63.34, 174.77 70.36 C170.01 77.39, 161.23 84.26, 151.99 89.58 C142.74 94.91, 131.51 99.86, 119.32 102.29 C107.12 104.72, 91.82 105.19, 78.83 104.19 C65.84 103.18, 52.3 100.6, 41.38 96.25 C30.45 91.91, 20.17 84.48, 13.28 78.1 C6.4 71.72, 1.35 65.43, 0.06 57.97 C-1.24 50.5, 1.1 40.6, 5.52 33.31 C9.94 26.02, 17.23 19.48, 26.55 14.25 C35.88 9.03, 47.99 4.23, 61.49 1.96 C74.98 -0.31, 99.07 0.61, 107.52 0.64 C115.97 0.66, 112.63 1.07, 112.17 2.12 M88.56 0.67 C100.8 -0.1, 116.77 2.89, 128.63 5.89 C140.48 8.89, 151.53 13, 159.67 18.68 C167.82 24.35, 174.44 32.51, 177.49 39.93 C180.54 47.35, 180.92 55.96, 177.98 63.19 C175.03 70.41, 167.66 77.55, 159.81 83.28 C151.96 89, 142.26 94.34, 130.88 97.55 C119.5 100.76, 104.71 102.48, 91.53 102.53 C78.34 102.57, 63.74 100.71, 51.77 97.81 C39.81 94.91, 27.78 90.52, 19.73 85.13 C11.67 79.74, 6.3 72.93, 3.44 65.46 C0.59 58, 0.31 47.86, 2.61 40.34 C4.92 32.82, 9.43 26.23, 17.29 20.34 C25.15 14.45, 38.04 8.34, 49.77 5.02 C61.51 1.69, 81.15 0.98, 87.69 0.39 C94.23 -0.2, 88.95 0.47, 88.99 1.47" stroke="#9c36b5" stroke-width="2" fill="none"/></g><g transform="translate(310 52) rotate(0 80 10)"><text x="80" y="0" font-family="Virgil, Segoe UI Emoji" font-size="16px" fill="#9c36b5" text-anchor="middle" style="white-space: pre;" direction="ltr" dominant-baseline="text-before-edge">LLM</text><text x="80" y="20" font-family="Virgil, Segoe UI Emoji" font-size="16px" fill="#9c36b5" text-anchor="middle" style="white-space: pre;" direction="ltr" dominant-baseline="text-before-edge">(Claude, etc.)</text></g><g stroke-linecap="round" transform="translate(300 217) rotate(0 90 52)"><path d="M26 0 C62.21 -1.56, 96.41 2.8, 154 0 C172.01 -1.87, 181.21 5.49, 180 26 C179 43.91, 178.36 62.07, 180 78 C178.26 98.53, 169.09 105.96, 154 104 C118.57 108.09, 87.47 104.32, 26 104 C7.13 101.88, 0.55 98.91, 0 78 C2.58 64.84, 2.36 48.52, 0 26 C-1.02 9.44, 10.46 -1.52, 26 0" stroke="none" stroke-width="0" fill="#ffa8a8"/><path d="M26 0 C61.88 1.6, 99.75 1.1, 154 0 M26 0 C55.78 -0.48, 86.26 -1.35, 154 0 M154 0 C169.82 0.25, 179.07 10.45, 180 26 M154 0 C173.34 -0.89, 182.13 10.34, 180 26 M180 26 C178.22 40.83, 177.99 53.33, 180 78 M180 26 C181.06 39.65, 180.17 54.05, 180 78 M180 78 C181.42 95.18, 169.48 104.87, 154 104 M180 78 C181.59 93.79, 170.79 106.3, 154 104 M154 104 C119.79 103.74, 90.38 102.77, 26 104 M154 104 C113.88 105.18, 73.61 105.24, 26 104 M26 104 C10.62 102.09, 0.39 96.75, 0 78 M26 104 C10.43 104.29, -2.25 94.28, 0 78 M0 78 C1.08 62.58, 1.43 45.57, 0 26 M0 78 C-1.26 66.21, -1.13 55.63, 0 26 M0 26 C-1.02 7.1, 8.21 -0.76, 26 0 M0 26 C-0.18 8.82, 10.96 -1.03, 26 0" stroke="#c92a2a" stroke-width="2" fill="none"/></g><g transform="translate(310 259) rotate(0 80 10)"><text x="80" y="0" font-family="Virgil, Segoe UI Emoji" font-size="16px" fill="#c92a2a" text-anchor="middle" style="white-space: pre;" direction="ltr" dominant-baseline="text-before-edge">MCP Server</text><text x="80" y="20" font-family="Virgil, Segoe UI Emoji" font-size="16px" fill="#c92a2a" text-anchor="middle" style="white-space: pre;" direction="ltr" dominant-baseline="text-before-edge">(index.ts)</text></g><g stroke-linecap="round" transform="translate(300 433) rotate(0 90 52)"><path d="M26 0 C62.88 -3.04, 96.35 2.5, 154 0 C169.23 -1.44, 178.33 9.43, 180 26 C177.87 39.03, 180.24 55.95, 180 78 C177.55 98.38, 171.91 103.93, 154 104 C110.92 103.66, 74.15 103.25, 26 104 C9.63 102.56, 0.9 96.27, 0 78 C3.36 57.67, -1 40.99, 0 26 C-1.45 6.18, 6.4 3.31, 26 0" stroke="none" stroke-width="0" fill="#d0bfff"/><path d="M26 0 C57.33 0.22, 92.87 -1.22, 154 0 M26 0 C70.39 -0.71, 117.34 -1.22, 154 0 M154 0 C170.91 -0.79, 178.61 6.98, 180 26 M154 0 C169.9 -1.73, 179.25 7.6, 180 26 M180 26 C182.1 43.86, 181.03 66.68, 180 78 M180 26 C180.47 43.59, 180.15 61.21, 180 78 M180 78 C178.81 97.28, 173.31 105.17, 154 104 M180 78 C182.05 94.48, 171.29 103.47, 154 104 M154 104 C125.44 103.95, 101.16 103.44, 26 104 M154 104 C104.78 103.21, 56.3 102.16, 26 104 M26 104 C8.1 103.78, 1.83 93.72, 0 78 M26 104 C8.67 102.65, 1.76 94.22, 0 78 M0 78 C0.97 61.24, -1.04 44.83, 0 26 M0 78 C-0.95 60.26, -0.73 42.24, 0 26 M0 26 C0.67 6.68, 7.75 0.5, 26 0 M0 26 C1.38 10.75, 8.42 1.32, 26 0" stroke="#7048e8" stroke-width="2" fill="none"/></g><g transform="translate(310 475) rotate(0 80 10)"><text x="80" y="0" font-family="Virgil, Segoe UI Emoji" font-size="16px" fill="#7048e8" text-anchor="middle" style="white-space: pre;" direction="ltr" dominant-baseline="text-before-edge">Executor</text><text x="80" y="20" font-family="Virgil, Segoe UI Emoji" font-size="16px" fill="#7048e8" text-anchor="middle" style="white-space: pre;" direction="ltr" dominant-baseline="text-before-edge">(new Function)</text></g><g stroke-linecap="round" transform="translate(318 640) rotate(0 90 52)"><path d="M26 0 C48.93 -5.28, 76.25 -3.3, 154 0 C170.42 -0.88, 180.42 9.11, 180 26 C179.42 40.21, 176.46 52.88, 180 78 C181.67 97.53, 173.52 102, 154 104 C120.84 104.7, 94.79 106.08, 26 104 C9.72 106.73, -0.09 92.72, 0 78 C2.42 64.02, -2.18 58.72, 0 26 C3.06 11.18, 5.1 -1.01, 26 0" stroke="none" stroke-width="0" fill="#d0bfff"/><path d="M26 0 C54.36 -0.16, 84.45 -1.62, 154 0 M26 0 C72.36 0.72, 119.63 0.94, 154 0 M154 0 C172.48 -0.97, 180.98 9.05, 180 26 M154 0 C172.88 -0.54, 180.9 9.42, 180 26 M180 26 C182.29 39.39, 179.32 53.03, 180 78 M180 26 C180.22 42.83, 181.09 60.99, 180 78 M180 78 C181.57 93.61, 171.96 103.47, 154 104 M180 78 C180 96.35, 170.62 105.37, 154 104 M154 104 C121.67 102.58, 92.87 104.05, 26 104 M154 104 C111 103.07, 68.07 103.95, 26 104 M26 104 C7.77 104.37, 0.18 94.22, 0 78 M26 104 C7.89 103.18, -1.8 93.84, 0 78 M0 78 C-0.92 61.41, -0.55 40.19, 0 26 M0 78 C-1.37 66.62, -0.71 57.15, 0 26 M0 26 C-0.03 6.79, 8.61 1.78, 26 0 M0 26 C-0.72 10.45, 10.33 -1.2, 26 0" stroke="#7048e8" stroke-width="2" fill="none"/></g><g transform="translate(328 682) rotate(0 80 10)"><text x="80" y="0" font-family="Virgil, Segoe UI Emoji" font-size="16px" fill="#7048e8" text-anchor="middle" style="white-space: pre;" direction="ltr" dominant-baseline="text-before-edge">Diagram SDK</text><text x="80" y="20" font-family="Virgil, Segoe UI Emoji" font-size="16px" fill="#7048e8" text-anchor="middle" style="white-space: pre;" direction="ltr" dominant-baseline="text-before-edge">(sdk.ts)</text></g><g stroke-linecap="round" transform="translate(588 433) rotate(0 90 52)"><path d="M26 0 C52.71 -4.31, 85.82 -0.23, 154 0 C174.7 1.63, 177.98 6.95, 180 26 C179.78 41.2, 177.02 64.26, 180 78 C177.96 95.02, 173.22 106.53, 154 104 C113.25 106.05, 71.69 103.24, 26 104 C8.18 101.01, -1.56 97.69, 0 78 C2.25 59, 1.4 39.93, 0 26 C2.17 6.26, 8.86 2.12, 26 0" stroke="none" stroke-width="0" fill="#b2f2bb"/><path d="M26 0 C68.95 0.38, 114.04 -1.44, 154 0 M26 0 C67.91 -0.61, 110.23 -0.25, 154 0 M154 0 C171.45 0.15, 179.94 7.03, 180 26 M154 0 C169.83 -1.04, 181.84 7.35, 180 26 M180 26 C179.46 36.66, 182.41 50.06, 180 78 M180 26 C179.55 43.7, 179.87 62.64, 180 78 M180 78 C179.97 94.25, 169.74 102.65, 154 104 M180 78 C180.99 94.27, 169.09 103.09, 154 104 M154 104 C107.91 103.72, 62.02 101.23, 26 104 M154 104 C117.87 105.05, 83.76 105.29, 26 104 M26 104 C8.12 102.41, -1.12 96.4, 0 78 M26 104 C8.54 101.79, -1.47 94.15, 0 78 M0 78 C-0.26 62.1, 0.34 44.67, 0 26 M0 78 C-0.81 67.16, -0.74 56.77, 0 26 M0 26 C0.05 7.1, 8.98 -0.1, 26 0 M0 26 C0.28 9.7, 10.47 1.65, 26 0" stroke="#2f9e44" stroke-width="2" fill="none"/></g><g transform="translate(598 475) rotate(0 80 10)"><text x="80" y="0" font-family="Virgil, Segoe UI Emoji" font-size="16px" fill="#2f9e44" text-anchor="middle" style="white-space: pre;" direction="ltr" dominant-baseline="text-before-edge">Graphviz WASM</text><text x="80" y="20" font-family="Virgil, Segoe UI Emoji" font-size="16px" fill="#2f9e44" text-anchor="middle" style="white-space: pre;" direction="ltr" dominant-baseline="text-before-edge">(layout)</text></g><g stroke-linecap="round" transform="translate(876 433) rotate(0 90 52)"><path d="M26 0 C60.74 -2.27, 96.65 -2.68, 154 0 C169.28 -0.02, 178.4 10.16, 180 26 C178.63 44.26, 179 63.21, 180 78 C182.22 95.55, 173.25 103.26, 154 104 C107.32 107.5, 58.32 107.99, 26 104 C8.17 103.6, 3.32 96.54, 0 78 C-3.72 61.52, -3.89 42.91, 0 26 C-0.63 7.57, 8.57 3.58, 26 0" stroke="none" stroke-width="0" fill="#ffec99"/><path d="M26 0 C74.04 -1.88, 123.09 -0.75, 154 0 M26 0 C57.19 0.53, 86.77 1.76, 154 0 M154 0 C169.37 0.96, 180.27 7.89, 180 26 M154 0 C173.29 -0.8, 177.87 10.72, 180 26 M180 26 C181.06 41.22, 178.51 56.27, 180 78 M180 26 C179.49 39.11, 179.85 52.85, 180 78 M180 78 C179.77 94.41, 169.49 104.72, 154 104 M180 78 C180.08 95.8, 172.79 105.38, 154 104 M154 104 C101.89 103.25, 52.9 103.15, 26 104 M154 104 C112.24 102.94, 70.53 104.12, 26 104 M26 104 C8.68 105.93, 1.23 93.71, 0 78 M26 104 C6.9 105.99, -1.41 95.58, 0 78 M0 78 C-0.83 64.19, 2.07 46.98, 0 26 M0 78 C0.16 61.84, 0.56 44.45, 0 26 M0 26 C1.17 9.56, 7.8 -0.73, 26 0 M0 26 C-1.3 7.48, 6.49 -0.03, 26 0" stroke="#f08c00" stroke-width="2" fill="none"/></g><g transform="translate(886 475) rotate(0 80 10)"><text x="80" y="0" font-family="Virgil, Segoe UI Emoji" font-size="16px" fill="#f08c00" text-anchor="middle" style="white-space: pre;" direction="ltr" dominant-baseline="text-before-edge">Zig WASM</text><text x="80" y="20" font-family="Virgil, Segoe UI Emoji" font-size="16px" fill="#f08c00" text-anchor="middle" style="white-space: pre;" direction="ltr" dominant-baseline="text-before-edge">(validate)</text></g><g stroke-linecap="round" transform="translate(30 856) rotate(0 90 52)"><path d="M26 0 C71.78 0.58, 123.5 -1.25, 154 0 C174.34 -2.97, 176.74 8.05, 180 26 C177.66 43.25, 177.23 63.01, 180 78 C179.88 98.19, 171.04 106.02, 154 104 C121.37 104.53, 83.58 102.14, 26 104 C8.83 104.46, 1.43 96.21, 0 78 C0.27 64.73, 0.31 47.71, 0 26 C0.98 7.59, 9.83 -1.03, 26 0" stroke="none" stroke-width="0" fill="#a5d8ff"/><path d="M26 0 C70.26 1.04, 112.56 -1.45, 154 0 M26 0 C64.92 1.65, 105.66 1.69, 154 0 M154 0 C170.55 -1.5, 179.08 8.3, 180 26 M154 0 C171.81 2.02, 181.16 8.43, 180 26 M180 26 C181.84 44.08, 179.79 61.2, 180 78 M180 26 C178.98 45.46, 180.39 63.75, 180 78 M180 78 C180.83 93.51, 172.88 105.55, 154 104 M180 78 C180.57 97.61, 173.23 106.3, 154 104 M154 104 C113.08 103.38, 70.44 104.93, 26 104 M154 104 C128.33 105.55, 100.4 105.37, 26 104 M26 104 C7.74 103.35, 1.16 94.46, 0 78 M26 104 C6.53 101.77, -0.79 96.69, 0 78 M0 78 C1.23 64.27, 2.03 53.97, 0 26 M0 78 C0.13 65.16, 0.18 52.52, 0 26 M0 26 C1.97 8.79, 9.43 -1.01, 26 0 M0 26 C1.59 9.55, 10.49 -0.19, 26 0" stroke="#1971c2" stroke-width="2" fill="none"/></g><g transform="translate(40 898) rotate(0 80 10)"><text x="80" y="0" font-family="Virgil, Segoe UI Emoji" font-size="16px" fill="#1971c2" text-anchor="middle" style="white-space: pre;" direction="ltr" dominant-baseline="text-before-edge">excalidraw.com</text><text x="80" y="20" font-family="Virgil, Segoe UI Emoji" font-size="16px" fill="#1971c2" text-anchor="middle" style="white-space: pre;" direction="ltr" dominant-baseline="text-before-edge">URL</text></g><g stroke-linecap="round" transform="translate(318 856) rotate(0 90 52)"><path d="M26 0 C65.27 -0.92, 101.63 1.41, 154 0 C171.53 -0.2, 180.72 7.91, 180 26 C178.63 47.57, 182.14 65.5, 180 78 C181.44 96.19, 168.18 104.28, 154 104 C112.7 103.08, 63.48 104.52, 26 104 C11.82 106.49, 0.42 93.14, 0 78 C-1.32 61.54, -2.96 46.15, 0 26 C-2.26 5.98, 7.2 3.28, 26 0" stroke="none" stroke-width="0" fill="#a5d8ff"/><path d="M26 0 C65.99 -0.46, 104.9 2.34, 154 0 M26 0 C65.1 1.03, 105.91 1, 154 0 M154 0 C172.48 1.29, 179.71 10.46, 180 26 M154 0 C172.94 2.1, 180.53 7.15, 180 26 M180 26 C178.91 47.87, 179.38 67.63, 180 78 M180 26 C178.78 36.65, 179.32 48.02, 180 78 M180 78 C181.91 95.09, 171.87 105.8, 154 104 M180 78 C179.72 95.43, 170.61 104.7, 154 104 M154 104 C109.46 103.71, 61.33 105.08, 26 104 M154 104 C107.31 104.73, 59.35 105.01, 26 104 M26 104 C6.67 103.67, 1.87 97.14, 0 78 M26 104 C9.8 104.52, -0.96 95.15, 0 78 M0 78 C1 58.05, -0.36 38.72, 0 26 M0 78 C-0.86 63.03, 0.52 49.72, 0 26 M0 26 C-0.62 9.97, 8.73 -0.06, 26 0 M0 26 C-0.78 8.01, 8.07 -0.28, 26 0" stroke="#1971c2" stroke-width="2" fill="none"/></g><g transform="translate(328 898) rotate(0 80 10)"><text x="80" y="0" font-family="Virgil, Segoe UI Emoji" font-size="16px" fill="#1971c2" text-anchor="middle" style="white-space: pre;" direction="ltr" dominant-baseline="text-before-edge">.excalidraw +</text><text x="80" y="20" font-family="Virgil, Segoe UI Emoji" font-size="16px" fill="#1971c2" text-anchor="middle" style="white-space: pre;" direction="ltr" dominant-baseline="text-before-edge">.drawmode.ts</text></g><g stroke-linecap="round" transform="translate(606 856) rotate(0 90 52)"><path d="M26 0 C53.07 -3.72, 86.6 -4.07, 154 0 C167.89 -1.12, 180.42 10.43, 180 26 C177.87 43.13, 176.87 55.79, 180 78 C180.46 95.27, 169.24 101.49, 154 104 C105.35 105.32, 54.76 100.32, 26 104 C12.18 104.53, 1.45 93.62, 0 78 C1.84 66.11, -2.35 54.88, 0 26 C-2.97 7.6, 11.99 -0.59, 26 0" stroke="none" stroke-width="0" fill="#a5d8ff"/><path d="M26 0 C65.29 -0.89, 104.05 0.22, 154 0 M26 0 C63.82 0.19, 101.45 0.95, 154 0 M154 0 C169.6 -1.03, 181.07 7.26, 180 26 M154 0 C169.21 -0.07, 180.07 10.59, 180 26 M180 26 C179.38 43.98, 178.16 60.03, 180 78 M180 26 C180.04 42.33, 180.05 60.55, 180 78 M180 78 C181.23 95.98, 170.53 105.41, 154 104 M180 78 C178.84 97.39, 171.46 102.98, 154 104 M154 104 C119.83 105.88, 86.35 104.02, 26 104 M154 104 C120.49 105.06, 85.96 104.07, 26 104 M26 104 C7.66 105.56, -0.13 93.65, 0 78 M26 104 C10.44 103.67, -0.17 96.84, 0 78 M0 78 C-1.38 63.15, -0.19 43.28, 0 26 M0 78 C0.65 57.98, 0.54 38.29, 0 26 M0 26 C-1.33 10.17, 7.27 1.57, 26 0 M0 26 C1.71 8.23, 9.78 -1.12, 26 0" stroke="#1971c2" stroke-width="2" fill="none"/></g><g transform="translate(616 898) rotate(0 80 10)"><text x="80" y="0" font-family="Virgil, Segoe UI Emoji" font-size="16px" fill="#1971c2" text-anchor="middle" style="white-space: pre;" direction="ltr" dominant-baseline="text-before-edge">PNG / SVG</text><text x="80" y="20" font-family="Virgil, Segoe UI Emoji" font-size="16px" fill="#1971c2" text-anchor="middle" style="white-space: pre;" direction="ltr" dominant-baseline="text-before-edge">file</text></g><g stroke-linecap="round"><g transform="translate(390 115) rotate(0 0 45.5)"><path d="M0 0 C0 26.58, 0 53.15, 0 91 M0 0 C0 18.7, 0 37.39, 0 91" stroke="#c92a2a" stroke-width="2" fill="none"/></g><g transform="translate(390 115) rotate(0 0 45.5)"><path d="M-10.26 62.81 C-7.26 71.04, -4.27 79.28, 0 91 M-10.26 62.81 C-8.15 68.6, -6.04 74.39, 0 91" stroke="#c92a2a" stroke-width="2" fill="none"/></g><g transform="translate(390 115) rotate(0 0 45.5)"><path d="M10.26 62.81 C7.26 71.04, 4.27 79.28, 0 91 M10.26 62.81 C8.15 68.6, 6.04 74.39, 0 91" stroke="#c92a2a" stroke-width="2" fill="none"/></g></g><mask/><g transform="translate(381.2 154) rotate(0 45.80000000000001 10)"><text x="45.800000000000004" y="0" font-family="Virgil, Segoe UI Emoji" font-size="14px" fill="#1e1e1e" text-anchor="middle" style="white-space: pre;" direction="ltr" dominant-baseline="text-before-edge">draw tool</text></g><g stroke-linecap="round"><g transform="translate(390 321) rotate(0 0 50)"><path d="M0 0 C0 26.4, 0 52.81, 0 100 M0 0 C0 36.06, 0 72.11, 0 100" stroke="#7048e8" stroke-width="2" fill="none"/></g><g transform="translate(390 321) rotate(0 0 50)"><path d="M-10.26 71.81 C-7.55 79.25, -4.84 86.7, 0 100 M-10.26 71.81 C-6.56 81.97, -2.86 92.14, 0 100" stroke="#7048e8" stroke-width="2" fill="none"/></g><g transform="translate(390 321) rotate(0 0 50)"><path d="M10.26 71.81 C7.55 79.25, 4.84 86.7, 0 100 M10.26 71.81 C6.56 81.97, 2.86 92.14, 0 100" stroke="#7048e8" stroke-width="2" fill="none"/></g></g><mask/><g transform="translate(381.2 360) rotate(0 24.80000000000001 10)"><text x="24.8" y="0" font-family="Virgil, Segoe UI Emoji" font-size="14px" fill="#1e1e1e" text-anchor="middle" style="white-space: pre;" direction="ltr" dominant-baseline="text-before-edge">code</text></g><g stroke-linecap="round"><g transform="translate(394 537) rotate(0 4 45.5)"><path d="M0 0 C1.62 18.38, 3.23 36.75, 8 91 M0 0 C3.05 34.66, 6.09 69.32, 8 91" stroke="#7048e8" stroke-width="2" fill="none"/></g><g transform="translate(394 537) rotate(0 4 45.5)"><path d="M-4.69 63.82 C-2.13 69.31, 0.44 74.79, 8 91 M-4.69 63.82 C0.14 74.17, 4.98 84.52, 8 91" stroke="#7048e8" stroke-width="2" fill="none"/></g><g transform="translate(394 537) rotate(0 4 45.5)"><path d="M15.75 62.02 C14.19 67.87, 12.62 73.72, 8 91 M15.75 62.02 C12.8 73.06, 9.85 84.1, 8 91" stroke="#7048e8" stroke-width="2" fill="none"/></g></g><mask/><g transform="translate(390.8 576) rotate(0 54.20000000000002 10)"><text x="54.2" y="0" font-family="Virgil, Segoe UI Emoji" font-size="14px" fill="#1e1e1e" text-anchor="middle" style="white-space: pre;" direction="ltr" dominant-baseline="text-before-edge">Diagram API</text></g><g stroke-linecap="round"><g transform="translate(353 733) rotate(0 -85 63.5)"><path d="M0 0 C-67.48 50.41, -134.97 100.83, -170 127 M0 0 C-61.8 46.17, -123.59 92.33, -170 127" stroke="#1971c2" stroke-width="2" fill="none"/></g><g transform="translate(353 733) rotate(0 -85 63.5)"><path d="M-153.56 101.91 C-160.08 111.87, -166.61 121.83, -170 127 M-153.56 101.91 C-159.53 111.03, -165.51 120.15, -170 127" stroke="#1971c2" stroke-width="2" fill="none"/></g><g transform="translate(353 733) rotate(0 -85 63.5)"><path d="M-141.27 118.35 C-152.68 121.78, -164.08 125.22, -170 127 M-141.27 118.35 C-151.72 121.49, -162.16 124.64, -170 127" stroke="#1971c2" stroke-width="2" fill="none"/></g></g><mask/><g transform="translate(272.8 783) rotate(0 33.20000000000002 10)"><text x="33.2" y="0" font-family="Virgil, Segoe UI Emoji" font-size="14px" fill="#1e1e1e" text-anchor="middle" style="white-space: pre;" direction="ltr" dominant-baseline="text-before-edge">upload</text></g><g stroke-linecap="round"><g transform="translate(376 744) rotate(0 16 50)"><path d="M0 0 C8.27 25.86, 16.55 51.71, 32 100 M0 0 C8.49 26.54, 16.98 53.07, 32 100" stroke="#1971c2" stroke-width="2" fill="none"/></g><g transform="translate(376 744) rotate(0 16 50)"><path d="M13.64 76.28 C18.38 82.41, 23.13 88.54, 32 100 M13.64 76.28 C18.51 82.57, 23.38 88.87, 32 100" stroke="#1971c2" stroke-width="2" fill="none"/></g><g transform="translate(376 744) rotate(0 16 50)"><path d="M33.18 70.02 C32.88 77.77, 32.57 85.52, 32 100 M33.18 70.02 C32.87 77.98, 32.55 85.93, 32 100" stroke="#1971c2" stroke-width="2" fill="none"/></g></g><mask/><g transform="translate(400 783) rotate(0 29 10)"><text x="29" y="0" font-family="Virgil, Segoe UI Emoji" font-size="14px" fill="#1e1e1e" text-anchor="middle" style="white-space: pre;" direction="ltr" dominant-baseline="text-before-edge">write</text></g><g stroke-linecap="round"><g transform="translate(494 733) rotate(0 69 63.5)"><path d="M0 0 C27.87 25.65, 55.74 51.3, 138 127 M0 0 C38.66 35.58, 77.33 71.16, 138 127" stroke="#1971c2" stroke-width="2" fill="none"/></g><g transform="translate(494 733) rotate(0 69 63.5)"><path d="M110.31 115.46 C115.9 117.79, 121.49 120.12, 138 127 M110.31 115.46 C118.07 118.69, 125.82 121.93, 138 127" stroke="#1971c2" stroke-width="2" fill="none"/></g><g transform="translate(494 733) rotate(0 69 63.5)"><path d="M124.2 100.36 C126.99 105.74, 129.78 111.12, 138 127 M124.2 100.36 C128.07 107.82, 131.93 115.29, 138 127" stroke="#1971c2" stroke-width="2" fill="none"/></g></g><mask/><g transform="translate(543.8 783) rotate(0 33.19999999999999 10)"><text x="33.2" y="0" font-family="Virgil, Segoe UI Emoji" font-size="14px" fill="#1e1e1e" text-anchor="middle" style="white-space: pre;" direction="ltr" dominant-baseline="text-before-edge">render</text></g><g stroke-opacity="0.6" fill-opacity="0.6" stroke-linecap="round" transform="translate(280 388) rotate(0 398 187)"><path d="M32 0 C257.14 0, 482.29 0, 764 0 M764 0 C785.33 0, 796 10.67, 796 32 M796 32 C796 122.44, 796 212.89, 796 342 M796 342 C796 363.33, 785.33 374, 764 374 M764 374 C606.49 374, 448.98 374, 32 374 M32 374 C10.67 374, 0 363.33, 0 342 M0 342 C0 247.01, 0 152.01, 0 32 M0 32 C0 10.67, 10.67 0, 32 0" stroke="#868e96" stroke-width="1.5" fill="none" stroke-dasharray="8 9"/></g><g stroke-opacity="0.6" fill-opacity="0.6" transform="translate(290 393) rotate(0 24.80000000000001 10)"><text x="0" y="0" font-family="Virgil, Segoe UI Emoji" font-size="14px" fill="#868e96" text-anchor="start" style="white-space: pre;" direction="ltr" dominant-baseline="text-before-edge">Core</text></g><g stroke-opacity="0.6" fill-opacity="0.6" stroke-linecap="round" transform="translate(10 811) rotate(0 398 84)"><path d="M32 0 C196.14 0, 360.28 0, 764 0 M764 0 C785.33 0, 796 10.67, 796 32 M796 32 C796 60.99, 796 89.98, 796 136 M796 136 C796 157.33, 785.33 168, 764 168 M764 168 C580.13 168, 396.26 168, 32 168 M32 168 C10.67 168, 0 157.33, 0 136 M0 136 C0 109.74, 0 83.49, 0 32 M0 32 C0 10.67, 10.67 0, 32 0" stroke="#868e96" stroke-width="1.5" fill="none" stroke-dasharray="8 9"/></g><g stroke-opacity="0.6" fill-opacity="0.6" transform="translate(20 816) rotate(0 37.400000000000006 10)"><text x="0" y="0" font-family="Virgil, Segoe UI Emoji" font-size="14px" fill="#868e96" text-anchor="start" style="white-space: pre;" direction="ltr" dominant-baseline="text-before-edge">Outputs</text></g></svg>