<svg version="1.1" xmlns="http://www.w3.org/2000/svg" viewBox="0 0 820 1034" width="820" height="1034">
  <!-- svg-source:excalidraw -->
  
  <defs>
    <style class="style-fonts">
      @font-face {
        font-family: "Virgil";
        src: url("https://unpkg.com/@excalidraw/excalidraw@undefined/dist/excalidraw-assets/Virgil.woff2");
      }
      @font-face {
        font-family: "Cascadia";
        src: url("https://unpkg.com/@excalidraw/excalidraw@undefined/dist/excalidraw-assets/Cascadia.woff2");
      }
      @font-face {
        font-family: "Assistant";
        src: url("https://unpkg.com/@excalidraw/excalidraw@undefined/dist/excalidraw-assets/Assistant-Regular.woff2");
      }
    </style>
    
  </defs>
  <rect x="0" y="0" width="820" height="1034" fill="#ffffff"/><g stroke-linecap="round" transform="translate(320 10) rotate(0 90 52)"><path d="M56.72 3.35 C67.76 -0.05, 82.58 -0.58, 95.67 0.03 C108.76 0.65, 123.83 3.36, 135.25 7.03 C146.67 10.71, 156.77 16.09, 164.18 22.07 C171.58 28.04, 177.62 35.56, 179.68 42.88 C181.73 50.2, 180.21 58.53, 176.5 65.99 C172.78 73.45, 166.32 81.83, 157.38 87.65 C148.43 93.47, 135.02 98.1, 122.83 100.9 C110.63 103.69, 96.96 105.03, 84.21 104.43 C71.46 103.83, 57.74 101.18, 46.33 97.29 C34.93 93.4, 23.29 87.32, 15.78 81.1 C8.27 74.88, 3.17 67.15, 1.27 59.95 C-0.64 52.75, 0.78 45.18, 4.37 37.9 C7.96 30.62, 13.25 22.3, 22.8 16.27 C32.35 10.24, 54.24 4.14, 61.65 1.73 C69.06 -0.68, 66.96 0.91, 67.29 1.82 M66.14 2.12 C77.43 -0.47, 91.81 -0.59, 104.39 0.53 C116.97 1.65, 130.93 4.39, 141.61 8.83 C152.3 13.28, 161.96 20.56, 168.53 27.2 C175.09 33.85, 180.37 41.28, 180.99 48.71 C181.6 56.15, 177.15 64.6, 172.22 71.82 C167.3 79.05, 161.18 86.91, 151.43 92.07 C141.69 97.23, 126.41 100.69, 113.75 102.78 C101.1 104.87, 88.29 106.11, 75.49 104.61 C62.69 103.12, 47.7 98.4, 36.97 93.82 C26.25 89.23, 17.09 83.39, 11.15 77.1 C5.21 70.82, 2.13 63.53, 1.33 56.09 C0.52 48.65, 1.67 39.67, 6.32 32.47 C10.96 25.28, 19.29 17.99, 29.18 12.92 C39.08 7.85, 59.57 3.57, 65.69 2.04 C71.8 0.51, 65.56 2.99, 65.89 3.73" stroke="none" stroke-width="0" fill="#e599f7"/><path d="M119.83 3.6 C131.83 5.42, 144.95 10.35, 154.08 15.55 C163.21 20.75, 170.24 27.66, 174.61 34.81 C178.98 41.95, 181.93 50.91, 180.31 58.4 C178.69 65.9, 172.12 73.54, 164.91 79.77 C157.7 85.99, 147.93 91.77, 137.03 95.75 C126.13 99.72, 112.33 102.61, 99.52 103.62 C86.72 104.63, 72.42 104.35, 60.21 101.81 C48.01 99.26, 35.56 93.83, 26.31 88.34 C17.05 82.85, 8.99 75.87, 4.68 68.84 C0.37 61.81, -1.1 53.68, 0.46 46.18 C2.02 38.67, 6.99 30.33, 14.06 23.8 C21.12 17.27, 31.93 10.93, 42.87 6.98 C53.81 3.02, 66.14 0.4, 79.72 0.07 C93.29 -0.26, 116.19 3.9, 124.33 5.01 C132.47 6.12, 129.08 6.23, 128.54 6.72 M53.31 3.52 C64.01 0.04, 78.74 -0.64, 91.62 -0.5 C104.5 -0.36, 118.99 0.9, 130.59 4.38 C142.19 7.86, 153.3 14.34, 161.2 20.39 C169.1 26.44, 175.29 33.29, 178.01 40.66 C180.73 48.03, 180.69 56.95, 177.53 64.59 C174.38 72.23, 167.36 80.71, 159.1 86.5 C150.83 92.29, 139.68 96.37, 127.96 99.34 C116.25 102.31, 102.19 104.33, 88.81 104.32 C75.43 104.3, 59.22 102.54, 47.68 99.26 C36.14 95.97, 26.99 90.64, 19.58 84.6 C12.17 78.55, 5.82 70.66, 3.2 62.96 C0.59 55.26, 0.89 45.83, 3.88 38.4 C6.87 30.98, 13.13 24.17, 21.13 18.38 C29.14 12.6, 46.6 5.93, 51.9 3.67 C57.19 1.42, 51.98 4.03, 52.9 4.86" stroke="#9c36b5" stroke-width="2" fill="none"/></g><g transform="translate(330 52) rotate(0 80 10)"><text x="80" y="0" font-family="Virgil, Segoe UI Emoji" font-size="16px" fill="#9c36b5" text-anchor="middle" style="white-space: pre;" direction="ltr" dominant-baseline="text-before-edge">LLM</text><text x="80" y="20" font-family="Virgil, Segoe UI Emoji" font-size="16px" fill="#9c36b5" text-anchor="middle" style="white-space: pre;" direction="ltr" dominant-baseline="text-before-edge">(Claude, etc.)</text></g><g stroke-linecap="round" transform="translate(320 230) rotate(0 90 52)"><path d="M26 0 C72.27 0.23, 119.54 -0.34, 154 0 C171.95 -2.19, 178.15 5.62, 180 26 C179.43 43.75, 182.51 66.69, 180 78 C177.34 93.81, 168.37 105.71, 154 104 C113.05 98.55, 75.66 103.28, 26 104 C5.41 107.55, 0.22 92.5, 0 78 C-1.3 65.6, -1.48 51.71, 0 26 C2.09 9.73, 7.07 -3.33, 26 0" stroke="none" stroke-width="0" fill="#ffa8a8"/><path d="M26 0 C78.47 0.28, 125.47 1.16, 154 0 M26 0 C59.43 0.28, 91.23 0.9, 154 0 M154 0 C169.76 0.64, 180.5 7.16, 180 26 M154 0 C172.73 -2.08, 180.08 9.4, 180 26 M180 26 C180.9 41.95, 180.64 55.53, 180 78 M180 26 C180.16 45.5, 179.75 66.71, 180 78 M180 78 C181.92 94.94, 171.88 104.28, 154 104 M180 78 C180.51 97.07, 170.27 105.4, 154 104 M154 104 C123.08 102.24, 96.54 103.95, 26 104 M154 104 C120.19 103.87, 86.83 105.13, 26 104 M26 104 C6.78 104.78, -0.57 96.55, 0 78 M26 104 C6.45 103.03, 0.71 96.9, 0 78 M0 78 C0.99 56.65, 0.88 35.11, 0 26 M0 78 C-1.07 61.31, -0.94 45.7, 0 26 M0 26 C1.59 8.16, 9.14 1.1, 26 0 M0 26 C-0.95 7.95, 7.06 -0.32, 26 0" stroke="#c92a2a" stroke-width="2" fill="none"/></g><g transform="translate(330 272) rotate(0 80 10)"><text x="80" y="0" font-family="Virgil, Segoe UI Emoji" font-size="16px" fill="#c92a2a" text-anchor="middle" style="white-space: pre;" direction="ltr" dominant-baseline="text-before-edge">MCP Server</text><text x="80" y="20" font-family="Virgil, Segoe UI Emoji" font-size="16px" fill="#c92a2a" text-anchor="middle" style="white-space: pre;" direction="ltr" dominant-baseline="text-before-edge">(index.ts)</text></g><g stroke-linecap="round" transform="translate(320 450) rotate(0 90 52)"><path d="M26 0 C57.77 -1.86, 84.4 -3.85, 154 0 C168 2.86, 182.16 9.81, 180 26 C178.59 37.86, 184.02 49.31, 180 78 C179.64 98.78, 174.48 104.89, 154 104 C101.77 102.81, 51.55 105.86, 26 104 C6.28 107.15, -2.02 94.47, 0 78 C2.52 57.1, -0.17 34.55, 0 26 C-3.04 9, 8.7 -3.42, 26 0" stroke="none" stroke-width="0" fill="#d0bfff"/><path d="M26 0 C74.09 -0.1, 122.53 -1.08, 154 0 M26 0 C53.97 1.09, 80.45 0.11, 154 0 M154 0 C172.8 1.04, 180.25 7.32, 180 26 M154 0 C172.24 -1.14, 181.15 8.27, 180 26 M180 26 C179.43 36.79, 180.63 49.57, 180 78 M180 26 C179.15 40.22, 178.58 53.72, 180 78 M180 78 C178.31 94.99, 170.24 105.57, 154 104 M180 78 C179.82 93.57, 170.77 105.34, 154 104 M154 104 C113.98 104.56, 72.18 104.82, 26 104 M154 104 C117.01 102.22, 79.21 103.07, 26 104 M26 104 C10.53 102.7, 1.79 94.01, 0 78 M26 104 C10.33 104.36, 1.42 93.23, 0 78 M0 78 C-0.59 58.3, 1.83 37.31, 0 26 M0 78 C-0.53 64.07, 0.84 48.14, 0 26 M0 26 C1.74 7.98, 6.76 -0.73, 26 0 M0 26 C-1.24 10.35, 8.78 -1.45, 26 0" stroke="#7048e8" stroke-width="2" fill="none"/></g><g transform="translate(330 492) rotate(0 80 10)"><text x="80" y="0" font-family="Virgil, Segoe UI Emoji" font-size="16px" fill="#7048e8" text-anchor="middle" style="white-space: pre;" direction="ltr" dominant-baseline="text-before-edge">Executor</text><text x="80" y="20" font-family="Virgil, Segoe UI Emoji" font-size="16px" fill="#7048e8" text-anchor="middle" style="white-space: pre;" direction="ltr" dominant-baseline="text-before-edge">(new Function)</text></g><g stroke-linecap="round" transform="translate(320 670) rotate(0 90 52)"><path d="M26 0 C52.97 -2.49, 84.01 -3.51, 154 0 C170.17 -3.08, 179.47 6.87, 180 26 C179.44 37.37, 181.01 53.74, 180 78 C176.86 97.18, 174.03 102.19, 154 104 C119.51 102.9, 82.2 105.28, 26 104 C7.18 105.04, 3.28 97.01, 0 78 C0.55 64.99, -3.06 58.13, 0 26 C0.41 9.16, 9.76 -1.01, 26 0" stroke="none" stroke-width="0" fill="#d0bfff"/><path d="M26 0 C56.33 -0.5, 89.51 1.33, 154 0 M26 0 C71.06 -0.07, 116.54 -0.39, 154 0 M154 0 C170.53 0.8, 178.46 9.13, 180 26 M154 0 C171.99 -2.03, 179 8.03, 180 26 M180 26 C180.77 37.91, 178.32 52.67, 180 78 M180 26 C180.94 40.02, 180.39 55.49, 180 78 M180 78 C178.32 94.95, 169.98 105.08, 154 104 M180 78 C181.97 97.04, 173 102.58, 154 104 M154 104 C112.02 106.6, 73.19 103.77, 26 104 M154 104 C115.09 104.43, 76.96 103.49, 26 104 M26 104 C6.98 103.47, -1.21 96.48, 0 78 M26 104 C8.1 105.5, -1.03 95.43, 0 78 M0 78 C2.3 57.61, 1.39 36.37, 0 26 M0 78 C0.23 61.46, 0.03 47.57, 0 26 M0 26 C-0.31 8.1, 10.43 -1.2, 26 0 M0 26 C-0.78 9.53, 8.77 1.48, 26 0" stroke="#7048e8" stroke-width="2" fill="none"/></g><g transform="translate(330 712) rotate(0 80 10)"><text x="80" y="0" font-family="Virgil, Segoe UI Emoji" font-size="16px" fill="#7048e8" text-anchor="middle" style="white-space: pre;" direction="ltr" dominant-baseline="text-before-edge">Diagram SDK</text><text x="80" y="20" font-family="Virgil, Segoe UI Emoji" font-size="16px" fill="#7048e8" text-anchor="middle" style="white-space: pre;" direction="ltr" dominant-baseline="text-before-edge">(sdk.ts)</text></g><g stroke-linecap="round" transform="translate(40 670) rotate(0 90 52)"><path d="M26 0 C60.02 2.22, 98.24 -1.15, 154 0 C174.52 2.74, 179.93 5.71, 180 26 C177.83 40.78, 183.57 48.95, 180 78 C176.61 92.16, 172.98 101.66, 154 104 C106.22 100.79, 48.56 101.77, 26 104 C12.03 106.84, 0.39 94.68, 0 78 C-2.4 63.96, -3.59 50.57, 0 26 C1.72 11.95, 11.21 1.99, 26 0" stroke="none" stroke-width="0" fill="#b2f2bb"/><path d="M26 0 C60.18 -1.91, 92.06 -0.21, 154 0 M26 0 C53.49 -0.12, 81.49 0.36, 154 0 M154 0 C172.69 -1.76, 178.09 9.99, 180 26 M154 0 C169.73 -0.53, 178.14 9.14, 180 26 M180 26 C178.97 45.23, 179.02 64.96, 180 78 M180 26 C180.12 41.85, 180.88 56.74, 180 78 M180 78 C178.85 95.24, 171.48 104.72, 154 104 M180 78 C180.18 94.45, 169.96 102.42, 154 104 M154 104 C126.8 104.17, 102.41 105.03, 26 104 M154 104 C124.09 103.02, 93.01 103.93, 26 104 M26 104 C7.78 102.89, -1.46 94.53, 0 78 M26 104 C9.55 103.98, 1.64 96.32, 0 78 M0 78 C-0.62 61.62, 1.45 48.1, 0 26 M0 78 C0.22 67.16, 1.48 54.93, 0 26 M0 26 C-1.13 7.42, 10.05 0.05, 26 0 M0 26 C-0.35 9.91, 9.07 -1.55, 26 0" stroke="#2f9e44" stroke-width="2" fill="none"/></g><g transform="translate(50 712) rotate(0 80 10)"><text x="80" y="0" font-family="Virgil, Segoe UI Emoji" font-size="16px" fill="#2f9e44" text-anchor="middle" style="white-space: pre;" direction="ltr" dominant-baseline="text-before-edge">Graphviz WASM</text><text x="80" y="20" font-family="Virgil, Segoe UI Emoji" font-size="16px" fill="#2f9e44" text-anchor="middle" style="white-space: pre;" direction="ltr" dominant-baseline="text-before-edge">(layout)</text></g><g stroke-linecap="round" transform="translate(600 670) rotate(0 90 52)"><path d="M26 0 C54.6 -3.02, 87.82 -0.75, 154 0 C173.9 -1.63, 181.86 12.24, 180 26 C181.1 40.03, 178.2 52.32, 180 78 C181.1 98.22, 174 103.37, 154 104 C126.56 104.33, 102.09 101.41, 26 104 C11.62 104.72, 0.3 95.83, 0 78 C2.26 62.35, -2.46 40.55, 0 26 C1.21 8, 7.53 -1.48, 26 0" stroke="none" stroke-width="0" fill="#ffec99"/><path d="M26 0 C57.27 0.86, 83.18 0.51, 154 0 M26 0 C53.82 -1.08, 82.77 -0.65, 154 0 M154 0 C171.9 1.72, 178.17 9.57, 180 26 M154 0 C171.9 -0.27, 181.3 10.65, 180 26 M180 26 C179.26 42.49, 180.34 57.73, 180 78 M180 26 C179.13 41.48, 180.29 56.96, 180 78 M180 78 C180.24 95.67, 172.54 105.63, 154 104 M180 78 C178.2 97.29, 170.96 103.65, 154 104 M154 104 C105.12 105.53, 57.51 102.12, 26 104 M154 104 C127.84 102.57, 102.29 102.39, 26 104 M26 104 C8.08 104.79, 1.15 94.88, 0 78 M26 104 C9.02 104.58, -1.86 95.33, 0 78 M0 78 C-0.81 66.06, -0.1 56.44, 0 26 M0 78 C-0.49 59.41, -0.26 41.74, 0 26 M0 26 C-0.61 7.97, 7.93 -0.43, 26 0 M0 26 C0.63 8.21, 8.71 0.41, 26 0" stroke="#f08c00" stroke-width="2" fill="none"/></g><g transform="translate(610 712) rotate(0 80 10)"><text x="80" y="0" font-family="Virgil, Segoe UI Emoji" font-size="16px" fill="#f08c00" text-anchor="middle" style="white-space: pre;" direction="ltr" dominant-baseline="text-before-edge">Zig WASM</text><text x="80" y="20" font-family="Virgil, Segoe UI Emoji" font-size="16px" fill="#f08c00" text-anchor="middle" style="white-space: pre;" direction="ltr" dominant-baseline="text-before-edge">(validate)</text></g><g stroke-linecap="round" transform="translate(40 890) rotate(0 90 52)"><path d="M26 0 C54.21 5.16, 80.01 1.29, 154 0 C172.9 2.65, 177.14 10.87, 180 26 C182.29 46.24, 182.32 63.99, 180 78 C180.65 98.58, 168.34 105.46, 154 104 C122.57 106.72, 87.69 107.32, 26 104 C10.93 106.68, -0.42 92.87, 0 78 C-1.9 63.71, -0.23 41.59, 0 26 C-0.27 7.08, 8.55 -2.25, 26 0" stroke="none" stroke-width="0" fill="#a5d8ff"/><path d="M26 0 C57.06 -0.2, 87.1 -0.97, 154 0 M26 0 C59.79 -0.58, 93.94 -0.74, 154 0 M154 0 C170.29 -1.82, 181.17 10.3, 180 26 M154 0 C173.03 1.4, 178.63 10.84, 180 26 M180 26 C181.13 37.68, 180.8 48.32, 180 78 M180 26 C181 40.89, 179.36 54.7, 180 78 M180 78 C179.35 94.49, 172.5 102.24, 154 104 M180 78 C178.6 95.24, 173.15 103.32, 154 104 M154 104 C118.89 102.63, 81.28 102.91, 26 104 M154 104 C128.72 104.89, 103.42 103.95, 26 104 M26 104 C8.9 104.94, -1.2 96.19, 0 78 M26 104 C9.95 102.27, -0.37 97.25, 0 78 M0 78 C-2.31 62.31, 1.24 50.44, 0 26 M0 78 C0.52 64.86, -0.16 51.66, 0 26 M0 26 C-1.7 8.17, 7.76 -1.91, 26 0 M0 26 C-0.72 10.55, 10.33 -1.29, 26 0" stroke="#1971c2" stroke-width="2" fill="none"/></g><g transform="translate(50 932) rotate(0 80 10)"><text x="80" y="0" font-family="Virgil, Segoe UI Emoji" font-size="16px" fill="#1971c2" text-anchor="middle" style="white-space: pre;" direction="ltr" dominant-baseline="text-before-edge">excalidraw.com</text><text x="80" y="20" font-family="Virgil, Segoe UI Emoji" font-size="16px" fill="#1971c2" text-anchor="middle" style="white-space: pre;" direction="ltr" dominant-baseline="text-before-edge">URL</text></g><g stroke-linecap="round" transform="translate(320 890) rotate(0 90 52)"><path d="M26 0 C52.43 -1.65, 78.58 -1.99, 154 0 C172.82 -1.08, 179.53 10.16, 180 26 C181.63 39.05, 182.24 49.04, 180 78 C182.92 94.87, 169.96 101.01, 154 104 C122.07 106.57, 91.6 104.9, 26 104 C11.71 102.17, 1.06 94.02, 0 78 C-1.5 55.26, 0.39 40.96, 0 26 C1.56 6.65, 5.75 -0.08, 26 0" stroke="none" stroke-width="0" fill="#a5d8ff"/><path d="M26 0 C59.21 1.28, 94.59 -1.37, 154 0 M26 0 C56.6 -0.53, 86.61 -1.08, 154 0 M154 0 C172.1 -0.74, 178.48 9.28, 180 26 M154 0 C169.43 -0.56, 181.22 8.83, 180 26 M180 26 C178.71 43.94, 181.52 67.2, 180 78 M180 26 C179.73 44.85, 181.21 64.67, 180 78 M180 78 C179.53 96.28, 170.56 105.39, 154 104 M180 78 C181.85 97.09, 172.89 104.15, 154 104 M154 104 C118.7 104.94, 81.72 103.81, 26 104 M154 104 C122.64 103.72, 90.77 105.02, 26 104 M26 104 C9.32 102.85, 1.17 93.91, 0 78 M26 104 C10.93 104.66, 1.36 95.11, 0 78 M0 78 C-1.02 56.56, 1.27 37.38, 0 26 M0 78 C-0.65 62.15, -0.38 46.76, 0 26 M0 26 C-0.13 10.31, 9.64 1.72, 26 0 M0 26 C-1.31 6.73, 6.96 -2.19, 26 0" stroke="#1971c2" stroke-width="2" fill="none"/></g><g transform="translate(330 932) rotate(0 80 10)"><text x="80" y="0" font-family="Virgil, Segoe UI Emoji" font-size="16px" fill="#1971c2" text-anchor="middle" style="white-space: pre;" direction="ltr" dominant-baseline="text-before-edge">.excalidraw +</text><text x="80" y="20" font-family="Virgil, Segoe UI Emoji" font-size="16px" fill="#1971c2" text-anchor="middle" style="white-space: pre;" direction="ltr" dominant-baseline="text-before-edge">.drawmode.ts</text></g><g stroke-linecap="round" transform="translate(600 890) rotate(0 90 52)"><path d="M26 0 C76.66 -2.94, 124.49 0.08, 154 0 C174.86 1.16, 178.89 10.24, 180 26 C180.76 37.4, 176.63 48.39, 180 78 C178.16 93.21, 168.83 103.72, 154 104 C122.42 103.74, 92.59 107.89, 26 104 C5.67 101.57, -2.36 91.91, 0 78 C1.1 60.94, -3.42 41.4, 0 26 C1.9 7.31, 7.51 -2.17, 26 0" stroke="none" stroke-width="0" fill="#a5d8ff"/><path d="M26 0 C55.03 -1.48, 81.03 -1.19, 154 0 M26 0 C60.73 -1.44, 95.32 -0.88, 154 0 M154 0 C170.21 -1.73, 179.14 9.97, 180 26 M154 0 C169.72 2.02, 179.07 6.39, 180 26 M180 26 C179.79 44.61, 182.07 58.03, 180 78 M180 26 C179.82 46.45, 180.69 66.07, 180 78 M180 78 C180.09 96.12, 173.02 103.19, 154 104 M180 78 C178.31 96.02, 171.36 104.82, 154 104 M154 104 C121.34 104.14, 86.18 105.29, 26 104 M154 104 C121.36 105.02, 89.03 104.08, 26 104 M26 104 C7.48 105.57, -0.31 95.57, 0 78 M26 104 C9.92 105.37, 0.64 95.03, 0 78 M0 78 C2.04 65.06, -0.08 52.63, 0 26 M0 78 C-0.13 63.6, 0.42 49.78, 0 26 M0 26 C1.35 9.16, 9.42 -0.02, 26 0 M0 26 C0.89 6.54, 10.67 -2.04, 26 0" stroke="#1971c2" stroke-width="2" fill="none"/></g><g transform="translate(610 932) rotate(0 80 10)"><text x="80" y="0" font-family="Virgil, Segoe UI Emoji" font-size="16px" fill="#1971c2" text-anchor="middle" style="white-space: pre;" direction="ltr" dominant-baseline="text-before-edge">PNG / SVG</text><text x="80" y="20" font-family="Virgil, Segoe UI Emoji" font-size="16px" fill="#1971c2" text-anchor="middle" style="white-space: pre;" direction="ltr" dominant-baseline="text-before-edge">file</text></g><g stroke-linecap="round"><g transform="translate(410 114) rotate(0 0 58)"><path d="M0 0 C0 28.37, 0 56.74, 0 116 M0 0 C0 27.31, 0 54.63, 0 116" stroke="#c92a2a" stroke-width="2" fill="none"/></g><g transform="translate(410 114) rotate(0 0 58)"><path d="M-10.26 87.81 C-7.75 94.7, -5.24 101.6, 0 116 M-10.26 87.81 C-7.84 94.45, -5.43 101.08, 0 116" stroke="#c92a2a" stroke-width="2" fill="none"/></g><g transform="translate(410 114) rotate(0 0 58)"><path d="M10.26 87.81 C7.75 94.7, 5.24 101.6, 0 116 M10.26 87.81 C7.84 94.45, 5.43 101.08, 0 116" stroke="#c92a2a" stroke-width="2" fill="none"/></g></g><mask/><g transform="translate(410 160) rotate(0 45.80000000000001 10)"><text x="45.800000000000004" y="0" font-family="Virgil, Segoe UI Emoji" font-size="14px" fill="#1e1e1e" text-anchor="middle" style="white-space: pre;" direction="ltr" dominant-baseline="text-before-edge">draw tool</text></g><g stroke-linecap="round"><g transform="translate(410 334) rotate(0 0 58)"><path d="M0 0 C0 36.89, 0 73.79, 0 116 M0 0 C0 24.13, 0 48.27, 0 116" stroke="#7048e8" stroke-width="2" fill="none"/></g><g transform="translate(410 334) rotate(0 0 58)"><path d="M-10.26 87.81 C-7 96.78, -3.73 105.74, 0 116 M-10.26 87.81 C-8.13 93.67, -5.99 99.54, 0 116" stroke="#7048e8" stroke-width="2" fill="none"/></g><g transform="translate(410 334) rotate(0 0 58)"><path d="M10.26 87.81 C7 96.78, 3.73 105.74, 0 116 M10.26 87.81 C8.13 93.67, 5.99 99.54, 0 116" stroke="#7048e8" stroke-width="2" fill="none"/></g></g><mask/><g transform="translate(410 380) rotate(0 24.80000000000001 10)"><text x="24.8" y="0" font-family="Virgil, Segoe UI Emoji" font-size="14px" fill="#1e1e1e" text-anchor="middle" style="white-space: pre;" direction="ltr" dominant-baseline="text-before-edge">code</text></g><g stroke-linecap="round"><g transform="translate(410 554) rotate(0 0 58)"><path d="M0 0 C0 36.73, 0 73.46, 0 116 M0 0 C0 30.08, 0 60.16, 0 116" stroke="#7048e8" stroke-width="2" fill="none"/></g><g transform="translate(410 554) rotate(0 0 58)"><path d="M-10.26 87.81 C-7.01 96.74, -3.76 105.66, 0 116 M-10.26 87.81 C-7.6 95.12, -4.94 102.43, 0 116" stroke="#7048e8" stroke-width="2" fill="none"/></g><g transform="translate(410 554) rotate(0 0 58)"><path d="M10.26 87.81 C7.01 96.74, 3.76 105.66, 0 116 M10.26 87.81 C7.6 95.12, 4.94 102.43, 0 116" stroke="#7048e8" stroke-width="2" fill="none"/></g></g><mask/><g transform="translate(410 600) rotate(0 54.19999999999999 10)"><text x="54.2" y="0" font-family="Virgil, Segoe UI Emoji" font-size="14px" fill="#1e1e1e" text-anchor="middle" style="white-space: pre;" direction="ltr" dominant-baseline="text-before-edge">Diagram API</text></g><g stroke-linecap="round"><g transform="translate(410 774) rotate(0 -140 58)"><path d="M0 0 C0 22.34, 0 44.67, 0 58 M0 0 C0 19.19, 0 38.38, 0 58 M0 58 C-81.19 58, -162.38 58, -280 58 M0 58 C-59.4 58, -118.79 58, -280 58 M-280 58 C-280 77.18, -280 96.37, -280 116 M-280 58 C-280 78.44, -280 98.87, -280 116" stroke="#1971c2" stroke-width="2" fill="none"/></g><g transform="translate(410 774) rotate(0 -140 58)"><path d="M-289.92 88.75 C-286.1 99.24, -282.28 109.74, -280 116 M-289.92 88.75 C-286.64 97.76, -283.36 106.78, -280 116" stroke="#1971c2" stroke-width="2" fill="none"/></g><g transform="translate(410 774) rotate(0 -140 58)"><path d="M-270.08 88.75 C-273.9 99.24, -277.72 109.74, -280 116 M-270.08 88.75 C-273.36 97.76, -276.64 106.78, -280 116" stroke="#1971c2" stroke-width="2" fill="none"/></g></g><mask/><g transform="translate(270 820) rotate(0 33.19999999999999 10)"><text x="33.2" y="0" font-family="Virgil, Segoe UI Emoji" font-size="14px" fill="#1e1e1e" text-anchor="middle" style="white-space: pre;" direction="ltr" dominant-baseline="text-before-edge">upload</text></g><g stroke-linecap="round"><g transform="translate(378 774) rotate(0 16 58)"><path d="M0 0 C0 17.07, 0 34.13, 0 58 M0 0 C0 17.05, 0 34.11, 0 58 M0 58 C7.79 58, 15.57 58, 32 58 M0 58 C10.13 58, 20.26 58, 32 58 M32 58 C32 77.45, 32 96.9, 32 116 M32 58 C32 70.33, 32 82.66, 32 116" stroke="#1971c2" stroke-width="2" fill="none"/></g><g transform="translate(378 774) rotate(0 16 58)"><path d="M22.08 88.75 C25 96.77, 27.92 104.79, 32 116 M22.08 88.75 C25 96.76, 27.91 104.77, 32 116" stroke="#1971c2" stroke-width="2" fill="none"/></g><g transform="translate(378 774) rotate(0 16 58)"><path d="M41.92 88.75 C39 96.77, 36.08 104.79, 32 116 M41.92 88.75 C39 96.76, 36.09 104.77, 32 116" stroke="#1971c2" stroke-width="2" fill="none"/></g></g><mask/><g transform="translate(345 791) rotate(0 29 10)"><text x="29" y="0" font-family="Virgil, Segoe UI Emoji" font-size="14px" fill="#1e1e1e" text-anchor="middle" style="white-space: pre;" direction="ltr" dominant-baseline="text-before-edge">write</text></g><g stroke-linecap="round"><g transform="translate(442 774) rotate(0 124 58)"><path d="M0 0 C0 12.21, 0 24.42, 0 58 M0 0 C0 16.54, 0 33.07, 0 58 M0 58 C92.32 58, 184.64 58, 248 58 M0 58 C89.93 58, 179.86 58, 248 58 M248 58 C248 70.25, 248 82.5, 248 116 M248 58 C248 72.74, 248 87.48, 248 116" stroke="#1971c2" stroke-width="2" fill="none"/></g><g transform="translate(442 774) rotate(0 124 58)"><path d="M238.08 88.75 C240.17 94.48, 242.26 100.22, 248 116 M238.08 88.75 C240.91 96.52, 243.74 104.29, 248 116" stroke="#1971c2" stroke-width="2" fill="none"/></g><g transform="translate(442 774) rotate(0 124 58)"><path d="M257.92 88.75 C255.83 94.48, 253.74 100.22, 248 116 M257.92 88.75 C255.09 96.52, 252.26 104.29, 248 116" stroke="#1971c2" stroke-width="2" fill="none"/></g></g><mask/><g transform="translate(566 820) rotate(0 33.19999999999999 10)"><text x="33.2" y="0" font-family="Virgil, Segoe UI Emoji" font-size="14px" fill="#1e1e1e" text-anchor="middle" style="white-space: pre;" direction="ltr" dominant-baseline="text-before-edge">render</text></g><g stroke-opacity="0.6" fill-opacity="0.6" stroke-linecap="round" transform="translate(10 400) rotate(0 400 202)"><path d="M32 0 C246.01 0, 460.03 0, 768 0 M768 0 C789.33 0, 800 10.67, 800 32 M800 32 C800 156.23, 800 280.47, 800 372 M800 372 C800 393.33, 789.33 404, 768 404 M768 404 C540.81 404, 313.63 404, 32 404 M32 404 C10.67 404, 0 393.33, 0 372 M0 372 C0 272.27, 0 172.53, 0 32 M0 32 C0 10.67, 10.67 0, 32 0" stroke="#868e96" stroke-width="1.5" fill="none" stroke-dasharray="8 9"/></g><g stroke-opacity="0.6" fill-opacity="0.6" transform="translate(20 405) rotate(0 24.799999999999997 10)"><text x="0" y="0" font-family="Virgil, Segoe UI Emoji" font-size="14px" fill="#868e96" text-anchor="start" style="white-space: pre;" direction="ltr" dominant-baseline="text-before-edge">Core</text></g><g stroke-opacity="0.6" fill-opacity="0.6" stroke-linecap="round" transform="translate(10 840) rotate(0 400 92)"><path d="M32 0 C215.3 0, 398.6 0, 768 0 M768 0 C789.33 0, 800 10.67, 800 32 M800 32 C800 57.32, 800 82.63, 800 152 M800 152 C800 173.33, 789.33 184, 768 184 M768 184 C494.05 184, 220.11 184, 32 184 M32 184 C10.67 184, 0 173.33, 0 152 M0 152 C0 106.38, 0 60.75, 0 32 M0 32 C0 10.67, 10.67 0, 32 0" stroke="#868e96" stroke-width="1.5" fill="none" stroke-dasharray="8 9"/></g><g stroke-opacity="0.6" fill-opacity="0.6" transform="translate(20 845) rotate(0 37.400000000000006 10)"><text x="0" y="0" font-family="Virgil, Segoe UI Emoji" font-size="14px" fill="#868e96" text-anchor="start" style="white-space: pre;" direction="ltr" dominant-baseline="text-before-edge">Outputs</text></g></svg>