<svg version="1.1" xmlns="http://www.w3.org/2000/svg" viewBox="0 0 1411 1205" width="1411" height="1205">
  <!-- svg-source:excalidraw -->
  
  <defs>
    <style class="style-fonts">
      @font-face {
        font-family: "Virgil";
        src: url("https://unpkg.com/@excalidraw/excalidraw@undefined/dist/excalidraw-assets/Virgil.woff2");
      }
      @font-face {
        font-family: "Cascadia";
        src: url("https://unpkg.com/@excalidraw/excalidraw@undefined/dist/excalidraw-assets/Cascadia.woff2");
      }
      @font-face {
        font-family: "Assistant";
        src: url("https://unpkg.com/@excalidraw/excalidraw@undefined/dist/excalidraw-assets/Assistant-Regular.woff2");
      }
    </style>
    
  </defs>
  <rect x="0" y="0" width="1411" height="1205" fill="#ffffff"/><g stroke-linecap="round" transform="translate(626 10) rotate(0 90 52)"><path d="M127.63 5.3 C139.42 7.72, 151.02 13.83, 159.37 19.62 C167.73 25.42, 174.52 32.85, 177.76 40.06 C180.99 47.28, 181.59 55.51, 178.77 62.91 C175.96 70.31, 168.86 78.61, 160.9 84.47 C152.93 90.32, 142.55 94.97, 130.99 98.05 C119.44 101.14, 104.5 102.79, 91.57 102.99 C78.63 103.2, 65.34 102.13, 53.39 99.3 C41.44 96.46, 28.21 91.7, 19.89 86 C11.56 80.31, 6.42 72.59, 3.45 65.13 C0.48 57.67, -0.44 48.64, 2.07 41.26 C4.58 33.87, 10.49 26.8, 18.5 20.81 C26.51 14.82, 38.63 8.67, 50.12 5.3 C61.61 1.94, 74.08 0.61, 87.43 0.64 C100.77 0.67, 122.59 4.34, 130.18 5.49 C137.77 6.64, 133.44 6.79, 132.96 7.57 M108.45 0.23 C120.56 0.94, 134.07 4.86, 144.25 9.72 C154.43 14.57, 163.57 22.61, 169.52 29.37 C175.46 36.14, 179.43 42.57, 179.91 50.3 C180.4 58.04, 178.09 68.85, 172.41 75.77 C166.72 82.7, 156.27 87.63, 145.8 91.87 C135.33 96.12, 122.03 99.46, 109.59 101.24 C97.14 103.02, 83.65 103.8, 71.14 102.56 C58.63 101.32, 45.03 98.39, 34.52 93.8 C24.02 89.21, 13.8 81.68, 8.09 75.02 C2.38 68.35, -0.01 61.4, 0.25 53.78 C0.52 46.16, 4.03 36.21, 9.68 29.3 C15.32 22.38, 24.41 17.17, 34.12 12.29 C43.84 7.4, 55.43 1.67, 67.97 -0.02 C80.51 -1.7, 102.31 1.88, 109.36 2.17 C116.41 2.46, 110.69 1.07, 110.25 1.72" stroke="none" stroke-width="0" fill="#e599f7"/><path d="M104.48 1.07 C116.87 1.25, 130.75 4.48, 141.36 8.71 C151.96 12.94, 161.71 19.71, 168.12 26.44 C174.54 33.16, 178.78 41.43, 179.82 49.03 C180.86 56.63, 179.19 65.08, 174.37 72.02 C169.55 78.95, 160.72 85.83, 150.89 90.64 C141.06 95.45, 127.91 98.59, 115.36 100.88 C102.82 103.16, 88.21 105.35, 75.61 104.35 C63.01 103.35, 50.27 99.15, 39.79 94.86 C29.31 90.56, 19.3 85.08, 12.72 78.59 C6.14 72.1, 1.38 63.55, 0.31 55.92 C-0.76 48.3, 1.39 39.8, 6.3 32.87 C11.22 25.93, 20.3 19.58, 29.79 14.32 C39.27 9.06, 49.79 3.5, 63.23 1.3 C76.66 -0.89, 101.55 0.77, 110.39 1.14 C119.23 1.52, 116.53 2.57, 116.27 3.54 M62.34 2.72 C74.04 0.22, 90.44 0.44, 103.67 1.63 C116.89 2.83, 131.12 5.96, 141.68 9.87 C152.24 13.79, 160.92 18.67, 167.05 25.1 C173.18 31.53, 177.16 40.97, 178.45 48.46 C179.74 55.95, 179.55 63.02, 174.77 70.03 C170 77.04, 159.57 85.37, 149.81 90.55 C140.05 95.72, 128.21 98.73, 116.19 101.08 C104.18 103.42, 90.39 105.57, 77.71 104.6 C65.03 103.63, 50.93 99.48, 40.1 95.26 C29.28 91.03, 19.21 85.75, 12.73 79.26 C6.26 72.78, 2.25 63.9, 1.26 56.35 C0.28 48.8, 2.24 40.99, 6.8 33.95 C11.36 26.91, 18.99 19.53, 28.62 14.11 C38.24 8.68, 58.7 3.47, 64.55 1.42 C70.4 -0.63, 63.56 0.96, 63.7 1.81" stroke="#9c36b5" stroke-width="2" fill="none"/></g><g transform="translate(636 52) rotate(0 80 10)"><text x="80" y="0" font-family="Virgil, Segoe UI Emoji" font-size="16px" fill="#9c36b5" text-anchor="middle" style="white-space: pre;" direction="ltr" dominant-baseline="text-before-edge">LLM</text><text x="80" y="20" font-family="Virgil, Segoe UI Emoji" font-size="16px" fill="#9c36b5" text-anchor="middle" style="white-space: pre;" direction="ltr" dominant-baseline="text-before-edge">(Claude, etc.)</text></g><g stroke-linecap="round" transform="translate(626 217) rotate(0 90 52)"><path d="M26 0 C51.51 -4.19, 74.68 -0.01, 154 0 C171.16 -2.31, 177.31 6.64, 180 26 C179.73 34.93, 178.08 49.53, 180 78 C177.58 95.94, 173.89 103.34, 154 104 C107.51 103.85, 60.06 104.71, 26 104 C10.26 100.41, 0.3 95.47, 0 78 C-2.79 66.92, -0.95 56.47, 0 26 C0.56 10.37, 5.54 1.48, 26 0" stroke="none" stroke-width="0" fill="#ffa8a8"/><path d="M26 0 C71.03 2.13, 119.08 1.18, 154 0 M26 0 C57.99 -1.15, 91.59 0.69, 154 0 M154 0 C171.4 -0.7, 180.19 8.51, 180 26 M154 0 C172.92 2.14, 180.04 8.12, 180 26 M180 26 C180.26 38.74, 179.83 51.23, 180 78 M180 26 C180.68 45.88, 179.54 66.25, 180 78 M180 78 C179.66 95.62, 170.03 103.57, 154 104 M180 78 C181.88 93.5, 172.96 104.19, 154 104 M154 104 C111.72 104.08, 69.73 104.76, 26 104 M154 104 C127.73 102.68, 101.66 104.51, 26 104 M26 104 C9.37 104.32, 0.27 97.26, 0 78 M26 104 C8.21 104.86, 0.01 94.69, 0 78 M0 78 C0.97 63.5, 0.61 46.33, 0 26 M0 78 C-0.42 62.36, 1.01 46.66, 0 26 M0 26 C-0.28 10, 10.29 0.88, 26 0 M0 26 C-1.41 6.64, 9.53 1.71, 26 0" stroke="#c92a2a" stroke-width="2" fill="none"/></g><g transform="translate(636 259) rotate(0 80 10)"><text x="80" y="0" font-family="Virgil, Segoe UI Emoji" font-size="16px" fill="#c92a2a" text-anchor="middle" style="white-space: pre;" direction="ltr" dominant-baseline="text-before-edge">MCP Server</text><text x="80" y="20" font-family="Virgil, Segoe UI Emoji" font-size="16px" fill="#c92a2a" text-anchor="middle" style="white-space: pre;" direction="ltr" dominant-baseline="text-before-edge">(index.ts)</text></g><g stroke-linecap="round" transform="translate(626 433) rotate(0 90 52)"><path d="M26 0 C72.77 -2.1, 119.78 0.34, 154 0 C172.52 -2.75, 181.73 11.24, 180 26 C182.56 37.08, 177.04 50.2, 180 78 C182.4 97.44, 173.72 102.2, 154 104 C117.7 105.99, 77.53 103.65, 26 104 C6.36 104.22, 0.7 97, 0 78 C-0.06 65.16, -2.1 52.52, 0 26 C1.79 9.95, 8.49 3.3, 26 0" stroke="none" stroke-width="0" fill="#d0bfff"/><path d="M26 0 C57.51 1.63, 91.22 -1.02, 154 0 M26 0 C68.94 -0.24, 111.86 -0.6, 154 0 M154 0 C171.18 0.29, 181.19 9.48, 180 26 M154 0 C173.02 0.76, 178.69 7.55, 180 26 M180 26 C180.54 37.66, 178.59 53.46, 180 78 M180 26 C180.73 44.4, 180.79 64.24, 180 78 M180 78 C179.72 94.22, 170.62 103.79, 154 104 M180 78 C180.59 95.37, 173.06 104.95, 154 104 M154 104 C125.33 103.32, 95.83 103, 26 104 M154 104 C105.11 104.75, 57.35 105.17, 26 104 M26 104 C7.64 102.65, 1.56 96.58, 0 78 M26 104 C10.3 104.36, 0.16 95.85, 0 78 M0 78 C-0.17 65.86, 2.06 55.36, 0 26 M0 78 C-0.77 63.46, -0.72 50.37, 0 26 M0 26 C-0.95 7.45, 9.83 1.36, 26 0 M0 26 C-2.02 9.13, 9.72 -0.7, 26 0" stroke="#7048e8" stroke-width="2" fill="none"/></g><g transform="translate(636 475) rotate(0 80 10)"><text x="80" y="0" font-family="Virgil, Segoe UI Emoji" font-size="16px" fill="#7048e8" text-anchor="middle" style="white-space: pre;" direction="ltr" dominant-baseline="text-before-edge">Executor</text><text x="80" y="20" font-family="Virgil, Segoe UI Emoji" font-size="16px" fill="#7048e8" text-anchor="middle" style="white-space: pre;" direction="ltr" dominant-baseline="text-before-edge">(new Function)</text></g><g stroke-linecap="round" transform="translate(626 640) rotate(0 90 52)"><path d="M26 0 C50.04 0.46, 77.7 0.28, 154 0 C170.17 1.91, 183.57 5.67, 180 26 C183.64 47.28, 180.74 62.36, 180 78 C181.41 92.99, 173.9 106.25, 154 104 C105.54 101.25, 57.53 101.93, 26 104 C6.49 104.56, 2.7 94.96, 0 78 C1.58 57.35, -0.66 40.82, 0 26 C0 11.44, 5.8 -1.41, 26 0" stroke="none" stroke-width="0" fill="#d0bfff"/><path d="M26 0 C66.45 1.53, 105.12 1.53, 154 0 M26 0 C66.44 -0.56, 106.57 -0.88, 154 0 M154 0 C172.55 -0.46, 179.88 7.14, 180 26 M154 0 C173.23 -0.2, 179.72 8.06, 180 26 M180 26 C178.84 42.25, 181.31 57.5, 180 78 M180 26 C179.32 36.82, 181.11 47.97, 180 78 M180 78 C181.7 96.28, 170.38 105.85, 154 104 M180 78 C178.32 96.09, 172.96 104.15, 154 104 M154 104 C127.96 106.15, 101.82 106.58, 26 104 M154 104 C122.53 103.1, 92.6 103.17, 26 104 M26 104 C9.14 105, -1.16 94.88, 0 78 M26 104 C8.74 105.66, 0.14 97.15, 0 78 M0 78 C-1.4 60.83, -1.48 43.91, 0 26 M0 78 C-0.42 61.18, 0.35 43.01, 0 26 M0 26 C0.53 6.87, 8.48 0.37, 26 0 M0 26 C-1.64 7.59, 6.7 -1.68, 26 0" stroke="#7048e8" stroke-width="2" fill="none"/></g><g transform="translate(636 682) rotate(0 80 10)"><text x="80" y="0" font-family="Virgil, Segoe UI Emoji" font-size="16px" fill="#7048e8" text-anchor="middle" style="white-space: pre;" direction="ltr" dominant-baseline="text-before-edge">Diagram SDK</text><text x="80" y="20" font-family="Virgil, Segoe UI Emoji" font-size="16px" fill="#7048e8" text-anchor="middle" style="white-space: pre;" direction="ltr" dominant-baseline="text-before-edge">(sdk.ts)</text></g><g stroke-linecap="round" transform="translate(606 856) rotate(0 90 52)"><path d="M26 0 C73.13 -3.26, 119.11 2.13, 154 0 C168.37 0.45, 182.58 5.44, 180 26 C182.77 36.61, 181.06 46.37, 180 78 C179.45 97.25, 171.33 104.22, 154 104 C104.96 105.64, 54 105.71, 26 104 C9.37 103.71, 1.84 93.1, 0 78 C-3.99 66.1, 1.75 47.3, 0 26 C-0.99 11.68, 7.96 -3.34, 26 0" stroke="none" stroke-width="0" fill="#b2f2bb"/><path d="M26 0 C65.16 -0.38, 102.97 -1.12, 154 0 M26 0 C62.53 -1.44, 97.72 -1.44, 154 0 M154 0 C172.55 1.7, 181.19 9.03, 180 26 M154 0 C170.52 2.26, 180.71 7.14, 180 26 M180 26 C180.37 42.44, 180.98 55.93, 180 78 M180 26 C180.12 39.75, 180.72 52.93, 180 78 M180 78 C178.26 94.8, 172.04 105.67, 154 104 M180 78 C181.59 93.04, 170.83 103.03, 154 104 M154 104 C124.07 105.45, 96.93 106.38, 26 104 M154 104 C127.41 103.54, 98.26 104.14, 26 104 M26 104 C9.92 103, -0.21 95.19, 0 78 M26 104 C8.83 105.67, 0.51 94.57, 0 78 M0 78 C-0.21 66.08, 0.16 54.58, 0 26 M0 78 C-0.64 62.23, 0.1 47.6, 0 26 M0 26 C0.72 9.24, 7.7 -1.92, 26 0 M0 26 C-0.25 10.74, 7.13 0.53, 26 0" stroke="#2f9e44" stroke-width="2" fill="none"/></g><g transform="translate(616 898) rotate(0 80 10)"><text x="80" y="0" font-family="Virgil, Segoe UI Emoji" font-size="16px" fill="#2f9e44" text-anchor="middle" style="white-space: pre;" direction="ltr" dominant-baseline="text-before-edge">Graphviz WASM</text><text x="80" y="20" font-family="Virgil, Segoe UI Emoji" font-size="16px" fill="#2f9e44" text-anchor="middle" style="white-space: pre;" direction="ltr" dominant-baseline="text-before-edge">(layout.ts)</text></g><g stroke-linecap="round" transform="translate(30 856) rotate(0 90 52)"><path d="M26 0 C69.68 -5.13, 113.49 -4.48, 154 0 C168.05 1.73, 183 7.48, 180 26 C180.35 44.74, 178.45 64.39, 180 78 C177.3 93.44, 168.78 103.51, 154 104 C115.16 107.02, 70.31 101.57, 26 104 C9.2 105.01, 0.66 98.05, 0 78 C-0.28 59.16, -0.38 42.82, 0 26 C-1.15 6.15, 12.09 -2.92, 26 0" stroke="none" stroke-width="0" fill="#ffec99"/><path d="M26 0 C55.87 0.64, 88.4 -2.29, 154 0 M26 0 C71.63 -0.51, 119.48 -0.73, 154 0 M154 0 C171.47 1.53, 178.28 7.54, 180 26 M154 0 C170.03 -1.84, 179.87 6.81, 180 26 M180 26 C180.85 41.61, 182.23 57.8, 180 78 M180 26 C180.59 44.87, 179.82 64.52, 180 78 M180 78 C180.37 96.13, 172.97 104.91, 154 104 M180 78 C179.03 93.16, 172.81 103.4, 154 104 M154 104 C105.18 104.17, 58.51 103.57, 26 104 M154 104 C109.82 104.96, 64.59 104.54, 26 104 M26 104 C7.71 104.53, 0.54 94.1, 0 78 M26 104 C6.9 102.1, -0.47 95.42, 0 78 M0 78 C-1.51 57.3, -2.05 35.55, 0 26 M0 78 C-0.2 63.49, -0.21 47.56, 0 26 M0 26 C1.04 6.98, 8.05 -1.61, 26 0 M0 26 C-0.69 10.65, 9.08 2.05, 26 0" stroke="#f08c00" stroke-width="2" fill="none"/></g><g transform="translate(40 898) rotate(0 80 10)"><text x="80" y="0" font-family="Virgil, Segoe UI Emoji" font-size="16px" fill="#f08c00" text-anchor="middle" style="white-space: pre;" direction="ltr" dominant-baseline="text-before-edge">Zig WASM</text><text x="80" y="20" font-family="Virgil, Segoe UI Emoji" font-size="16px" fill="#f08c00" text-anchor="middle" style="white-space: pre;" direction="ltr" dominant-baseline="text-before-edge">(validate)</text></g><g stroke-linecap="round" transform="translate(318 856) rotate(0 90 52)"><path d="M26 0 C73.73 1.46, 119.37 1, 154 0 C173.35 2, 179.59 6.53, 180 26 C178.04 47.02, 178.52 65.51, 180 78 C181.98 93.38, 174.12 107.3, 154 104 C118.74 106.66, 87.1 101.48, 26 104 C8.4 102.53, 1.55 96.14, 0 78 C-2.35 59.38, -2.27 36.76, 0 26 C-1.26 6.45, 6.59 -2.6, 26 0" stroke="none" stroke-width="0" fill="#ffc9c9"/><path d="M26 0 C73.52 1.58, 120.21 -0.01, 154 0 M26 0 C74.8 1.94, 124.66 0.65, 154 0 M154 0 C173.29 -0.69, 181.75 7.94, 180 26 M154 0 C169.15 -1.67, 181.49 10.76, 180 26 M180 26 C179.81 39.26, 180.28 50.17, 180 78 M180 26 C179.05 43.8, 180.44 63.2, 180 78 M180 78 C178.42 94.42, 170.42 103.42, 154 104 M180 78 C179.33 93.97, 170.01 103.16, 154 104 M154 104 C112.78 103.41, 76.5 105.31, 26 104 M154 104 C121.66 105.28, 89.81 105.34, 26 104 M26 104 C10.32 104.34, 0.45 95.35, 0 78 M26 104 C10.76 105, 0.63 94.18, 0 78 M0 78 C-1.57 63.39, -1.19 50.63, 0 26 M0 78 C0.27 65.19, 0.93 51.18, 0 26 M0 26 C-0.2 7.85, 6.84 1.72, 26 0 M0 26 C-0.12 9.63, 7.86 1.78, 26 0" stroke="#e03131" stroke-width="2" fill="none"/></g><g transform="translate(328 898) rotate(0 80 10)"><text x="80" y="0" font-family="Virgil, Segoe UI Emoji" font-size="16px" fill="#e03131" text-anchor="middle" style="white-space: pre;" direction="ltr" dominant-baseline="text-before-edge">Upload</text><text x="80" y="20" font-family="Virgil, Segoe UI Emoji" font-size="16px" fill="#e03131" text-anchor="middle" style="white-space: pre;" direction="ltr" dominant-baseline="text-before-edge">(upload.ts)</text></g><g stroke-linecap="round" transform="translate(894 856) rotate(0 90 52)"><path d="M26 0 C60.9 1.86, 98.97 0.26, 154 0 C172.43 -2.79, 177.06 10.12, 180 26 C182.39 34.7, 179.75 47.79, 180 78 C182.45 94.33, 172.55 101.49, 154 104 C128.53 103.26, 98.61 100.98, 26 104 C5.46 103.97, -2.8 92.74, 0 78 C-1.59 61.6, -1.04 45.72, 0 26 C1.46 8.32, 6.65 3.58, 26 0" stroke="none" stroke-width="0" fill="#ffe8cc"/><path d="M26 0 C56.52 -1.44, 86.82 -1.61, 154 0 M26 0 C75.94 0.56, 126.01 -0.22, 154 0 M154 0 C169.36 0.18, 178.81 9.86, 180 26 M154 0 C169.4 0.12, 178.61 9.46, 180 26 M180 26 C180.08 39.44, 181.83 52.88, 180 78 M180 26 C181.21 36.27, 180.14 48.06, 180 78 M180 78 C180.51 95.97, 170.85 104.95, 154 104 M180 78 C179.1 95.13, 170.08 101.82, 154 104 M154 104 C109.87 102.47, 66.61 105.59, 26 104 M154 104 C113.96 104.07, 74.03 103.81, 26 104 M26 104 C8.71 102.72, 2 95.36, 0 78 M26 104 C9.31 103.22, -2.15 97.05, 0 78 M0 78 C-1.82 61.12, 0.26 46.48, 0 26 M0 78 C-0.54 64.82, 0.33 52.2, 0 26 M0 26 C-0.58 7.38, 10.46 0.87, 26 0 M0 26 C-0.81 10.44, 10.42 -1.62, 26 0" stroke="#fd7e14" stroke-width="2" fill="none"/></g><g transform="translate(904 898) rotate(0 80 10)"><text x="80" y="0" font-family="Virgil, Segoe UI Emoji" font-size="16px" fill="#fd7e14" text-anchor="middle" style="white-space: pre;" direction="ltr" dominant-baseline="text-before-edge">Image Export</text><text x="80" y="20" font-family="Virgil, Segoe UI Emoji" font-size="16px" fill="#fd7e14" text-anchor="middle" style="white-space: pre;" direction="ltr" dominant-baseline="text-before-edge">(png.ts)</text></g><g stroke-linecap="round" transform="translate(606 1072) rotate(0 90 52)"><path d="M26 0 C54.25 -1.51, 90.05 -3.93, 154 0 C172.73 -0.25, 183.42 9.98, 180 26 C179.35 48.95, 179.01 61.58, 180 78 C180.57 97.52, 168.04 101.85, 154 104 C104.74 99.31, 60.88 100.88, 26 104 C7.85 105.79, -0.49 97.63, 0 78 C-3.43 56.72, 0.48 39.13, 0 26 C-3.03 6.09, 6.85 1.98, 26 0" stroke="none" stroke-width="0" fill="#a5d8ff"/><path d="M26 0 C54.09 1.71, 80.43 -0.28, 154 0 M26 0 C64.71 0.43, 105.02 1.74, 154 0 M154 0 C169.38 1.46, 178.45 9.7, 180 26 M154 0 C169.5 -0.3, 179.69 6.79, 180 26 M180 26 C179.09 38.23, 181.98 52.43, 180 78 M180 26 C178.82 42.87, 179.37 58.4, 180 78 M180 78 C180.11 95.98, 169.45 105.63, 154 104 M180 78 C179.7 95.12, 172.65 106.2, 154 104 M154 104 C107.56 105.17, 57.92 103.73, 26 104 M154 104 C105.39 105.33, 57.34 104.27, 26 104 M26 104 C9.44 102.38, 0.9 94.07, 0 78 M26 104 C7.87 105.33, -1.52 95.56, 0 78 M0 78 C-0.81 57.84, -0.25 41.16, 0 26 M0 78 C-0.48 63.71, -0.92 48.14, 0 26 M0 26 C-1.61 9.06, 9.5 0.18, 26 0 M0 26 C0.28 6.75, 10.86 -1, 26 0" stroke="#1971c2" stroke-width="2" fill="none"/></g><g transform="translate(616 1114) rotate(0 80 10)"><text x="80" y="0" font-family="Virgil, Segoe UI Emoji" font-size="16px" fill="#1971c2" text-anchor="middle" style="white-space: pre;" direction="ltr" dominant-baseline="text-before-edge">excalidraw.com</text><text x="80" y="20" font-family="Virgil, Segoe UI Emoji" font-size="16px" fill="#1971c2" text-anchor="middle" style="white-space: pre;" direction="ltr" dominant-baseline="text-before-edge">URL</text></g><g stroke-linecap="round" transform="translate(1182 1072) rotate(0 90 52)"><path d="M26 0 C56.69 3.63, 90.47 -1.11, 154 0 C170.1 -1.78, 182.95 5.42, 180 26 C179.11 38.89, 182.02 59.88, 180 78 C180.39 96.37, 174.45 105.55, 154 104 C118.42 101.23, 82.03 103.49, 26 104 C6.07 103.96, -3.52 93.83, 0 78 C2.16 64.72, 1.72 46.39, 0 26 C2.19 10.08, 8.45 2.14, 26 0" stroke="none" stroke-width="0" fill="#a5d8ff"/><path d="M26 0 C76.14 0.32, 128.99 1.69, 154 0 M26 0 C68.69 -0.78, 111.15 -0.98, 154 0 M154 0 C170.11 1.76, 181.16 9.54, 180 26 M154 0 C170.5 0.19, 181.96 10.11, 180 26 M180 26 C181.21 45.13, 178.78 62.92, 180 78 M180 26 C179.86 36.81, 179.28 49.91, 180 78 M180 78 C178.87 95.56, 172.9 104.56, 154 104 M180 78 C181.91 94.5, 170.76 105.12, 154 104 M154 104 C125.11 103.06, 99.06 102.15, 26 104 M154 104 C110.4 103.44, 67.8 104.12, 26 104 M26 104 C7.6 104.36, 0.88 96.65, 0 78 M26 104 C7.59 105.45, -0.12 93.6, 0 78 M0 78 C-2.36 58.92, -0.79 38.13, 0 26 M0 78 C-0.09 64.36, -0.15 51.33, 0 26 M0 26 C1.52 8.53, 8.46 1.22, 26 0 M0 26 C2 8.84, 8.89 1.55, 26 0" stroke="#1971c2" stroke-width="2" fill="none"/></g><g transform="translate(1192 1114) rotate(0 80 10)"><text x="80" y="0" font-family="Virgil, Segoe UI Emoji" font-size="16px" fill="#1971c2" text-anchor="middle" style="white-space: pre;" direction="ltr" dominant-baseline="text-before-edge">.excalidraw</text><text x="80" y="20" font-family="Virgil, Segoe UI Emoji" font-size="16px" fill="#1971c2" text-anchor="middle" style="white-space: pre;" direction="ltr" dominant-baseline="text-before-edge">file</text></g><g stroke-linecap="round" transform="translate(894 1072) rotate(0 90 52)"><path d="M26 0 C68.53 -2.28, 115.27 3.01, 154 0 C168.98 -3.48, 183.32 8.19, 180 26 C176.95 38.08, 179.77 52.98, 180 78 C178.94 94.53, 170.35 106.98, 154 104 C124.71 105.48, 101.71 100.97, 26 104 C7.63 106.15, 0.6 98.33, 0 78 C0.64 65.2, -1.61 44.88, 0 26 C3.28 10.35, 7.41 0.07, 26 0" stroke="none" stroke-width="0" fill="#a5d8ff"/><path d="M26 0 C70.47 -1.19, 112.74 1.26, 154 0 M26 0 C54.85 -1.29, 82.53 -1.02, 154 0 M154 0 C170.3 -1.94, 181.55 7.92, 180 26 M154 0 C173.28 -2.07, 182.01 6.98, 180 26 M180 26 C181.84 43.13, 180.08 58.53, 180 78 M180 26 C180.8 37.37, 179.82 48.18, 180 78 M180 78 C180.57 93.48, 170.17 102.08, 154 104 M180 78 C180.89 94.94, 172.22 102.28, 154 104 M154 104 C106.44 105.07, 60.78 105.02, 26 104 M154 104 C122.56 103.56, 91.13 102.14, 26 104 M26 104 C8.22 105.64, 0.88 94.29, 0 78 M26 104 C8.68 106.06, -0.79 97.36, 0 78 M0 78 C0 57.39, 1.13 42.52, 0 26 M0 78 C-0.5 58.72, -0.99 39.94, 0 26 M0 26 C1.07 10.09, 9.49 -1.25, 26 0 M0 26 C0.59 10.35, 6.94 1.36, 26 0" stroke="#1971c2" stroke-width="2" fill="none"/></g><g transform="translate(904 1114) rotate(0 80 10)"><text x="80" y="0" font-family="Virgil, Segoe UI Emoji" font-size="16px" fill="#1971c2" text-anchor="middle" style="white-space: pre;" direction="ltr" dominant-baseline="text-before-edge">PNG / SVG</text><text x="80" y="20" font-family="Virgil, Segoe UI Emoji" font-size="16px" fill="#1971c2" text-anchor="middle" style="white-space: pre;" direction="ltr" dominant-baseline="text-before-edge">file</text></g><g stroke-linecap="round"><g transform="translate(716 115) rotate(0 0 45.5)"><path d="M0 0 C0 15.17, 0 75.83, 0 91 M0 0 C0 15.17, 0 75.83, 0 91" stroke="#c92a2a" stroke-width="2" fill="none"/></g><g transform="translate(716 115) rotate(0 0 45.5)"><path d="M-10.26 62.81 C-6.99 71.8, -3.72 80.79, 0 91 M-10.26 62.81 C-7.04 71.65, -3.83 80.48, 0 91" stroke="#c92a2a" stroke-width="2" fill="none"/></g><g transform="translate(716 115) rotate(0 0 45.5)"><path d="M10.26 62.81 C6.99 71.8, 3.72 80.79, 0 91 M10.26 62.81 C7.04 71.65, 3.83 80.48, 0 91" stroke="#c92a2a" stroke-width="2" fill="none"/></g></g><mask/><g transform="translate(607.6 154) rotate(0 45.80000000000001 10)"><text x="45.800000000000004" y="0" font-family="Virgil, Segoe UI Emoji" font-size="14px" fill="#1e1e1e" text-anchor="middle" style="white-space: pre;" direction="ltr" dominant-baseline="text-before-edge">draw tool</text></g><g stroke-linecap="round"><g transform="translate(716 321) rotate(0 0 50)"><path d="M0 0 C0 16.67, 0 83.33, 0 100 M0 0 C0 16.67, 0 83.33, 0 100" stroke="#7048e8" stroke-width="2" fill="none"/></g><g transform="translate(716 321) rotate(0 0 50)"><path d="M-10.26 71.81 C-6.94 80.93, -3.62 90.06, 0 100 M-10.26 71.81 C-8.09 77.78, -5.91 83.75, 0 100" stroke="#7048e8" stroke-width="2" fill="none"/></g><g transform="translate(716 321) rotate(0 0 50)"><path d="M10.26 71.81 C6.94 80.93, 3.62 90.06, 0 100 M10.26 71.81 C8.09 77.78, 5.91 83.75, 0 100" stroke="#7048e8" stroke-width="2" fill="none"/></g></g><mask/><g transform="translate(649.6 360) rotate(0 24.80000000000001 10)"><text x="24.8" y="0" font-family="Virgil, Segoe UI Emoji" font-size="14px" fill="#1e1e1e" text-anchor="middle" style="white-space: pre;" direction="ltr" dominant-baseline="text-before-edge">code</text></g><g stroke-linecap="round"><g transform="translate(716 537) rotate(0 0 45.5)"><path d="M0 0 C0 15.17, 0 75.83, 0 91 M0 0 C0 15.17, 0 75.83, 0 91" stroke="#7048e8" stroke-width="2" fill="none"/></g><g transform="translate(716 537) rotate(0 0 45.5)"><path d="M-10.26 62.81 C-8.07 68.82, -5.89 74.83, 0 91 M-10.26 62.81 C-7.25 71.08, -4.24 79.34, 0 91" stroke="#7048e8" stroke-width="2" fill="none"/></g><g transform="translate(716 537) rotate(0 0 45.5)"><path d="M10.26 62.81 C8.07 68.82, 5.89 74.83, 0 91 M10.26 62.81 C7.25 71.08, 4.24 79.34, 0 91" stroke="#7048e8" stroke-width="2" fill="none"/></g></g><mask/><g transform="translate(591.4 576) rotate(0 54.19999999999999 10)"><text x="54.2" y="0" font-family="Virgil, Segoe UI Emoji" font-size="14px" fill="#1e1e1e" text-anchor="middle" style="white-space: pre;" direction="ltr" dominant-baseline="text-before-edge">Diagram API</text></g><g stroke-linecap="round"><g transform="translate(668 736) rotate(0 -28 58)"><path d="M0 0 C-9.33 8.33, -46.67 38.83, -56 50 C-65.33 61.17, -62.5 56, -56 67 C-49.5 78, -23.5 107.83, -17 116 M0 0 C-9.33 8.33, -46.67 38.83, -56 50 C-65.33 61.17, -62.5 56, -56 67 C-49.5 78, -23.5 107.83, -17 116" stroke="#2f9e44" stroke-width="2" fill="none"/></g><g transform="translate(668 736) rotate(0 -28 58)"><path d="M-42.91 100.88 C-32.55 106.92, -22.19 112.97, -17 116 M-42.91 100.88 C-35.11 105.43, -27.3 109.99, -17 116" stroke="#2f9e44" stroke-width="2" fill="none"/></g><g transform="translate(668 736) rotate(0 -28 58)"><path d="M-27.13 87.76 C-23.08 99.05, -19.03 110.34, -17 116 M-27.13 87.76 C-24.08 96.27, -21.03 104.77, -17 116" stroke="#2f9e44" stroke-width="2" fill="none"/></g></g><mask/><g transform="translate(613.8 783) rotate(0 33.19999999999999 10)"><text x="33.2" y="0" font-family="Virgil, Segoe UI Emoji" font-size="14px" fill="#1e1e1e" text-anchor="middle" style="white-space: pre;" direction="ltr" dominant-baseline="text-before-edge">layout</text></g><g stroke-linecap="round"><g transform="translate(634 714) rotate(0 -223.5 74)"><path d="M0 0 C-61.67 16.17, -295.5 72.33, -370 97 C-444.5 121.67, -434.17 139.5, -447 148 M0 0 C-61.67 16.17, -295.5 72.33, -370 97 C-444.5 121.67, -434.17 139.5, -447 148" stroke="#f08c00" stroke-width="2" fill="none"/></g><g transform="translate(634 714) rotate(0 -223.5 74)"><path d="M-437.18 119.65 C-439.97 127.7, -442.76 135.75, -447 148 M-437.18 119.65 C-441 130.67, -444.81 141.69, -447 148" stroke="#f08c00" stroke-width="2" fill="none"/></g><g transform="translate(634 714) rotate(0 -223.5 74)"><path d="M-421.26 132.6 C-428.57 136.97, -435.88 141.34, -447 148 M-421.26 132.6 C-431.26 138.58, -441.27 144.57, -447 148" stroke="#f08c00" stroke-width="2" fill="none"/></g></g><mask/><g transform="translate(309.4 823) rotate(0 41.599999999999994 10)"><text x="41.6" y="0" font-family="Virgil, Segoe UI Emoji" font-size="14px" fill="#1e1e1e" text-anchor="middle" style="white-space: pre;" direction="ltr" dominant-baseline="text-before-edge">validate</text></g><g stroke-linecap="round"><g transform="translate(641 721) rotate(0 -102 63)"><path d="M0 0 C-28.83 10.83, -139 44, -173 65 C-207 86, -198.83 115.83, -204 126 M0 0 C-28.83 10.83, -139 44, -173 65 C-207 86, -198.83 115.83, -204 126" stroke="#e03131" stroke-width="2" fill="none"/></g><g transform="translate(641 721) rotate(0 -102 63)"><path d="M-208.93 96.41 C-206.97 108.14, -205.02 119.87, -204 126 M-208.93 96.41 C-207.05 107.71, -205.16 119.02, -204 126" stroke="#e03131" stroke-width="2" fill="none"/></g><g transform="translate(641 721) rotate(0 -102 63)"><path d="M-188.75 100.16 C-194.8 110.4, -200.84 120.64, -204 126 M-188.75 100.16 C-194.58 110.04, -200.4 119.91, -204 126" stroke="#e03131" stroke-width="2" fill="none"/></g></g><mask/><g transform="translate(436.2 783) rotate(0 66.79999999999998 10)"><text x="66.80000000000001" y="0" font-family="Virgil, Segoe UI Emoji" font-size="14px" fill="#1e1e1e" text-anchor="middle" style="white-space: pre;" direction="ltr" dominant-baseline="text-before-edge">encrypt + POST</text></g><g stroke-linecap="round"><g transform="translate(767 734) rotate(0 78 62)"><path d="M0 0 C26 20.67, 130 103.33, 156 124 M0 0 C26 20.67, 130 103.33, 156 124" stroke="#fd7e14" stroke-width="2" fill="none"/></g><g transform="translate(767 734) rotate(0 78 62)"><path d="M127.55 114.49 C137.87 117.94, 148.19 121.39, 156 124 M127.55 114.49 C135.83 117.26, 144.11 120.03, 156 124" stroke="#fd7e14" stroke-width="2" fill="none"/></g><g transform="translate(767 734) rotate(0 78 62)"><path d="M140.32 98.43 C146.01 107.7, 151.69 116.98, 156 124 M140.32 98.43 C144.88 105.87, 149.44 113.31, 156 124" stroke="#fd7e14" stroke-width="2" fill="none"/></g></g><mask/><g transform="translate(861.4 783) rotate(0 41.60000000000002 10)"><text x="41.6" y="0" font-family="Virgil, Segoe UI Emoji" font-size="14px" fill="#1e1e1e" text-anchor="middle" style="white-space: pre;" direction="ltr" dominant-baseline="text-before-edge">elements</text></g><g stroke-linecap="round"><g transform="translate(796 716) rotate(0 223.5 174)"><path d="M0 0 C54.17 15.83, 250.5 37, 325 95 C399.5 153, 426.67 305.83, 447 348 M0 0 C54.17 15.83, 250.5 37, 325 95 C399.5 153, 426.67 305.83, 447 348" stroke="#1971c2" stroke-width="2" fill="none"/></g><g transform="translate(796 716) rotate(0 223.5 174)"><path d="M428.19 324.63 C434.68 332.69, 441.16 340.75, 447 348 M428.19 324.63 C435.26 333.42, 442.34 342.21, 447 348" stroke="#1971c2" stroke-width="2" fill="none"/></g><g transform="translate(796 716) rotate(0 223.5 174)"><path d="M447.61 318.01 C447.4 328.35, 447.19 338.69, 447 348 M447.61 318.01 C447.38 329.29, 447.15 340.57, 447 348" stroke="#1971c2" stroke-width="2" fill="none"/></g></g><mask/><g transform="translate(1301 896) rotate(0 50 10)"><text x="50" y="0" font-family="Virgil, Segoe UI Emoji" font-size="14px" fill="#1e1e1e" text-anchor="middle" style="white-space: pre;" direction="ltr" dominant-baseline="text-before-edge">write JSON</text></g><g stroke-linecap="round"><g transform="translate(462 949) rotate(0 85 63.5)"><path d="M0 0 C28.33 21.17, 141.67 105.83, 170 127 M0 0 C28.33 21.17, 141.67 105.83, 170 127" stroke="#1971c2" stroke-width="2" fill="none"/></g><g transform="translate(462 949) rotate(0 85 63.5)"><path d="M141.27 118.35 C150.11 121.01, 158.95 123.67, 170 127 M141.27 118.35 C149.54 120.84, 157.81 123.33, 170 127" stroke="#1971c2" stroke-width="2" fill="none"/></g><g transform="translate(462 949) rotate(0 85 63.5)"><path d="M153.56 101.91 C158.62 109.63, 163.68 117.35, 170 127 M153.56 101.91 C158.29 109.13, 163.02 116.35, 170 127" stroke="#1971c2" stroke-width="2" fill="none"/></g></g><mask/><g transform="translate(684.8000000000001 999) rotate(0 66.80000000000001 10)"><text x="66.80000000000001" y="0" font-family="Virgil, Segoe UI Emoji" font-size="14px" fill="#1e1e1e" text-anchor="middle" style="white-space: pre;" direction="ltr" dominant-baseline="text-before-edge">shareable link</text></g><g stroke-linecap="round"><g transform="translate(984 960) rotate(0 0 50)"><path d="M0 0 C0 16.67, 0 83.33, 0 100 M0 0 C0 16.67, 0 83.33, 0 100" stroke="#1971c2" stroke-width="2" fill="none"/></g><g transform="translate(984 960) rotate(0 0 50)"><path d="M-10.26 71.81 C-6.52 82.08, -2.79 92.34, 0 100 M-10.26 71.81 C-6.92 81, -3.57 90.19, 0 100" stroke="#1971c2" stroke-width="2" fill="none"/></g><g transform="translate(984 960) rotate(0 0 50)"><path d="M10.26 71.81 C6.52 82.08, 2.79 92.34, 0 100 M10.26 71.81 C6.92 81, 3.57 90.19, 0 100" stroke="#1971c2" stroke-width="2" fill="none"/></g></g><mask/><g transform="translate(975.8 999) rotate(0 75.20000000000005 10)"><text x="75.2" y="0" font-family="Virgil, Segoe UI Emoji" font-size="14px" fill="#1e1e1e" text-anchor="middle" style="white-space: pre;" direction="ltr" dominant-baseline="text-before-edge">puppeteer render</text></g><g stroke-linecap="round"><g transform="translate(700 856) rotate(0 5 -50.5)"><path d="M0 0 C1.67 -16.83, 8.33 -84.17, 10 -101" stroke="#7048e8" stroke-width="2.5" fill="none" stroke-dasharray="8 10"/></g><g transform="translate(700 856) rotate(0 5 -50.5)"><path d="M17.43 -71.94 C15.32 -80.21, 13.2 -88.48, 10 -101" stroke="#7048e8" stroke-width="2.5" fill="none"/></g><g transform="translate(700 856) rotate(0 5 -50.5)"><path d="M-2.99 -73.96 C0.71 -81.66, 4.41 -89.35, 10 -101" stroke="#7048e8" stroke-width="2.5" fill="none"/></g></g><mask/><g transform="translate(725.2 783) rotate(0 45.80000000000001 10)"><text x="45.800000000000004" y="0" font-family="Virgil, Segoe UI Emoji" font-size="14px" fill="#1e1e1e" text-anchor="middle" style="white-space: pre;" direction="ltr" dominant-baseline="text-before-edge">positions</text></g><g stroke-opacity="0.6" fill-opacity="0.6" stroke-linecap="round" transform="translate(588 388) rotate(0 120 187)"><path d="M32 0 C75.66 0, 119.32 0, 208 0 M208 0 C229.33 0, 240 10.67, 240 32 M240 32 C240 136.78, 240 241.56, 240 342 M240 342 C240 363.33, 229.33 374, 208 374 M208 374 C159.59 374, 111.18 374, 32 374 M32 374 C10.67 374, 0 363.33, 0 342 M0 342 C0 249.32, 0 156.63, 0 32 M0 32 C0 10.67, 10.67 0, 32 0" stroke="#868e96" stroke-width="1.5" fill="none" stroke-dasharray="8 9"/></g><g stroke-opacity="0.6" fill-opacity="0.6" transform="translate(598 393) rotate(0 24.80000000000001 10)"><text x="0" y="0" font-family="Virgil, Segoe UI Emoji" font-size="14px" fill="#868e96" text-anchor="start" style="white-space: pre;" direction="ltr" dominant-baseline="text-before-edge">Core</text></g><g stroke-opacity="0.6" fill-opacity="0.6" stroke-linecap="round" transform="translate(10 811) rotate(0 542 84)"><path d="M32 0 C275 0, 517.99 0, 1052 0 M1052 0 C1073.33 0, 1084 10.67, 1084 32 M1084 32 C1084 68.46, 1084 104.92, 1084 136 M1084 136 C1084 157.33, 1073.33 168, 1052 168 M1052 168 C787.94 168, 523.87 168, 32 168 M32 168 C10.67 168, 0 157.33, 0 136 M0 136 C0 104.56, 0 73.12, 0 32 M0 32 C0 10.67, 10.67 0, 32 0" stroke="#868e96" stroke-width="1.5" fill="none" stroke-dasharray="8 9"/></g><g stroke-opacity="0.6" fill-opacity="0.6" transform="translate(20 816) rotate(0 71 10)"><text x="0" y="0" font-family="Virgil, Segoe UI Emoji" font-size="14px" fill="#868e96" text-anchor="start" style="white-space: pre;" direction="ltr" dominant-baseline="text-before-edge">Layout &amp; Export</text></g><g stroke-opacity="0.6" fill-opacity="0.6" stroke-linecap="round" transform="translate(586 1027) rotate(0 398 84)"><path d="M32 0 C278.72 0, 525.44 0, 764 0 M764 0 C785.33 0, 796 10.67, 796 32 M796 32 C796 71.44, 796 110.87, 796 136 M796 136 C796 157.33, 785.33 168, 764 168 M764 168 C563.58 168, 363.17 168, 32 168 M32 168 C10.67 168, 0 157.33, 0 136 M0 136 C0 106.95, 0 77.91, 0 32 M0 32 C0 10.67, 10.67 0, 32 0" stroke="#868e96" stroke-width="1.5" fill="none" stroke-dasharray="8 9"/></g><g stroke-opacity="0.6" fill-opacity="0.6" transform="translate(596 1032) rotate(0 37.39999999999998 10)"><text x="0" y="0" font-family="Virgil, Segoe UI Emoji" font-size="14px" fill="#868e96" text-anchor="start" style="white-space: pre;" direction="ltr" dominant-baseline="text-before-edge">Outputs</text></g></svg>