<svg version="1.1" xmlns="http://www.w3.org/2000/svg" viewBox="0 0 1121.6 1254" width="1121.6" height="1254">
  <!-- svg-source:excalidraw -->
  
  <defs>
    <style class="style-fonts">
      @font-face {
        font-family: "Virgil";
        src: url("https://unpkg.com/@excalidraw/excalidraw@undefined/dist/excalidraw-assets/Virgil.woff2");
      }
      @font-face {
        font-family: "Cascadia";
        src: url("https://unpkg.com/@excalidraw/excalidraw@undefined/dist/excalidraw-assets/Cascadia.woff2");
      }
      @font-face {
        font-family: "Assistant";
        src: url("https://unpkg.com/@excalidraw/excalidraw@undefined/dist/excalidraw-assets/Assistant-Regular.woff2");
      }
    </style>
    
  </defs>
  <rect x="0" y="0" width="1121.6" height="1254" fill="#ffffff"/><g stroke-linecap="round" transform="translate(621.6 10) rotate(0 90 52)"><path d="M62.63 2.94 C74.14 -0.09, 90.83 -0.94, 103.63 0.16 C116.43 1.26, 128.89 5.43, 139.44 9.55 C149.99 13.67, 160.24 18.39, 166.93 24.89 C173.63 31.39, 178.28 41.06, 179.59 48.55 C180.9 56.04, 179.63 62.99, 174.79 69.86 C169.96 76.73, 160.1 84.49, 150.57 89.75 C141.04 95.01, 129.94 99.24, 117.61 101.4 C105.29 103.57, 89.69 103.87, 76.63 102.74 C63.57 101.62, 49.91 98.64, 39.26 94.65 C28.62 90.65, 19.17 85.05, 12.75 78.77 C6.33 72.49, 1.8 64.7, 0.74 56.96 C-0.31 49.23, 1.83 39.48, 6.44 32.37 C11.05 25.26, 17.67 19.38, 28.39 14.3 C39.11 9.22, 62.22 3.94, 70.74 1.88 C79.26 -0.18, 79.25 1.05, 79.51 1.94 M121.72 4.65 C133.41 6.69, 144.85 12.29, 153.73 17.3 C162.6 22.31, 170.89 27.58, 174.96 34.71 C179.03 41.84, 179.8 52.53, 178.13 60.09 C176.46 67.64, 171.82 74.07, 164.94 80.04 C158.05 86.01, 148.14 91.91, 136.83 95.89 C125.53 99.86, 110.19 103.33, 97.11 103.88 C84.04 104.43, 70.28 101.74, 58.37 99.2 C46.46 96.65, 34.8 94.02, 25.66 88.6 C16.52 83.18, 7.75 73.83, 3.54 66.69 C-0.68 59.55, -1.57 53.14, 0.38 45.77 C2.34 38.39, 8.09 28.88, 15.24 22.43 C22.39 15.98, 32.16 10.91, 43.29 7.06 C54.42 3.21, 68.73 0.02, 82.02 -0.67 C95.3 -1.35, 116.34 2.02, 123.01 2.96 C129.68 3.9, 122.67 4.21, 122.05 4.98" stroke="none" stroke-width="0" fill="#e599f7"/><path d="M83.09 -0.85 C95.11 -2.41, 110.44 -0.08, 122.53 2.72 C134.61 5.53, 146.72 10.31, 155.6 15.98 C164.48 21.64, 172.01 29.53, 175.82 36.72 C179.63 43.92, 180.51 51.54, 178.44 59.14 C176.38 66.75, 170.86 76.03, 163.44 82.33 C156.01 88.63, 145.19 93.36, 133.89 96.94 C122.6 100.52, 108.58 103.24, 95.69 103.79 C82.8 104.34, 68.36 102.84, 56.56 100.23 C44.75 97.62, 33.58 93.59, 24.87 88.14 C16.17 82.7, 8.33 74.94, 4.33 67.57 C0.33 60.21, -1.1 51.37, 0.89 43.95 C2.88 36.53, 8.74 29.41, 16.27 23.07 C23.79 16.73, 34.02 9.85, 46.04 5.92 C58.05 1.98, 80.04 0.12, 88.38 -0.54 C96.73 -1.21, 95.81 0.84, 96.11 1.92 M131.07 5 C142.82 7.66, 154.04 16.08, 162.05 22 C170.06 27.92, 176.85 33.28, 179.13 40.52 C181.41 47.77, 178.98 57.86, 175.74 65.46 C172.49 73.06, 168.01 80.62, 159.65 86.12 C151.29 91.62, 137.68 95.59, 125.58 98.46 C113.49 101.33, 100.02 103.35, 87.08 103.33 C74.13 103.32, 59.4 101.5, 47.9 98.36 C36.4 95.23, 25.56 90.37, 18.1 84.52 C10.64 78.67, 5.77 70.8, 3.12 63.27 C0.48 55.73, -0.99 46.99, 2.24 39.33 C5.47 31.66, 13.81 23.17, 22.52 17.28 C31.23 11.38, 42.66 6.99, 54.5 3.97 C66.33 0.95, 80.66 -1.4, 93.51 -0.87 C106.37 -0.34, 125.49 6.12, 131.61 7.17 C137.72 8.22, 130.9 4.91, 130.2 5.41" stroke="#9c36b5" stroke-width="2" fill="none"/></g><g transform="translate(631.6 52) rotate(0 80 10)"><text x="80" y="0" font-family="Virgil, Segoe UI Emoji" font-size="16px" fill="#9c36b5" text-anchor="middle" style="white-space: pre;" direction="ltr" dominant-baseline="text-before-edge">LLM</text><text x="80" y="20" font-family="Virgil, Segoe UI Emoji" font-size="16px" fill="#9c36b5" text-anchor="middle" style="white-space: pre;" direction="ltr" dominant-baseline="text-before-edge">(Claude, etc.)</text></g><g stroke-linecap="round" transform="translate(621.6 230) rotate(0 90 52)"><path d="M26 0 C56.93 0.47, 88.21 -3.97, 154 0 C172.61 3.26, 182.74 10.27, 180 26 C178.59 40.8, 178.28 50.52, 180 78 C182.17 98.4, 169.79 101.9, 154 104 C102.23 104.77, 48.52 100.68, 26 104 C6.95 100.47, 2.81 95.52, 0 78 C1.35 63.31, 2.76 48.32, 0 26 C-2.66 10.45, 9.51 -2.78, 26 0" stroke="none" stroke-width="0" fill="#ffa8a8"/><path d="M26 0 C55.83 -2.8, 80.56 0.85, 154 0 M26 0 C74.92 -0.09, 125 -0.19, 154 0 M154 0 C172.65 -1.07, 180.58 10.23, 180 26 M154 0 C171.3 2.29, 178.13 9.31, 180 26 M180 26 C179.22 39.22, 179.97 55.87, 180 78 M180 26 C179.27 43.96, 179.08 61.42, 180 78 M180 78 C178.69 93.92, 169.52 103.28, 154 104 M180 78 C178.11 95.53, 172.02 102.37, 154 104 M154 104 C117.98 103.6, 81.62 104.3, 26 104 M154 104 C110.6 103.89, 65.23 103.97, 26 104 M26 104 C9.23 103.8, -0.23 94.67, 0 78 M26 104 C9.21 102.13, -1.48 93.08, 0 78 M0 78 C0.03 67.19, -1.2 54.41, 0 26 M0 78 C0.34 63.01, 0.25 47.26, 0 26 M0 26 C1.74 10.03, 7.83 -0.76, 26 0 M0 26 C-0.92 10.71, 7.21 -1.47, 26 0" stroke="#c92a2a" stroke-width="2" fill="none"/></g><g transform="translate(631.6 272) rotate(0 80 10)"><text x="80" y="0" font-family="Virgil, Segoe UI Emoji" font-size="16px" fill="#c92a2a" text-anchor="middle" style="white-space: pre;" direction="ltr" dominant-baseline="text-before-edge">MCP Server</text><text x="80" y="20" font-family="Virgil, Segoe UI Emoji" font-size="16px" fill="#c92a2a" text-anchor="middle" style="white-space: pre;" direction="ltr" dominant-baseline="text-before-edge">(index.ts)</text></g><g stroke-linecap="round" transform="translate(621.6 450) rotate(0 90 52)"><path d="M26 0 C57.25 1.35, 92.13 2.77, 154 0 C173.45 0.81, 180.16 8.8, 180 26 C180.78 46.06, 181.07 66.57, 180 78 C180.52 95.57, 173.63 103.82, 154 104 C117.58 103.69, 77.91 105.15, 26 104 C10.78 105.56, -2.73 96.63, 0 78 C-3.84 61.29, -0.26 47.08, 0 26 C-1.75 6.16, 10.02 -1.12, 26 0" stroke="none" stroke-width="0" fill="#d0bfff"/><path d="M26 0 C70.63 -0.05, 118.48 -2.01, 154 0 M26 0 C53.52 -0.77, 80.1 0.85, 154 0 M154 0 C172.81 -0.12, 179.17 6.9, 180 26 M154 0 C169.48 2.09, 178.23 9.19, 180 26 M180 26 C179.06 44.93, 178.44 62.78, 180 78 M180 26 C180.53 46.17, 179.84 65.33, 180 78 M180 78 C178.4 93.8, 172.7 104.68, 154 104 M180 78 C182.13 94.06, 169.58 105.42, 154 104 M154 104 C125.56 103.48, 98.61 106.46, 26 104 M154 104 C106.62 102.03, 56.72 102.4, 26 104 M26 104 C9.4 105.05, 0.05 94.43, 0 78 M26 104 C6.8 102.77, 1.26 93.65, 0 78 M0 78 C-1.46 67.33, -0.37 53.7, 0 26 M0 78 C-0.39 64.61, -0.53 48.87, 0 26 M0 26 C0.85 9.63, 8 1.91, 26 0 M0 26 C-0.39 7.11, 7.97 0.63, 26 0" stroke="#7048e8" stroke-width="2" fill="none"/></g><g transform="translate(631.6 492) rotate(0 80 10)"><text x="80" y="0" font-family="Virgil, Segoe UI Emoji" font-size="16px" fill="#7048e8" text-anchor="middle" style="white-space: pre;" direction="ltr" dominant-baseline="text-before-edge">Executor</text><text x="80" y="20" font-family="Virgil, Segoe UI Emoji" font-size="16px" fill="#7048e8" text-anchor="middle" style="white-space: pre;" direction="ltr" dominant-baseline="text-before-edge">(new Function)</text></g><g stroke-linecap="round" transform="translate(621.6 670) rotate(0 90 52)"><path d="M26 0 C68.83 1.82, 118.21 2.33, 154 0 C169.93 0.4, 182.04 10.44, 180 26 C178.91 39.93, 181.02 60.61, 180 78 C180.35 92.58, 171.97 105.31, 154 104 C125.5 102.95, 93.16 104.39, 26 104 C6.38 104.01, 3.31 95.83, 0 78 C-0.58 59.56, 1.04 37.47, 0 26 C-1.57 8.27, 5.89 -0.76, 26 0" stroke="none" stroke-width="0" fill="#d0bfff"/><path d="M26 0 C66.04 0.97, 104.71 -0.45, 154 0 M26 0 C71.59 -0.7, 116.12 -1.45, 154 0 M154 0 C172.02 0.7, 179.53 9.43, 180 26 M154 0 C170.15 0, 180.18 10.36, 180 26 M180 26 C179.69 40.35, 180.76 56.43, 180 78 M180 26 C178.77 42.77, 179.48 60.17, 180 78 M180 78 C179.83 95.88, 169.73 102.43, 154 104 M180 78 C180.2 96.88, 172.92 106.02, 154 104 M154 104 C115.6 103.62, 77.99 104.14, 26 104 M154 104 C115.41 102.78, 74.56 102.28, 26 104 M26 104 C10.37 105.5, -0.39 96.32, 0 78 M26 104 C10.81 103.63, -1.02 93.06, 0 78 M0 78 C-2.46 57.7, -2.47 38.84, 0 26 M0 78 C-0.15 59.02, 0.33 38.19, 0 26 M0 26 C1.54 7.21, 8.41 -0.97, 26 0 M0 26 C-1.07 6.42, 8.65 -1.51, 26 0" stroke="#7048e8" stroke-width="2" fill="none"/></g><g transform="translate(631.6 712) rotate(0 80 10)"><text x="80" y="0" font-family="Virgil, Segoe UI Emoji" font-size="16px" fill="#7048e8" text-anchor="middle" style="white-space: pre;" direction="ltr" dominant-baseline="text-before-edge">Diagram SDK</text><text x="80" y="20" font-family="Virgil, Segoe UI Emoji" font-size="16px" fill="#7048e8" text-anchor="middle" style="white-space: pre;" direction="ltr" dominant-baseline="text-before-edge">(sdk.ts)</text></g><g stroke-linecap="round" transform="translate(341.6 890) rotate(0 90 52)"><path d="M26 0 C58.08 -0.92, 82.24 2.17, 154 0 C168.84 1.39, 183.51 9.7, 180 26 C175.69 36.42, 178.31 54.24, 180 78 C181.45 95.76, 168.48 106.84, 154 104 C118.1 106.72, 74.43 106.15, 26 104 C10.83 104.63, 2.16 98.92, 0 78 C0.81 57.39, 0.42 39.53, 0 26 C0.72 9.79, 7.63 3.55, 26 0" stroke="none" stroke-width="0" fill="#b2f2bb"/><path d="M26 0 C64.01 0.56, 100.42 -0.55, 154 0 M26 0 C62.66 0.14, 100.86 0.01, 154 0 M154 0 C172.12 -1.69, 180.97 6.9, 180 26 M154 0 C169.38 -1.69, 178.29 10.71, 180 26 M180 26 C182.23 46.4, 180.83 64.12, 180 78 M180 26 C179.25 41.51, 180.53 54.95, 180 78 M180 78 C179.38 95.62, 169.89 104.77, 154 104 M180 78 C179.24 93.4, 171.33 104.63, 154 104 M154 104 C121.41 102.71, 91.33 103.93, 26 104 M154 104 C112.71 104.54, 70.42 104.18, 26 104 M26 104 C10.57 105.04, 0.97 93.71, 0 78 M26 104 C10.22 102.53, 1.5 93.39, 0 78 M0 78 C-0.51 64.14, -1.08 49.02, 0 26 M0 78 C-0.06 63.46, -0.58 49.81, 0 26 M0 26 C1 9.68, 8.51 -0.68, 26 0 M0 26 C-1.38 9.86, 10.46 0.66, 26 0" stroke="#2f9e44" stroke-width="2" fill="none"/></g><g transform="translate(351.6 932) rotate(0 80 10)"><text x="80" y="0" font-family="Virgil, Segoe UI Emoji" font-size="16px" fill="#2f9e44" text-anchor="middle" style="white-space: pre;" direction="ltr" dominant-baseline="text-before-edge">Graphviz WASM</text><text x="80" y="20" font-family="Virgil, Segoe UI Emoji" font-size="16px" fill="#2f9e44" text-anchor="middle" style="white-space: pre;" direction="ltr" dominant-baseline="text-before-edge">(layout.ts)</text></g><g stroke-linecap="round" transform="translate(621.6 890) rotate(0 90 52)"><path d="M26 0 C67.86 -0.65, 112.9 -1.84, 154 0 C174.67 -1.1, 177.36 8.46, 180 26 C177.43 49.94, 180.04 69.96, 180 78 C182.99 94.12, 170.35 103.47, 154 104 C107.42 98.82, 65.18 102.18, 26 104 C10.71 101.06, 1.7 98.49, 0 78 C0.5 57.86, 4.02 40.91, 0 26 C0.3 6.38, 8.79 -0.94, 26 0" stroke="none" stroke-width="0" fill="#ffec99"/><path d="M26 0 C74.94 -1.77, 124.78 -0.47, 154 0 M26 0 C76.33 -0.39, 127.15 0.32, 154 0 M154 0 C171.75 -1.95, 181.13 9.63, 180 26 M154 0 C172.04 1.05, 180.19 6.97, 180 26 M180 26 C178.85 40.07, 180.56 52.51, 180 78 M180 26 C180.24 39.08, 179.36 54.65, 180 78 M180 78 C179.41 93.84, 171.79 102.25, 154 104 M180 78 C178.92 97.16, 170.22 105.7, 154 104 M154 104 C104.33 103.4, 55.2 104.15, 26 104 M154 104 C124.74 103.27, 93.89 102.84, 26 104 M26 104 C7.9 104.32, -1.78 94.86, 0 78 M26 104 C9.6 103.9, 1.44 97.46, 0 78 M0 78 C-1.23 61.08, -1.38 40.23, 0 26 M0 78 C0.85 66.83, 0.22 54.33, 0 26 M0 26 C-1.9 9.06, 7.63 1.46, 26 0 M0 26 C-2.26 8.69, 10.91 1.02, 26 0" stroke="#f08c00" stroke-width="2" fill="none"/></g><g transform="translate(631.6 932) rotate(0 80 10)"><text x="80" y="0" font-family="Virgil, Segoe UI Emoji" font-size="16px" fill="#f08c00" text-anchor="middle" style="white-space: pre;" direction="ltr" dominant-baseline="text-before-edge">Zig WASM</text><text x="80" y="20" font-family="Virgil, Segoe UI Emoji" font-size="16px" fill="#f08c00" text-anchor="middle" style="white-space: pre;" direction="ltr" dominant-baseline="text-before-edge">(validate)</text></g><g stroke-linecap="round" transform="translate(61.60000000000002 890) rotate(0 90 52)"><path d="M26 0 C69.23 -3.81, 109.99 -1.11, 154 0 C169.35 -1.97, 176.86 7.35, 180 26 C181.25 41.53, 176.34 61.56, 180 78 C180.4 93.33, 169.92 100.49, 154 104 C111.71 104.08, 65.7 106.22, 26 104 C6.72 105.65, 2.83 96.78, 0 78 C3.84 65.64, 2.25 50.04, 0 26 C-2.61 6, 11.32 2.47, 26 0" stroke="none" stroke-width="0" fill="#ffc9c9"/><path d="M26 0 C53.89 2.39, 84.37 0.51, 154 0 M26 0 C62.71 0.35, 99.7 1.84, 154 0 M154 0 C170.37 -1.87, 179.59 8.27, 180 26 M154 0 C170.51 -1.51, 181.43 8.92, 180 26 M180 26 C181.32 45.01, 181.23 63.78, 180 78 M180 26 C179.49 38.78, 179.82 52.15, 180 78 M180 78 C180.35 95.34, 171.77 102.13, 154 104 M180 78 C181.57 94.71, 171.89 103.69, 154 104 M154 104 C116.17 104.56, 78.58 105.97, 26 104 M154 104 C107.38 102.66, 60.15 102.66, 26 104 M26 104 C10.08 105.23, 1.94 97.08, 0 78 M26 104 C10.94 103.74, 1.38 94.1, 0 78 M0 78 C0.07 66.19, -1.58 57.71, 0 26 M0 78 C-0.3 58.82, -0.67 41.36, 0 26 M0 26 C1.2 8, 8.13 1.48, 26 0 M0 26 C-0.46 9.23, 10.58 -1.44, 26 0" stroke="#e03131" stroke-width="2" fill="none"/></g><g transform="translate(71.60000000000002 932) rotate(0 80 10)"><text x="80" y="0" font-family="Virgil, Segoe UI Emoji" font-size="16px" fill="#e03131" text-anchor="middle" style="white-space: pre;" direction="ltr" dominant-baseline="text-before-edge">Upload</text><text x="80" y="20" font-family="Virgil, Segoe UI Emoji" font-size="16px" fill="#e03131" text-anchor="middle" style="white-space: pre;" direction="ltr" dominant-baseline="text-before-edge">(upload.ts)</text></g><g stroke-linecap="round" transform="translate(901.6 890) rotate(0 90 52)"><path d="M26 0 C77.05 1, 125.72 3.99, 154 0 C174.54 -3.23, 177.19 5.86, 180 26 C179.43 47.59, 177.73 61.83, 180 78 C182.92 96.14, 168.29 100.42, 154 104 C106.05 101.66, 59.13 104.8, 26 104 C10.77 103.87, -1 91.86, 0 78 C2.79 62.67, 0.17 48.92, 0 26 C-1.89 8.59, 7.05 -2.64, 26 0" stroke="none" stroke-width="0" fill="#ffe8cc"/><path d="M26 0 C54.45 -1.71, 85.08 -2.1, 154 0 M26 0 C74.1 -2.22, 123.56 -0.97, 154 0 M154 0 C171.24 0.73, 181.94 8.95, 180 26 M154 0 C172.89 -0.67, 179.01 7.21, 180 26 M180 26 C179.43 41.46, 181.51 58.58, 180 78 M180 26 C179.83 39.47, 179.68 51.49, 180 78 M180 78 C179.77 94.2, 173.24 104.71, 154 104 M180 78 C180.34 96.97, 172.82 105.84, 154 104 M154 104 C123.62 105.7, 92.52 104.62, 26 104 M154 104 C113.01 106.01, 69.97 104.95, 26 104 M26 104 C8.49 103.13, -1.8 94.39, 0 78 M26 104 C8.37 105.79, -1.43 97.27, 0 78 M0 78 C1.8 64.79, -1.79 51.8, 0 26 M0 78 C0.78 63.85, 0.53 50.69, 0 26 M0 26 C-1.17 9.36, 9.69 -0.78, 26 0 M0 26 C-0.56 10.1, 9.97 0.85, 26 0" stroke="#fd7e14" stroke-width="2" fill="none"/></g><g transform="translate(911.6 932) rotate(0 80 10)"><text x="80" y="0" font-family="Virgil, Segoe UI Emoji" font-size="16px" fill="#fd7e14" text-anchor="middle" style="white-space: pre;" direction="ltr" dominant-baseline="text-before-edge">Image Export</text><text x="80" y="20" font-family="Virgil, Segoe UI Emoji" font-size="16px" fill="#fd7e14" text-anchor="middle" style="white-space: pre;" direction="ltr" dominant-baseline="text-before-edge">(png.ts)</text></g><g stroke-linecap="round" transform="translate(61.60000000000002 1110) rotate(0 90 52)"><path d="M26 0 C60.63 0.48, 99.62 -0.99, 154 0 C169.12 -1.68, 177.51 10.74, 180 26 C179 34.49, 178 48, 180 78 C178.3 97.77, 169.03 106.05, 154 104 C124.1 101.34, 91.89 101.12, 26 104 C8.89 107.48, -2.22 93.59, 0 78 C1.05 63.83, -1.94 52.6, 0 26 C-1.98 10.5, 10.74 0.88, 26 0" stroke="none" stroke-width="0" fill="#a5d8ff"/><path d="M26 0 C58.23 1.79, 92.07 1.42, 154 0 M26 0 C72.21 -0.67, 118.09 -0.63, 154 0 M154 0 C169.36 1.09, 178.27 9.45, 180 26 M154 0 C173.46 0.92, 180.39 7.29, 180 26 M180 26 C178.29 39.32, 178.99 54.7, 180 78 M180 26 C180.18 39.1, 180.51 53.39, 180 78 M180 78 C178.49 96.99, 171.59 105.35, 154 104 M180 78 C180.52 96.09, 171.54 106.12, 154 104 M154 104 C107.76 101.21, 63.1 102.86, 26 104 M154 104 C113.73 103.96, 74.86 104.7, 26 104 M26 104 C8.57 102.27, -0.36 96.53, 0 78 M26 104 C9.02 104.36, -1.55 96.96, 0 78 M0 78 C1.13 62.27, -2 44.88, 0 26 M0 78 C-0.02 63.74, 0.16 47.58, 0 26 M0 26 C0.32 10.39, 8.35 0.8, 26 0 M0 26 C-1.58 8.92, 10.46 -1.98, 26 0" stroke="#1971c2" stroke-width="2" fill="none"/></g><g transform="translate(71.60000000000002 1152) rotate(0 80 10)"><text x="80" y="0" font-family="Virgil, Segoe UI Emoji" font-size="16px" fill="#1971c2" text-anchor="middle" style="white-space: pre;" direction="ltr" dominant-baseline="text-before-edge">excalidraw.com</text><text x="80" y="20" font-family="Virgil, Segoe UI Emoji" font-size="16px" fill="#1971c2" text-anchor="middle" style="white-space: pre;" direction="ltr" dominant-baseline="text-before-edge">URL</text></g><g stroke-linecap="round" transform="translate(341.6 1110) rotate(0 90 52)"><path d="M26 0 C56.44 -3.13, 90.32 -3.35, 154 0 C169.89 -0.06, 182.04 10.45, 180 26 C176.74 34.78, 180.92 49.13, 180 78 C181.86 91.78, 171.22 101.21, 154 104 C106.26 104.73, 59.46 100.36, 26 104 C8.32 105.2, -3.58 98.45, 0 78 C2.12 58.97, 3.18 38.04, 0 26 C0.23 6, 7.43 0.65, 26 0" stroke="none" stroke-width="0" fill="#a5d8ff"/><path d="M26 0 C54.7 -0.51, 85.06 -0.52, 154 0 M26 0 C58.24 0.14, 90.2 -1.12, 154 0 M154 0 C171.16 -0.41, 180.17 7.79, 180 26 M154 0 C173.34 1.54, 178.63 8.35, 180 26 M180 26 C179.23 48.66, 178.86 68.97, 180 78 M180 26 C180.77 39.48, 180.19 50.87, 180 78 M180 78 C178.12 95.66, 169.54 102.38, 154 104 M180 78 C179.34 96.1, 171.8 104, 154 104 M154 104 C114.87 105.96, 73.92 105.58, 26 104 M154 104 C106.34 103.22, 56.03 103.61, 26 104 M26 104 C7.21 102.95, 0.15 94.51, 0 78 M26 104 C9.08 103.46, 0.96 95.91, 0 78 M0 78 C-2.02 59.03, -1.68 37.9, 0 26 M0 78 C0.79 66.78, -0.01 56.05, 0 26 M0 26 C1.07 9.84, 9.44 0.41, 26 0 M0 26 C1.88 8.08, 9.88 0.99, 26 0" stroke="#1971c2" stroke-width="2" fill="none"/></g><g transform="translate(351.6 1152) rotate(0 80 10)"><text x="80" y="0" font-family="Virgil, Segoe UI Emoji" font-size="16px" fill="#1971c2" text-anchor="middle" style="white-space: pre;" direction="ltr" dominant-baseline="text-before-edge">.excalidraw</text><text x="80" y="20" font-family="Virgil, Segoe UI Emoji" font-size="16px" fill="#1971c2" text-anchor="middle" style="white-space: pre;" direction="ltr" dominant-baseline="text-before-edge">file</text></g><g stroke-linecap="round" transform="translate(621.6 1110) rotate(0 90 52)"><path d="M26 0 C61.11 -0.59, 93.17 -0.97, 154 0 C168.79 -3.52, 181.52 10.52, 180 26 C183.41 41.92, 176.77 61.54, 180 78 C176.43 97.7, 174.72 102.32, 154 104 C117.59 105.91, 81.93 105.62, 26 104 C5.26 105.59, 0.83 94.13, 0 78 C-2.06 62.35, -1.61 41.87, 0 26 C0.38 9.8, 9.5 0.37, 26 0" stroke="none" stroke-width="0" fill="#a5d8ff"/><path d="M26 0 C66.87 -1.38, 112.81 0.57, 154 0 M26 0 C62.43 0.4, 96.8 -1.5, 154 0 M154 0 C172.3 0.43, 178.16 8.56, 180 26 M154 0 C172.65 -0.17, 179.97 9.14, 180 26 M180 26 C181.31 38.81, 181.25 48.77, 180 78 M180 26 C180.76 45.78, 181.1 65.06, 180 78 M180 78 C179.68 93.98, 169.56 104.4, 154 104 M180 78 C180.02 94, 173.41 102.77, 154 104 M154 104 C115.42 103.76, 79.44 102.49, 26 104 M154 104 C125.15 104.92, 97.88 105.94, 26 104 M26 104 C8.79 105.2, 1.43 95.14, 0 78 M26 104 C8.85 103.71, 0.45 95.58, 0 78 M0 78 C-1.66 64.1, -0.78 47.59, 0 26 M0 78 C0.98 64.79, 1.39 50.9, 0 26 M0 26 C1.06 8.89, 9.61 -1.1, 26 0 M0 26 C0.04 7.65, 6.79 -0.33, 26 0" stroke="#1971c2" stroke-width="2" fill="none"/></g><g transform="translate(631.6 1152) rotate(0 80 10)"><text x="80" y="0" font-family="Virgil, Segoe UI Emoji" font-size="16px" fill="#1971c2" text-anchor="middle" style="white-space: pre;" direction="ltr" dominant-baseline="text-before-edge">.drawmode.ts</text><text x="80" y="20" font-family="Virgil, Segoe UI Emoji" font-size="16px" fill="#1971c2" text-anchor="middle" style="white-space: pre;" direction="ltr" dominant-baseline="text-before-edge">sidecar</text></g><g stroke-linecap="round" transform="translate(901.6 1110) rotate(0 90 52)"><path d="M26 0 C64.79 -2.43, 102.39 -2.05, 154 0 C172.29 -0.7, 179.09 7.25, 180 26 C177.08 39.94, 176.08 57.83, 180 78 C180.41 97.47, 169.28 105.21, 154 104 C124.85 102.8, 93.76 105.14, 26 104 C8.15 103.3, -1.47 97.93, 0 78 C-2.64 66.49, -2.84 52.01, 0 26 C-1.54 9.24, 6.28 1.59, 26 0" stroke="none" stroke-width="0" fill="#a5d8ff"/><path d="M26 0 C69.95 1.39, 118.07 2.6, 154 0 M26 0 C66.96 1.38, 109.2 1.18, 154 0 M154 0 C170.09 0.75, 181.88 9.31, 180 26 M154 0 C169.78 -1.87, 178.71 9.19, 180 26 M180 26 C179.23 41.8, 178.83 57.63, 180 78 M180 26 C178.79 42.92, 179.11 62.6, 180 78 M180 78 C178.32 96.53, 172.38 103.03, 154 104 M180 78 C182.15 95.87, 169.46 102.14, 154 104 M154 104 C124.01 103.34, 94.3 106.62, 26 104 M154 104 C105.34 105.87, 57.71 105.42, 26 104 M26 104 C10.33 103.95, -1.46 94.85, 0 78 M26 104 C8.71 104.44, 0.48 94.15, 0 78 M0 78 C-0.05 66.4, -0.85 52.38, 0 26 M0 78 C-0.16 57.35, -0.79 38.81, 0 26 M0 26 C0.44 6.89, 9.86 0.78, 26 0 M0 26 C0.96 7.16, 7.69 1.16, 26 0" stroke="#1971c2" stroke-width="2" fill="none"/></g><g transform="translate(911.6 1152) rotate(0 80 10)"><text x="80" y="0" font-family="Virgil, Segoe UI Emoji" font-size="16px" fill="#1971c2" text-anchor="middle" style="white-space: pre;" direction="ltr" dominant-baseline="text-before-edge">PNG / SVG</text><text x="80" y="20" font-family="Virgil, Segoe UI Emoji" font-size="16px" fill="#1971c2" text-anchor="middle" style="white-space: pre;" direction="ltr" dominant-baseline="text-before-edge">file</text></g><g stroke-linecap="round"><g transform="translate(711.6 114) rotate(0 0 58)"><path d="M0 0 C0 38.67, 0 77.34, 0 116 M0 0 C0 45.29, 0 90.59, 0 116" stroke="#c92a2a" stroke-width="2" fill="none"/></g><g transform="translate(711.6 114) rotate(0 0 58)"><path d="M-10.26 87.81 C-6.84 97.21, -3.42 106.61, 0 116 M-10.26 87.81 C-6.25 98.82, -2.25 109.82, 0 116" stroke="#c92a2a" stroke-width="2" fill="none"/></g><g transform="translate(711.6 114) rotate(0 0 58)"><path d="M10.26 87.81 C6.84 97.21, 3.42 106.61, 0 116 M10.26 87.81 C6.25 98.82, 2.25 109.82, 0 116" stroke="#c92a2a" stroke-width="2" fill="none"/></g></g><mask/><g transform="translate(612 160) rotate(0 45.80000000000001 10)"><text x="45.800000000000004" y="0" font-family="Virgil, Segoe UI Emoji" font-size="14px" fill="#1e1e1e" text-anchor="middle" style="white-space: pre;" direction="ltr" dominant-baseline="text-before-edge">draw tool</text></g><g stroke-linecap="round"><g transform="translate(711.6 334) rotate(0 0 58)"><path d="M0 0 C0 30.17, 0 60.34, 0 116 M0 0 C0 42.16, 0 84.32, 0 116" stroke="#7048e8" stroke-width="2" fill="none"/></g><g transform="translate(711.6 334) rotate(0 0 58)"><path d="M-10.26 87.81 C-7.59 95.14, -4.92 102.47, 0 116 M-10.26 87.81 C-6.53 98.06, -2.8 108.3, 0 116" stroke="#7048e8" stroke-width="2" fill="none"/></g><g transform="translate(711.6 334) rotate(0 0 58)"><path d="M10.26 87.81 C7.59 95.14, 4.92 102.47, 0 116 M10.26 87.81 C6.53 98.06, 2.8 108.3, 0 116" stroke="#7048e8" stroke-width="2" fill="none"/></g></g><mask/><g transform="translate(654 380) rotate(0 24.80000000000001 10)"><text x="24.8" y="0" font-family="Virgil, Segoe UI Emoji" font-size="14px" fill="#1e1e1e" text-anchor="middle" style="white-space: pre;" direction="ltr" dominant-baseline="text-before-edge">code</text></g><g stroke-linecap="round"><g transform="translate(711.6 554) rotate(0 0 58)"><path d="M0 0 C0 33.08, 0 66.15, 0 116 M0 0 C0 44.5, 0 89, 0 116" stroke="#7048e8" stroke-width="2" fill="none"/></g><g transform="translate(711.6 554) rotate(0 0 58)"><path d="M-10.26 87.81 C-7.33 95.85, -4.41 103.89, 0 116 M-10.26 87.81 C-6.32 98.62, -2.39 109.44, 0 116" stroke="#7048e8" stroke-width="2" fill="none"/></g><g transform="translate(711.6 554) rotate(0 0 58)"><path d="M10.26 87.81 C7.33 95.85, 4.41 103.89, 0 116 M10.26 87.81 C6.32 98.62, 2.39 109.44, 0 116" stroke="#7048e8" stroke-width="2" fill="none"/></g></g><mask/><g transform="translate(595.2 600) rotate(0 54.19999999999999 10)"><text x="54.2" y="0" font-family="Virgil, Segoe UI Emoji" font-size="14px" fill="#1e1e1e" text-anchor="middle" style="white-space: pre;" direction="ltr" dominant-baseline="text-before-edge">Diagram API</text></g><g stroke-linecap="round"><g transform="translate(711.6 774) rotate(0 -140 58)"><path d="M0 0 C0 18.63, 0 37.26, 0 58 M0 0 C0 14.71, 0 29.42, 0 58 M0 58 C-69.33 58, -138.66 58, -280 58 M0 58 C-72.07 58, -144.15 58, -280 58 M-280 58 C-280 77.67, -280 97.33, -280 116 M-280 58 C-280 71.1, -280 84.2, -280 116" stroke="#2f9e44" stroke-width="2" fill="none"/></g><g transform="translate(711.6 774) rotate(0 -140 58)"><path d="M-289.92 88.75 C-286.73 97.5, -283.55 106.26, -280 116 M-289.92 88.75 C-287.4 95.66, -284.89 102.57, -280 116" stroke="#2f9e44" stroke-width="2" fill="none"/></g><g transform="translate(711.6 774) rotate(0 -140 58)"><path d="M-270.08 88.75 C-273.27 97.5, -276.45 106.26, -280 116 M-270.08 88.75 C-272.6 95.66, -275.11 102.57, -280 116" stroke="#2f9e44" stroke-width="2" fill="none"/></g></g><mask/><g transform="translate(571.6 792) rotate(0 33.19999999999999 10)"><text x="33.2" y="0" font-family="Virgil, Segoe UI Emoji" font-size="14px" fill="#1e1e1e" text-anchor="middle" style="white-space: pre;" direction="ltr" dominant-baseline="text-before-edge">layout</text></g><g stroke-linecap="round"><g transform="translate(679.6 774) rotate(0 16 58)"><path d="M0 0 C0 14.84, 0 29.69, 0 58 M0 0 C0 15.99, 0 31.98, 0 58 M0 58 C7.12 58, 14.24 58, 32 58 M0 58 C10.61 58, 21.21 58, 32 58 M32 58 C32 80.58, 32 103.17, 32 116 M32 58 C32 80.1, 32 102.2, 32 116" stroke="#f08c00" stroke-width="2" fill="none"/></g><g transform="translate(679.6 774) rotate(0 16 58)"><path d="M22.08 88.75 C24.62 95.72, 27.16 102.7, 32 116 M22.08 88.75 C24.82 96.26, 27.55 103.77, 32 116" stroke="#f08c00" stroke-width="2" fill="none"/></g><g transform="translate(679.6 774) rotate(0 16 58)"><path d="M41.92 88.75 C39.38 95.72, 36.84 102.7, 32 116 M41.92 88.75 C39.18 96.26, 36.45 103.77, 32 116" stroke="#f08c00" stroke-width="2" fill="none"/></g></g><mask/><g transform="translate(770.8000000000001 791) rotate(0 41.60000000000002 10)"><text x="41.6" y="0" font-family="Virgil, Segoe UI Emoji" font-size="14px" fill="#1e1e1e" text-anchor="middle" style="white-space: pre;" direction="ltr" dominant-baseline="text-before-edge">validate</text></g><g stroke-linecap="round"><g transform="translate(743.6 774) rotate(0 -296 58)"><path d="M0 0 C0 23.07, 0 46.15, 0 58 M0 0 C0 18.09, 0 36.17, 0 58 M0 58 C-187.36 58, -374.72 58, -592 58 M0 58 C-155.57 58, -311.14 58, -592 58 M-592 58 C-592 74.73, -592 91.46, -592 116 M-592 58 C-592 80.19, -592 102.39, -592 116" stroke="#e03131" stroke-width="2" fill="none"/></g><g transform="translate(743.6 774) rotate(0 -296 58)"><path d="M-601.92 88.75 C-597.97 99.59, -594.03 110.43, -592 116 M-601.92 88.75 C-598.83 97.25, -595.73 105.75, -592 116" stroke="#e03131" stroke-width="2" fill="none"/></g><g transform="translate(743.6 774) rotate(0 -296 58)"><path d="M-582.08 88.75 C-586.03 99.59, -589.97 110.43, -592 116 M-582.08 88.75 C-585.17 97.25, -588.27 105.75, -592 116" stroke="#e03131" stroke-width="2" fill="none"/></g></g><mask/><g transform="translate(447.6 848) rotate(0 66.80000000000001 10)"><text x="66.80000000000001" y="0" font-family="Virgil, Segoe UI Emoji" font-size="14px" fill="#1e1e1e" text-anchor="middle" style="white-space: pre;" direction="ltr" dominant-baseline="text-before-edge">encrypt + POST</text></g><g stroke-linecap="round"><g transform="translate(695.6 774) rotate(0 148 58)"><path d="M0 0 C0 15.16, 0 30.32, 0 58 M0 0 C0 16.6, 0 33.2, 0 58 M0 58 C81.86 58, 163.72 58, 296 58 M0 58 C78.6 58, 157.21 58, 296 58 M296 58 C296 80.3, 296 102.6, 296 116 M296 58 C296 72.72, 296 87.43, 296 116" stroke="#fd7e14" stroke-width="2" fill="none"/></g><g transform="translate(695.6 774) rotate(0 148 58)"><path d="M286.08 88.75 C288.67 95.87, 291.27 102.99, 296 116 M286.08 88.75 C288.92 96.55, 291.76 104.35, 296 116" stroke="#fd7e14" stroke-width="2" fill="none"/></g><g transform="translate(695.6 774) rotate(0 148 58)"><path d="M305.92 88.75 C303.33 95.87, 300.73 102.99, 296 116 M305.92 88.75 C303.08 96.55, 300.24 104.35, 296 116" stroke="#fd7e14" stroke-width="2" fill="none"/></g></g><mask/><g transform="translate(843.6 848) rotate(0 41.60000000000002 10)"><text x="41.6" y="0" font-family="Virgil, Segoe UI Emoji" font-size="14px" fill="#1e1e1e" text-anchor="middle" style="white-space: pre;" direction="ltr" dominant-baseline="text-before-edge">elements</text></g><g stroke-linecap="round"><g transform="translate(727.6 774) rotate(0 -148 168)"><path d="M0 0 C0 45.66, 0 91.33, 0 168 M0 0 C0 44.77, 0 89.54, 0 168 M0 168 C-70.44 168, -140.87 168, -296 168 M0 168 C-111.88 168, -223.75 168, -296 168 M-296 168 C-296 229.36, -296 290.71, -296 336 M-296 168 C-296 213.73, -296 259.46, -296 336" stroke="#1971c2" stroke-width="2" fill="none"/></g><g transform="translate(727.6 774) rotate(0 -148 168)"><path d="M-306.26 307.81 C-303.47 315.47, -300.68 323.13, -296 336 M-306.26 307.81 C-303.53 315.32, -300.79 322.83, -296 336" stroke="#1971c2" stroke-width="2" fill="none"/></g><g transform="translate(727.6 774) rotate(0 -148 168)"><path d="M-285.74 307.81 C-288.53 315.47, -291.32 323.13, -296 336 M-285.74 307.81 C-288.47 315.32, -291.21 322.83, -296 336" stroke="#1971c2" stroke-width="2" fill="none"/></g></g><mask/><g transform="translate(579.6 902) rotate(0 50 10)"><text x="50" y="0" font-family="Virgil, Segoe UI Emoji" font-size="14px" fill="#1e1e1e" text-anchor="middle" style="white-space: pre;" direction="ltr" dominant-baseline="text-before-edge">write JSON</text></g><g stroke-linecap="round"><g transform="translate(711.6 774) rotate(0 0 168)"><path d="M0 0 C0 80.25, 0 160.5, 0 336 M0 0 C0 107.4, 0 214.8, 0 336" stroke="#1971c2" stroke-width="2" fill="none"/></g><g transform="translate(711.6 774) rotate(0 0 168)"><path d="M-10.26 307.81 C-7.81 314.54, -5.36 321.28, 0 336 M-10.26 307.81 C-6.98 316.82, -3.7 325.83, 0 336" stroke="#1971c2" stroke-width="2" fill="none"/></g><g transform="translate(711.6 774) rotate(0 0 168)"><path d="M10.26 307.81 C7.81 314.54, 5.36 321.28, 0 336 M10.26 307.81 C6.98 316.82, 3.7 325.83, 0 336" stroke="#1971c2" stroke-width="2" fill="none"/></g></g><mask/><g transform="translate(836.4 930) rotate(0 58.39999999999998 10)"><text x="58.400000000000006" y="0" font-family="Virgil, Segoe UI Emoji" font-size="14px" fill="#1e1e1e" text-anchor="middle" style="white-space: pre;" direction="ltr" dominant-baseline="text-before-edge">write source</text></g><g stroke-linecap="round"><g transform="translate(151.60000000000002 994) rotate(0 0 58)"><path d="M0 0 C0 26.63, 0 53.25, 0 116 M0 0 C0 37.73, 0 75.45, 0 116" stroke="#1971c2" stroke-width="2" fill="none"/></g><g transform="translate(151.60000000000002 994) rotate(0 0 58)"><path d="M-10.26 87.81 C-7.91 94.28, -5.55 100.75, 0 116 M-10.26 87.81 C-6.92 96.98, -3.59 106.15, 0 116" stroke="#1971c2" stroke-width="2" fill="none"/></g><g transform="translate(151.60000000000002 994) rotate(0 0 58)"><path d="M10.26 87.81 C7.91 94.28, 5.55 100.75, 0 116 M10.26 87.81 C6.92 96.98, 3.59 106.15, 0 116" stroke="#1971c2" stroke-width="2" fill="none"/></g></g><mask/><g transform="translate(10 1040) rotate(0 66.80000000000001 10)"><text x="66.80000000000001" y="0" font-family="Virgil, Segoe UI Emoji" font-size="14px" fill="#1e1e1e" text-anchor="middle" style="white-space: pre;" direction="ltr" dominant-baseline="text-before-edge">shareable link</text></g><g stroke-linecap="round"><g transform="translate(991.6 994) rotate(0 0 58)"><path d="M0 0 C0 42, 0 84, 0 116 M0 0 C0 42.59, 0 85.18, 0 116" stroke="#1971c2" stroke-width="2" fill="none"/></g><g transform="translate(991.6 994) rotate(0 0 58)"><path d="M-10.26 87.81 C-6.55 98.02, -2.83 108.22, 0 116 M-10.26 87.81 C-6.49 98.16, -2.73 108.51, 0 116" stroke="#1971c2" stroke-width="2" fill="none"/></g><g transform="translate(991.6 994) rotate(0 0 58)"><path d="M10.26 87.81 C6.55 98.02, 2.83 108.22, 0 116 M10.26 87.81 C6.49 98.16, 2.73 108.51, 0 116" stroke="#1971c2" stroke-width="2" fill="none"/></g></g><mask/><g transform="translate(833.2 1040) rotate(0 75.19999999999999 10)"><text x="75.2" y="0" font-family="Virgil, Segoe UI Emoji" font-size="14px" fill="#1e1e1e" text-anchor="middle" style="white-space: pre;" direction="ltr" dominant-baseline="text-before-edge">puppeteer render</text></g><g stroke-linecap="round"><g transform="translate(431.6 994) rotate(0 140 -162)"><path d="M0 0 C0 -58.25, 0 -116.5, 0 -162 M0 -162 C59.69 -162, 119.37 -162, 280 -162 M280 -162 C280 -201.75, 280 -241.49, 280 -324" stroke="#7048e8" stroke-width="2.5" fill="none" stroke-dasharray="8 10"/></g><g transform="translate(431.6 994) rotate(0 140 -162)"><path d="M290.26 -295.81 C286.57 -305.95, 282.88 -316.08, 280 -324" stroke="#7048e8" stroke-width="2.5" fill="none"/></g><g transform="translate(431.6 994) rotate(0 140 -162)"><path d="M269.74 -295.81 C273.43 -305.95, 277.12 -316.08, 280 -324" stroke="#7048e8" stroke-width="2.5" fill="none"/></g></g><mask/><g transform="translate(571.6 820) rotate(0 45.80000000000001 10)"><text x="45.800000000000004" y="0" font-family="Virgil, Segoe UI Emoji" font-size="14px" fill="#1e1e1e" text-anchor="middle" style="white-space: pre;" direction="ltr" dominant-baseline="text-before-edge">positions</text></g><g stroke-opacity="0.6" fill-opacity="0.6" stroke-linecap="round" transform="translate(591.6 400) rotate(0 120 202)"><path d="M32 0 C101.56 0, 171.12 0, 208 0 M208 0 C229.33 0, 240 10.67, 240 32 M240 32 C240 129.42, 240 226.85, 240 372 M240 372 C240 393.33, 229.33 404, 208 404 M208 404 C145.44 404, 82.88 404, 32 404 M32 404 C10.67 404, 0 393.33, 0 372 M0 372 C0 281.44, 0 190.89, 0 32 M0 32 C0 10.67, 10.67 0, 32 0" stroke="#868e96" stroke-width="1.5" fill="none" stroke-dasharray="8 9"/></g><g stroke-opacity="0.6" fill-opacity="0.6" transform="translate(601.6 405) rotate(0 24.80000000000001 10)"><text x="0" y="0" font-family="Virgil, Segoe UI Emoji" font-size="14px" fill="#868e96" text-anchor="start" style="white-space: pre;" direction="ltr" dominant-baseline="text-before-edge">Core</text></g><g stroke-opacity="0.6" fill-opacity="0.6" stroke-linecap="round" transform="translate(31.600000000000023 840) rotate(0 540 92)"><path d="M32 0 C429.82 0, 827.63 0, 1048 0 M1048 0 C1069.33 0, 1080 10.67, 1080 32 M1080 32 C1080 59.53, 1080 87.05, 1080 152 M1080 152 C1080 173.33, 1069.33 184, 1048 184 M1048 184 C812.88 184, 577.76 184, 32 184 M32 184 C10.67 184, 0 173.33, 0 152 M0 152 C0 108.61, 0 65.22, 0 32 M0 32 C0 10.67, 10.67 0, 32 0" stroke="#868e96" stroke-width="1.5" fill="none" stroke-dasharray="8 9"/></g><g stroke-opacity="0.6" fill-opacity="0.6" transform="translate(41.60000000000002 845) rotate(0 71 10)"><text x="0" y="0" font-family="Virgil, Segoe UI Emoji" font-size="14px" fill="#868e96" text-anchor="start" style="white-space: pre;" direction="ltr" dominant-baseline="text-before-edge">Layout &amp; Export</text></g><g stroke-opacity="0.6" fill-opacity="0.6" stroke-linecap="round" transform="translate(31.600000000000023 1060) rotate(0 540 92)"><path d="M32 0 C243.02 0, 454.04 0, 1048 0 M1048 0 C1069.33 0, 1080 10.67, 1080 32 M1080 32 C1080 71.08, 1080 110.17, 1080 152 M1080 152 C1080 173.33, 1069.33 184, 1048 184 M1048 184 C751.12 184, 454.25 184, 32 184 M32 184 C10.67 184, 0 173.33, 0 152 M0 152 C0 104.89, 0 57.78, 0 32 M0 32 C0 10.67, 10.67 0, 32 0" stroke="#868e96" stroke-width="1.5" fill="none" stroke-dasharray="8 9"/></g><g stroke-opacity="0.6" fill-opacity="0.6" transform="translate(41.60000000000002 1065) rotate(0 37.400000000000006 10)"><text x="0" y="0" font-family="Virgil, Segoe UI Emoji" font-size="14px" fill="#868e96" text-anchor="start" style="white-space: pre;" direction="ltr" dominant-baseline="text-before-edge">Outputs</text></g></svg>